<?xml version="1.0" encoding="UTF-8"?>
<svg version="1.1" xmlns="http://www.w3.org/2000/svg" width="520" height="147">
<path d="M0 0 C1.03278076 0.12213867 2.06556152 0.24427734 3.12963867 0.37011719 C4.09361572 0.49418945 5.05759277 0.61826172 6.05078125 0.74609375 C6.92001221 0.85493896 7.78924316 0.96378418 8.68481445 1.07592773 C9.6761438 1.31678101 9.6761438 1.31678101 10.6875 1.5625 C12.13477499 4.45704998 11.13199531 5.90308838 10.140625 8.9453125 C9.79 10.03070313 9.439375 11.11609375 9.078125 12.234375 C8.51351562 13.94367187 8.51351562 13.94367187 7.9375 15.6875 C7.5765625 16.80382812 7.215625 17.92015625 6.84375 19.0703125 C4.92741922 24.95816939 2.91876214 30.78663788 0.6875 36.5625 C1.71875 36.66433594 2.75 36.76617187 3.8125 36.87109375 C10.19166401 37.66848925 16.42533506 39.19997725 22.6875 40.625 C23.93917969 40.90666016 25.19085938 41.18832031 26.48046875 41.47851562 C29.55025765 42.16980396 32.61921892 42.86455525 35.6875 43.5625 C34.08922647 47.77102147 32.1098772 50.98366484 29.4375 54.625 C28.53021078 55.87294303 27.62402466 57.12168855 26.71875 58.37109375 C26.23019531 59.04382324 25.74164063 59.71655273 25.23828125 60.40966797 C22.43079248 64.30709177 19.6868581 68.24896125 16.9375 72.1875 C16.35057373 73.02724365 15.76364746 73.8669873 15.15893555 74.73217773 C13.94996717 76.46191739 12.74122941 78.19181825 11.53271484 79.921875 C8.44137915 84.3457817 5.34546448 88.76648179 2.25 93.1875 C1.14711391 94.76300578 0.04424863 96.33852613 -1.05859375 97.9140625 C-7.78515625 107.5234375 -7.78515625 107.5234375 -9.54858398 110.04248047 C-10.71623955 111.71065219 -11.88372253 113.37894473 -13.05102539 115.04736328 C-16.03770994 119.31573364 -19.02775476 123.58168907 -22.0234375 127.84375 C-22.62800781 128.70484375 -23.23257813 129.5659375 -23.85546875 130.453125 C-25.09925789 132.22466263 -26.34408546 133.99547154 -27.58984375 135.765625 C-28.18667969 136.61640625 -28.78351563 137.4671875 -29.3984375 138.34375 C-29.9351709 139.10751953 -30.4719043 139.87128906 -31.02490234 140.65820312 C-32.34990913 142.52855087 -32.34990913 142.52855087 -33.3125 144.5625 C-36.84900509 144.00012824 -39.42758991 143.13535757 -42.47265625 141.26171875 C-43.64900635 140.54628906 -43.64900635 140.54628906 -44.84912109 139.81640625 C-46.09943115 139.04103516 -46.09943115 139.04103516 -47.375 138.25 C-49.1599924 137.15988791 -50.94515378 136.07005247 -52.73046875 134.98046875 C-54.105979 134.13621338 -54.105979 134.13621338 -55.50927734 133.27490234 C-60.87551992 129.99683011 -66.28553246 126.7913257 -71.68774414 123.57299805 C-75.97465593 121.00704146 -80.18403123 118.37676167 -84.3125 115.5625 C-87.36410609 116.93513363 -89.56076932 118.52206573 -91.984375 120.8203125 C-92.64824219 121.44550781 -93.31210938 122.07070312 -93.99609375 122.71484375 C-94.67800781 123.36582031 -95.35992187 124.01679687 -96.0625 124.6875 C-97.10857422 125.67556641 -97.10857422 125.67556641 -98.17578125 126.68359375 C-99.89200489 128.30577774 -101.60403435 129.93215379 -103.3125 131.5625 C-105.81550112 127.71944426 -105.73770105 123.64752323 -105.91015625 119.2109375 C-105.94934677 118.39686432 -105.98853729 117.58279114 -106.02891541 116.74404907 C-106.15273334 114.14217712 -106.26441571 111.53996505 -106.375 108.9375 C-106.45289336 107.2095954 -106.53166043 105.48172995 -106.61132812 103.75390625 C-106.64999496 102.9147316 -106.6886618 102.07555695 -106.72850037 101.21095276 C-106.8808903 98.01365239 -107.04993092 94.81729929 -107.21853638 91.62081909 C-107.30011691 89.83375759 -107.33749082 88.04478369 -107.36694336 86.25610352 C-107.45830465 83.86340168 -107.57246867 81.83712262 -108.3125 79.5625 C-110.68361985 77.55722979 -111.96359383 76.80345195 -114.75 75.75 C-116.1915789 75.12055425 -117.63156554 74.48745467 -119.0703125 73.8515625 C-119.88532227 73.50383789 -120.70033203 73.15611328 -121.54003906 72.79785156 C-127.17099977 70.2888113 -132.62981113 67.4156471 -138.125 64.625 C-140.37996299 63.48781177 -142.63637828 62.35349679 -144.89453125 61.22265625 C-145.86624268 60.73418213 -146.8379541 60.24570801 -147.83911133 59.74243164 C-150.35489222 58.48000433 -150.35489222 58.48000433 -153.3125 57.5625 C-153.3125 56.9025 -153.3125 56.2425 -153.3125 55.5625 C-147.91147079 53.00289177 -142.50371737 50.45828583 -137.08935547 47.92700195 C-135.25054381 47.06482659 -133.4135949 46.19866628 -131.57861328 45.32836914 C-128.93227645 44.07412323 -126.27944938 42.83462303 -123.625 41.59765625 C-122.81321289 41.20908951 -122.00142578 40.82052277 -121.16503906 40.42018127 C-111.79453163 36.09288936 -105.84786555 36.16060992 -96.125 39.52734375 C-95.18188965 39.83950333 -94.2387793 40.1516629 -93.26708984 40.47328186 C-90.27686193 41.46690813 -87.29485414 42.48301483 -84.3125 43.5 C-82.27784567 44.18053893 -80.24269355 44.85959149 -78.20703125 45.53710938 C-73.23510514 47.19239203 -68.27495068 48.87790095 -63.3125 50.5625 C-63.9725 59.1425 -64.6325 67.7225 -65.3125 76.5625 C-60.6925 78.5425 -56.0725 80.5225 -51.3125 82.5625 C-51.20035156 80.74363281 -51.08820313 78.92476563 -50.97265625 77.05078125 C-50.36880567 69.20072376 -49.09929788 61.49742993 -47.75 53.75 C-47.51313243 52.36402438 -47.27680153 50.97795692 -47.04101562 49.59179688 C-46.4700828 46.24776177 -45.89382887 42.90474067 -45.3125 39.5625 C-55.70924035 36.22306656 -66.19776739 33.55194293 -76.81835938 31.03125 C-78.01654297 30.73992188 -79.21472656 30.44859375 -80.44921875 30.1484375 C-81.52905029 29.8911084 -82.60888184 29.6337793 -83.72143555 29.36865234 C-86.3125 28.5625 -86.3125 28.5625 -88.3125 26.5625 C-85.83462696 25.30988197 -83.35526098 24.06037439 -80.875 22.8125 C-80.18728516 22.46445312 -79.49957031 22.11640625 -78.79101562 21.7578125 C-77.37024741 21.04412428 -75.94399328 20.34127091 -74.51293945 19.6484375 C-73.0388907 18.92098062 -71.58352704 18.15445284 -70.14916992 17.3515625 C-63.83313398 14.04854604 -59.32951668 14.55144681 -52.5 16.0625 C-51.51185303 16.25811523 -50.52370605 16.45373047 -49.50561523 16.65527344 C-47.45867005 17.06351939 -45.41410145 17.48386032 -43.37207031 17.91601562 C-40.37518345 18.54925504 -37.37350916 19.14772682 -34.3671875 19.734375 C-29.67689832 20.65194267 -24.99348267 21.59861748 -20.3125 22.5625 C-20.42843506 23.11188232 -20.54437012 23.66126465 -20.66381836 24.22729492 C-21.19281476 26.73480658 -21.72141088 29.24240246 -22.25 31.75 C-22.52360352 33.04647461 -22.52360352 33.04647461 -22.80273438 34.36914062 C-22.97998047 35.21025391 -23.15722656 36.05136719 -23.33984375 36.91796875 C-23.50218506 37.68778076 -23.66452637 38.45759277 -23.83178711 39.25073242 C-24.33805251 41.68538307 -24.82481203 44.12406016 -25.3125 46.5625 C-22.0125 47.8825 -18.7125 49.2025 -15.3125 50.5625 C-15.11539429 49.03061035 -15.11539429 49.03061035 -14.91430664 47.46777344 C-14.36590336 43.90904775 -13.61426833 40.55299054 -12.68359375 37.078125 C-12.21469727 35.30501953 -12.21469727 35.30501953 -11.73632812 33.49609375 C-11.41083984 32.28050781 -11.08535156 31.06492188 -10.75 29.8125 C-10.09950619 27.38110435 -9.45221232 24.94884964 -8.80859375 22.515625 C-8.37824829 20.90929199 -8.37824829 20.90929199 -7.93920898 19.27050781 C-7.19976556 16.53863831 -7.19976556 16.53863831 -7.3125 13.5625 C-8.2912207 13.41627197 -9.26994141 13.27004395 -10.27832031 13.11938477 C-13.91647499 12.57529054 -17.55424022 12.02862988 -21.19189453 11.48120117 C-22.76503191 11.24482553 -24.33827344 11.00914192 -25.91162109 10.77416992 C-28.17573472 10.43591163 -30.43945963 10.0951498 -32.703125 9.75390625 C-33.40431458 9.64969864 -34.10550415 9.54549103 -34.82794189 9.43812561 C-38.03428187 8.95246099 -41.18655079 8.43510241 -44.3125 7.5625 C-44.3125 6.9025 -44.3125 6.2425 -44.3125 5.5625 C-43.18070312 5.06878906 -42.04890625 4.57507813 -40.8828125 4.06640625 C-39.40102958 3.41929852 -37.9192594 2.77216159 -36.4375 2.125 C-35.69113281 1.79951172 -34.94476563 1.47402344 -34.17578125 1.13867188 C-33.46035156 0.82607422 -32.74492188 0.51347656 -32.0078125 0.19140625 C-31.0180542 -0.2406311 -31.0180542 -0.2406311 -30.00830078 -0.68139648 C-21.37786592 -4.5294323 -9.24681582 -1.14198855 0 0 Z " fill="#FFFFFF" transform="translate(153.3125,2.4375)"/>
<path d="M0 0 C2.89164955 -0.65076838 5.57132155 -1.39135902 8.375 -2.3125 C19.79837535 -5.92860261 31.70469224 -8.71281912 43 -3 C49.37374808 0.83183665 52.09781279 5.93277601 54 13 C54.50824671 17.78411709 54.46798681 22.51380413 54.390625 27.3203125 C54.38314639 28.6736466 54.37746113 30.02699168 54.37347412 31.38034058 C54.35834469 34.90851786 54.31917698 38.43601576 54.2746582 41.96392822 C54.23342762 45.57742121 54.2154044 49.1910261 54.1953125 52.8046875 C54.15266659 59.87009299 54.08242476 66.93493009 54 74 C45.75 74 37.5 74 29 74 C28.95101562 70.15988281 28.90203125 66.31976563 28.8515625 62.36328125 C28.79754977 58.64327097 28.74024332 54.92332499 28.68261719 51.20336914 C28.64433901 48.61845695 28.60948414 46.03349171 28.578125 43.44848633 C28.53244994 39.73239177 28.4744583 36.01666211 28.4140625 32.30078125 C28.40251129 31.14540359 28.39096008 29.99002594 28.37905884 28.79963684 C28.35918915 27.71889389 28.33931946 26.63815094 28.31884766 25.5246582 C28.30552399 24.57645706 28.29220032 23.62825592 28.2784729 22.65132141 C27.96165145 19.6348861 27.55696862 17.61937012 26 15 C18.68238431 12.20943058 18.68238431 12.20943058 5 13 C5 33.13 5 53.26 5 74 C-3.25 74 -11.5 74 -20 74 C-20.03738281 69.92011719 -20.07476562 65.84023437 -20.11328125 61.63671875 C-20.15138509 58.38445482 -20.19245786 55.13225857 -20.2355423 51.88005829 C-20.28021345 48.44650999 -20.31964621 45.01308404 -20.34643555 41.5793457 C-20.37741047 37.6398769 -20.43220098 33.70091349 -20.48828125 29.76171875 C-20.49467117 28.53039719 -20.5010611 27.29907562 -20.50764465 26.03044128 C-20.52743881 24.88948502 -20.54723297 23.74852875 -20.56762695 22.57299805 C-20.58428154 21.06409248 -20.58428154 21.06409248 -20.60127258 19.52470398 C-20.80928763 16.9850919 -20.80928763 16.9850919 -22.27702332 15.21418762 C-28.07835148 11.12597162 -36.72287545 13 -43 13 C-43 33.13 -43 53.26 -43 74 C-51.25 74 -59.5 74 -68 74 C-68 48.26 -68 22.52 -68 -4 C-60.08 -4 -52.16 -4 -44 -4 C-43.67 -2.68 -43.34 -1.36 -43 0 C-41.96359375 -0.34933594 -40.9271875 -0.69867188 -39.859375 -1.05859375 C-38.48961023 -1.51830932 -37.11981707 -1.9779403 -35.75 -2.4375 C-35.06808594 -2.66759766 -34.38617188 -2.89769531 -33.68359375 -3.13476562 C-21.40969802 -7.24592487 -11.11989895 -7.41326597 0 0 Z " fill="#FFFFFF" transform="translate(466,43)"/>
<path d="M0 0 C8.25 0 16.5 0 25 0 C25 14.19 25 28.38 25 43 C30.94 40.525 30.94 40.525 37 38 C44.88180333 36.02954917 52.60341516 36.44873449 60 40 C68.72125922 46.02605958 74.53470911 54.08124766 76.71484375 64.55859375 C78.31479993 78.25684874 77.0966816 91.55258566 68.68359375 103.0078125 C60.95549861 112.15242624 51.22049816 117.17347696 39.35546875 118.78515625 C25.92826572 119.64487239 12.97658593 117.24414648 0 114 C0 76.38 0 38.76 0 0 Z M25 56 C25 71.51 25 87.02 25 103 C36.54748315 103.20643561 36.54748315 103.20643561 45.53125 97.609375 C51.73524934 90.75611991 51.51955819 82.81970072 51.30859375 74.15234375 C50.98871096 68.23650302 49.55863747 63.79617676 45.52734375 59.390625 C39.50903472 54.32557059 32.36244905 54.52751019 25 56 Z " fill="#FFFFFF" transform="translate(221,0)"/>
<path d="M0 0 C4.93768324 3.99717214 7.5566146 7.85634515 8.625 14.125 C8.8945791 18.8022501 8.85755501 23.46870783 8.8203125 28.15234375 C8.81657681 29.50997203 8.81373247 30.86760303 8.81173706 32.22523499 C8.80414431 35.77787882 8.78453397 39.33035603 8.7623291 42.88293457 C8.74177613 46.5163345 8.73271524 50.14976167 8.72265625 53.78320312 C8.70128337 60.89720962 8.66613741 68.01107632 8.625 75.125 C1.035 75.125 -6.555 75.125 -14.375 75.125 C-14.375 73.805 -14.375 72.485 -14.375 71.125 C-15.26960938 71.47433594 -16.16421875 71.82367188 -17.0859375 72.18359375 C-27.13219228 75.96432716 -36.88285744 79.24623798 -47.375 75.125 C-53.66186984 71.61864631 -57.76885589 67.23447859 -59.95703125 60.2734375 C-61.38259196 52.94578899 -61.34318528 44.63114123 -57.375 38.125 C-51.03026262 29.99324357 -43.91523826 27.85876755 -34.01953125 26.46484375 C-27.79962094 25.88485211 -21.61701182 25.96959722 -15.375 26.125 C-15.48958693 24.68663249 -15.61709116 23.24929034 -15.75 21.8125 C-15.85441406 20.61173828 -15.85441406 20.61173828 -15.9609375 19.38671875 C-16.27064426 16.85275559 -16.27064426 16.85275559 -18.375 14.125 C-21.20037773 13.18320742 -22.94895061 12.99634382 -25.875 12.9921875 C-26.75776611 12.99025391 -27.64053223 12.98832031 -28.55004883 12.98632812 C-29.48228271 12.99083984 -30.4145166 12.99535156 -31.375 13 C-32.31947998 13.00193359 -33.26395996 13.00386719 -34.23706055 13.00585938 C-40.67026932 13.04571748 -46.98235803 13.36169947 -53.375 14.125 C-53.375 9.835 -53.375 5.545 -53.375 1.125 C-37.02081878 -5.23495937 -15.90951264 -8.83861814 0 0 Z M-28.1875 40.4375 C-28.91582031 40.68113281 -29.64414062 40.92476562 -30.39453125 41.17578125 C-32.64081672 42.25240328 -33.8860492 43.12135016 -35.375 45.125 C-36.00005936 48.49806809 -35.89130458 51.73848607 -35.375 55.125 C-33.48984777 57.70137471 -32.18165143 58.72167428 -29.375 60.125 C-27.00097499 60.19616382 -24.62499323 60.20909085 -22.25 60.1875 C-19.98125 60.166875 -17.7125 60.14625 -15.375 60.125 C-15.375 53.195 -15.375 46.265 -15.375 39.125 C-22.17975008 38.96410817 -22.17975008 38.96410817 -28.1875 40.4375 Z " fill="#FFFFFF" transform="translate(370.375,41.875)"/>
</svg>
