<?xml version="1.0" encoding="UTF-8"?>
<svg version="1.1" xmlns="http://www.w3.org/2000/svg" width="874" height="131">
<path d="M0 0 C-3.73070817 4.39394517 -8.53201257 6.75376318 -13.5 9.5 C-15.37997516 10.55538987 -17.25885196 11.61273824 -19.13671875 12.671875 C-20.10013184 13.21521484 -21.06354492 13.75855469 -22.05615234 14.31835938 C-26.85118193 17.05746733 -31.58378279 19.89835704 -36.3125 22.75 C-37.61960938 23.53793945 -37.61960938 23.53793945 -38.953125 24.34179688 C-40.96987043 25.55936198 -42.98558384 26.77858634 -45 28 C-43.95996826 28.18792114 -43.95996826 28.18792114 -42.89892578 28.37963867 C-19.49348726 32.64554973 -19.49348726 32.64554973 -8.4375 35.6875 C-7.68936035 35.88947998 -6.9412207 36.09145996 -6.17041016 36.29956055 C-4.42630171 36.79927234 -2.70882901 37.39046775 -1 38 C-0.67 38.66 -0.34 39.32 0 40 C-5.97461954 42.78861256 -11.97560644 45.51317066 -17.99462891 48.20458984 C-20.93114116 49.51794185 -23.86163788 50.84405603 -26.79052734 52.17431641 C-31.18410476 54.16602089 -35.59195832 56.12333408 -40.00830078 58.06399536 C-41.78542582 58.85067764 -43.55815341 59.64737458 -45.32617188 60.45431519 C-47.85595488 61.60645265 -50.3996688 62.72054875 -52.94921875 63.828125 C-53.69769577 64.17861404 -54.44617279 64.52910309 -55.21733093 64.89021301 C-61.6930276 67.6284716 -66.32139006 66.71030766 -73 65 C-74.4816292 64.64167177 -75.96367438 64.28506111 -77.44602966 63.92974854 C-82.90894976 62.6070664 -88.35662697 61.22613874 -93.8046875 59.84375 C-95.81717466 59.33551397 -97.82971835 58.82750175 -99.84231567 58.31970215 C-104.04033714 57.25961132 -108.23768799 56.19691567 -112.43457031 55.13232422 C-117.80997648 53.76899731 -123.18698263 52.41210551 -128.56449699 51.05712128 C-132.71210198 50.01131512 -136.8588633 48.96219568 -141.00537491 47.9120636 C-142.98823797 47.41029965 -144.97135756 46.90954829 -146.95473862 46.40983582 C-149.72182809 45.71212566 -152.48775408 45.00997722 -155.25341797 44.30664062 C-156.0690773 44.10190628 -156.88473663 43.89717194 -157.72511292 43.68623352 C-161.61231933 42.69276073 -165.31280269 41.61550708 -169 40 C-168 38 -168 38 -165.95996094 37.28564453 C-162.89274609 36.55098558 -159.82609062 35.82185761 -156.75 35.125 C-155.58919922 34.86106445 -154.42839844 34.59712891 -153.23242188 34.32519531 C-131.41188608 29.53773944 -109.26586022 27.38826552 -87 26 C-87.64211426 25.6690332 -88.28422852 25.33806641 -88.94580078 24.99707031 C-101.02134874 18.7652212 -113.04889454 12.47727641 -124.93676758 5.89379883 C-130.94145003 2.596741 -137.01093312 -0.55294648 -143.12109375 -3.6484375 C-144.3165683 -4.25571434 -144.3165683 -4.25571434 -145.53619385 -4.8752594 C-149.54643457 -6.91148978 -153.56160601 -8.93682856 -157.58544922 -10.94604492 C-159.06367974 -11.69409734 -160.54171615 -12.44253348 -162.01953125 -13.19140625 C-163.05538612 -13.70161819 -163.05538612 -13.70161819 -164.11216736 -14.22213745 C-168.88651657 -16.6595497 -168.88651657 -16.6595497 -170 -20 C-115.63907083 -44.45019303 -48.8262331 -32.98073858 0 0 Z " fill="#FEFEFE" transform="translate(170,33)"/>
<path d="M0 0 C3.42475174 2.43337624 3.93274942 3.72203095 4.9375 7.875 C5.25186983 12.00014562 4.35958926 14.53926908 2 18 C-0.6875 20.375 -0.6875 20.375 -3 22 C-1.55746343 25.36591866 0.33264727 27.51047079 3 30 C3.66 27.36 4.32 24.72 5 22 C8.96 22 12.92 22 17 22 C16.69957468 28.40907344 15.81989881 32.08870152 11.86328125 37.17578125 C10.73856545 39.00532003 10.73856545 39.00532003 11.69140625 41.03515625 C12.90814814 42.86208511 14.16220351 44.4911162 15.625 46.125 C18 49 18 49 18 51 C15.70858714 51.05384521 13.41681812 51.09272087 11.125 51.125 C9.84882812 51.14820313 8.57265625 51.17140625 7.2578125 51.1953125 C4 51 4 51 2 49 C-1.02519088 49.35590481 -3.77194407 50.23550836 -6.6875 51.125 C-13.99125376 52.95782877 -21.48708116 51.70342444 -28 48 C-31.63669511 45.05969331 -32.73370989 43.56748044 -33.515625 38.96484375 C-33.79781078 33.378848 -33.80254379 29.11500973 -30.125 24.6875 C-27.43099274 22 -27.43099274 22 -25 22 C-25.639375 21.195625 -26.27875 20.39125 -26.9375 19.5625 C-29.55184451 15.6129724 -30.21046236 11.69751984 -30 7 C-28.74557459 3.23672378 -27.73865273 1.54925459 -24.5625 -0.8125 C-16.6853862 -4.46286981 -7.52260014 -4.29862865 0 0 Z M-16.3125 7.4375 C-16.869375 7.953125 -17.42625 8.46875 -18 9 C-17.50168276 12.68754757 -16.89932357 14.60490662 -14 17 C-10.83884224 15.63016497 -10.0072908 15.0109362 -8 12 C-8.3121764 9.35367713 -8.3121764 9.35367713 -9 7 C-12.79735079 5.82620426 -12.79735079 5.82620426 -16.3125 7.4375 Z M-19.6875 30.625 C-21.24688145 32.99448176 -21.24688145 32.99448176 -21 36.0625 C-20.22771468 39.10526184 -20.22771468 39.10526184 -17.875 40.9375 C-14.2243172 42.28666538 -11.75800798 41.81055074 -8 41 C-7.5884572 37.0709844 -7.5884572 37.0709844 -9.6796875 34.859375 C-10.40414062 34.16328125 -11.12859375 33.4671875 -11.875 32.75 C-12.59429688 32.04359375 -13.31359375 31.3371875 -14.0546875 30.609375 C-16.60206142 28.50190903 -17.27873749 28.30545092 -19.6875 30.625 Z " fill="#FEFEFE" transform="translate(694,61)"/>
<path d="M0 0 C0.33 0.66 0.66 1.32 1 2 C-5.7043573 3.72451686 -12.42158028 5.3925617 -19.14501953 7.04101562 C-21.76515265 7.69281315 -24.37958381 8.3550337 -26.99169922 9.03710938 C-46.5516922 14.13446496 -65.27860582 17.09755525 -85.48840332 17.71026611 C-93.6638537 17.96325988 -101.8311165 18.36191756 -110 18.76953125 C-111.42738656 18.84037636 -112.85477508 18.9111821 -114.28216553 18.98194885 C-116.44264082 19.08913048 -118.60311341 19.19636483 -120.76357651 19.303792 C-128.4096388 19.68363921 -136.05615072 20.05305821 -143.703125 20.4140625 C-144.92563965 20.47330399 -146.1481543 20.53254547 -147.40771484 20.59358215 C-153.27956279 20.86883793 -159.12170895 21.06793094 -165 21 C-165 20.34 -165 19.68 -165 19 C-113.87426304 5.23511988 -53.09804945 -10.61960989 0 0 Z " fill="#FEFEFE" transform="translate(168,110)"/>
<path d="M0 0 C4.62 0 9.24 0 14 0 C15.65 7.59 17.3 15.18 19 23 C19.598125 20.69 20.19625 18.38 20.8125 16 C22.25093594 10.5270853 23.85844073 5.24682021 26 0 C30.95 0 35.9 0 41 0 C42.33920231 3.34800578 43.33146961 6.00247586 44.0703125 9.42578125 C44.24433594 10.22177734 44.41835938 11.01777344 44.59765625 11.83789062 C44.77167969 12.65451172 44.94570313 13.47113281 45.125 14.3125 C45.30675781 15.14845703 45.48851562 15.98441406 45.67578125 16.84570312 C46.12105365 18.89629972 46.5610552 20.94803962 47 23 C47.26554687 21.92621094 47.53109375 20.85242188 47.8046875 19.74609375 C48.16139421 18.3098799 48.51816866 16.87368288 48.875 15.4375 C49.04902344 14.73302734 49.22304688 14.02855469 49.40234375 13.30273438 C50.51294815 8.83975002 51.71201216 4.41512948 53 0 C57.29 0 61.58 0 66 0 C63.76064872 9.58331074 61.17044681 19.02028292 58.3125 28.4375 C57.84831665 29.97482788 57.84831665 29.97482788 57.37475586 31.54321289 C57.08221924 32.49703857 56.78968262 33.45086426 56.48828125 34.43359375 C56.22571533 35.29009521 55.96314941 36.14659668 55.69262695 37.02905273 C55 39 55 39 54 40 C51.69098304 40.15179378 49.37632931 40.22181122 47.0625 40.25 C45.79535156 40.27578125 44.52820313 40.3015625 43.22265625 40.328125 C42.15917969 40.21984375 41.09570312 40.1115625 40 40 C38.19513722 37.29270584 37.60146378 35.95864254 36.9296875 32.91015625 C36.75566406 32.12576172 36.58164062 31.34136719 36.40234375 30.53320312 C36.22832031 29.71787109 36.05429687 28.90253906 35.875 28.0625 C35.69324219 27.25103516 35.51148438 26.43957031 35.32421875 25.60351562 C34.51871535 21.91212975 34 18.8153929 34 15 C33.34 15 32.68 15 32 15 C31.87625 16.14597656 31.7525 17.29195312 31.625 18.47265625 C31.07201581 22.88971479 30.10781939 27.13065143 29 31.4375 C28.82210938 32.15615234 28.64421875 32.87480469 28.4609375 33.61523438 C27.13149889 38.86850111 27.13149889 38.86850111 26 40 C23.71406683 40.20462317 21.41926263 40.31400733 19.125 40.375 C17.86945313 40.42398438 16.61390625 40.47296875 15.3203125 40.5234375 C12 40 12 40 10.43383789 37.9128418 C8.81161101 34.61728774 7.76075721 31.39994669 6.73828125 27.87109375 C6.54276169 27.19957779 6.34724213 26.52806183 6.14579773 25.8361969 C5.73656855 24.42442751 5.33084673 23.01163718 4.9284668 21.59790039 C4.31266247 19.43806983 3.68355468 17.28243985 3.05273438 15.12695312 C0 4.54809373 0 4.54809373 0 0 Z " fill="#FFFFFF" transform="translate(413,72)"/>
<path d="M0 0 C4.62 0 9.24 0 14 0 C14 18.81 14 37.62 14 57 C9.71 57 5.42 57 1 57 C0.67 55.68 0.34 54.36 0 53 C-0.66 53.639375 -1.32 54.27875 -2 54.9375 C-5.62526117 57.42986705 -8.67231823 58.19163167 -13 58 C-19.2099166 56.80842929 -22.49242521 54.15819822 -26 49 C-29.15802016 42.57315195 -29.00867257 34.62570937 -27.5 27.70703125 C-25.58350907 22.77424493 -22.2123036 19.22258883 -17.625 16.6875 C-10.13230968 14.72512873 -7.25087503 16.37456248 0 20 C0 13.4 0 6.8 0 0 Z M-11.8125 29.0625 C-14.26046421 32.34976623 -15 33.91884757 -15 38 C-13.7723088 42.33302775 -13.05384925 44.38143631 -9.125 46.6875 C-5.94926988 47.29394243 -5.94926988 47.29394243 -3.25 45.5625 C-0.39563871 42.31169964 0.49694712 40.31188186 1 36 C0.19988789 32.89887582 -0.95692104 30.47194684 -3 28 C-7.04984497 26.1904948 -8.23695394 26.44043289 -11.8125 29.0625 Z " fill="#FEFEFE" transform="translate(745,55)"/>
<path d="M0 0 C4.64665066 3.86497111 6.66174946 8.61229072 7.25390625 14.54296875 C7.52461271 20.874007 6.92919873 25.88506674 3 31 C-1.47556952 35.54513796 -6.71813893 37.43729258 -13 38 C-19.68188632 37.98990652 -25.55291124 37.19850063 -30.625 32.4921875 C-35.1452046 27.64600661 -36.71004674 23.1894859 -37.3125 16.5625 C-36.80858558 10.81787563 -35.36267919 6.61369905 -31.625 2.1875 C-22.06649593 -5.77792006 -10.77470007 -6.10315179 0 0 Z M-18.75 7.0625 C-21.45336821 9.3904004 -22.24072148 10.50731883 -23 14 C-23.06241038 18.36092512 -22.73502999 21.84091425 -20.375 25.5625 C-17.06250523 27.56743105 -14.80007406 27.48364579 -11 27 C-8.38406847 25.16884793 -8.03010545 24.09031634 -7 21 C-6.7299424 16.81410722 -6.59886918 14.02511209 -8.125 10.125 C-11.27194171 6.55846606 -14.22873164 5.31564632 -18.75 7.0625 Z " fill="#FFFFFF" transform="translate(309,75)"/>
<path d="M0 0 C5.24565198 5.62034141 6.22038291 11.56285577 5.96875 19.1328125 C5.23165417 24.87880952 2.9667622 29.06409024 -1.5625 32.6875 C-8.64578846 37.14846464 -16.32758438 37.44949566 -24.375 35.8125 C-29.86235017 33.91303263 -33.13859459 30.50629294 -36.375 25.8125 C-39.48461504 19.02788536 -38.84463589 12.74075189 -36.3515625 5.890625 C-33.56695743 -0.03501459 -28.40868937 -2.70848056 -22.5 -4.875 C-14.4011582 -6.06600615 -6.71457623 -4.91959051 0 0 Z M-20.125 5.875 C-22.82836821 8.2029004 -23.61572148 9.31981883 -24.375 12.8125 C-24.43741038 17.17342512 -24.11002999 20.65341425 -21.75 24.375 C-18.43750523 26.37993105 -16.17507406 26.29614579 -12.375 25.8125 C-9.75906847 23.98134793 -9.40510545 22.90281634 -8.375 19.8125 C-8.1049424 15.62660722 -7.97386918 12.83761209 -9.5 8.9375 C-12.64694171 5.37096606 -15.60373164 4.12814632 -20.125 5.875 Z " fill="#FEFEFE" transform="translate(832.375,76.1875)"/>
<path d="M0 0 C4.57251335 4.11012436 7.75603683 7.81648066 8.23828125 14.109375 C8.4892245 26.41880197 8.4892245 26.41880197 4 32 C-2.15837758 37.69649926 -7.75816283 38.89711992 -16 39 C-22.19467478 38.33288118 -27.20290298 35.9889823 -31.48046875 31.41796875 C-35.95131102 25.46936909 -35.96100967 19.18511904 -35 12 C-33.29612834 6.06024628 -30.07910145 2.38606763 -25 -1 C-16.94462723 -4.19175148 -7.69896576 -4.25542835 0 0 Z M-19 9 C-21.74882489 13.43137963 -21.64541705 17.94287145 -21 23 C-19.66983836 26.22838773 -19.66983836 26.22838773 -17 28 C-13.5 28.83333333 -13.5 28.83333333 -10 28 C-7.27733266 25.56392922 -6.21214321 23.63642964 -5.0625 20.1875 C-4.97986488 15.97310864 -5.9359152 12.67322846 -8 9 C-11.75006533 6.187451 -15.14087406 6.51024133 -19 9 Z " fill="#FFFFFF" transform="translate(355,74)"/>
<path d="M0 0 C4.15613255 4.50247693 6.42073734 10.42695892 6.6875 16.5625 C5.81077099 24.3278141 3.69145126 29.0623072 -2.515625 34.0234375 C-9.00382907 38.12960861 -16.42767016 38.03187827 -23.75 36.4375 C-29.75656101 34.59982836 -32.76693822 31.76690742 -35.83984375 26.33984375 C-38.37154477 21.04826264 -38.70155054 15.08277816 -37.21875 9.40234375 C-35.15585042 4.30115186 -32.54813832 0.50873134 -27.8125 -2.3125 C-17.99894824 -6.31803133 -9.05336792 -5.14395905 0 0 Z M-19.5 6.5625 C-23.22629083 9.66774236 -23.65429298 11.44852749 -24.125 16.3125 C-23.9868131 20.65319436 -22.83496379 23.27343457 -19.75 26.4375 C-15.84410394 27.13498144 -13.78459003 27.06369923 -10.375 25 C-8.00625306 21.26466829 -7.56748976 17.82535041 -7.75 13.4375 C-9.02061793 9.32667727 -9.83879132 7.93272211 -13.625 5.875 C-16.75366296 5.16971338 -16.75366296 5.16971338 -19.5 6.5625 Z " fill="#FFFFFF" transform="translate(518.75,75.5625)"/>
<path d="M0 0 C4.03843343 2.60254599 6.29289779 5.25369336 7.8125 9.8125 C7.89628628 12.0963517 7.91979915 14.382601 7.91015625 16.66796875 C7.9087413 17.32960526 7.90732635 17.99124176 7.90586853 18.67292786 C7.90027996 20.78199828 7.88772965 22.89096177 7.875 25 C7.86998352 26.43163909 7.86542087 27.86327985 7.86132812 29.29492188 C7.851166 32.80085539 7.83158861 36.30655827 7.8125 39.8125 C3.5225 39.8125 -0.7675 39.8125 -5.1875 39.8125 C-5.30867188 37.95882812 -5.42984375 36.10515625 -5.5546875 34.1953125 C-5.72347619 31.77600798 -5.89277329 29.35673889 -6.0625 26.9375 C-6.14113281 25.71417969 -6.21976562 24.49085937 -6.30078125 23.23046875 C-6.42646484 21.48056641 -6.42646484 21.48056641 -6.5546875 19.6953125 C-6.62800293 18.61652832 -6.70131836 17.53774414 -6.77685547 16.42626953 C-6.94884991 13.65862192 -6.94884991 13.65862192 -9.1875 11.8125 C-12.22094954 11.90135 -12.22094954 11.90135 -15.1875 12.8125 C-18.80537729 18.23931593 -18.46142792 24.28114497 -18.75 30.625 C-18.79318359 31.50865234 -18.83636719 32.39230469 -18.88085938 33.30273438 C-18.98641536 35.47249623 -19.08741071 37.6424791 -19.1875 39.8125 C-23.4775 39.8125 -27.7675 39.8125 -32.1875 39.8125 C-32.1875 26.6125 -32.1875 13.4125 -32.1875 -0.1875 C-28.2275 -0.1875 -24.2675 -0.1875 -20.1875 -0.1875 C-19.8575 1.1325 -19.5275 2.4525 -19.1875 3.8125 C-18.259375 3.173125 -17.33125 2.53375 -16.375 1.875 C-10.93541027 -1.64473453 -6.14136896 -2.28796098 0 0 Z " fill="#FFFFFF" transform="translate(401.1875,72.1875)"/>
<path d="M0 0 C6.52367042 6.69534596 6.45691463 12.94857725 7 22 C-1.25 22 -9.5 22 -18 22 C-15.65079137 27.14462031 -15.65079137 27.14462031 -12 28 C-6.46190705 28.27690465 -2.24880553 27.74960184 3 26 C3 29.3 3 32.6 3 36 C-3.74221719 39.3711086 -11.07879981 39.83170823 -18.375 37.875 C-24.12358913 35.82654609 -27.5826761 33.26771824 -30.875 28 C-33.29141185 21.38742387 -33.27729712 12.95074604 -30.4375 6.5 C-27.83009526 2.11102334 -23.93201585 -1.07934702 -19.046875 -2.61328125 C-12.41330179 -3.86657085 -5.92811972 -3.38749699 0 0 Z M-16.8125 8.25 C-18.30036657 10.22667485 -18.30036657 10.22667485 -19 14 C-14.38 14 -9.76 14 -5 14 C-5.66 12.02 -6.32 10.04 -7 8 C-10.2947746 6.3526127 -13.72006062 6.11728318 -16.8125 8.25 Z " fill="#FFFFFF" transform="translate(616,74)"/>
<path d="M0 0 C0.09765625 6.15234375 0.09765625 6.15234375 0 8 C-1 9 -1 9 -4.16015625 9.09765625 C-6.09181641 9.08025391 -6.09181641 9.08025391 -8.0625 9.0625 C-9.35285156 9.05347656 -10.64320313 9.04445313 -11.97265625 9.03515625 C-12.97167969 9.02355469 -13.97070312 9.01195313 -15 9 C-15.33 9.99 -15.66 10.98 -16 12 C-15.26394531 12.18175781 -14.52789063 12.36351563 -13.76953125 12.55078125 C-1.53110048 15.70334928 -1.53110048 15.70334928 2 21 C2.6543385 25.91514731 2.7050476 30.46171432 0.625 35 C-6.61845556 40.51882328 -14.2423432 40.22902653 -22.99609375 39.421875 C-26 39 -26 39 -29 38 C-28.67 34.7 -28.34 31.4 -28 28 C-23.05 28.33 -18.1 28.66 -13 29 C-12.67 28.01 -12.34 27.02 -12 26 C-12.97582031 25.61328125 -13.95164062 25.2265625 -14.95703125 24.828125 C-16.24244064 24.30270219 -17.5275831 23.77662604 -18.8125 23.25 C-19.45509766 22.99734375 -20.09769531 22.7446875 -20.75976562 22.484375 C-24.52532658 20.92352072 -27.08638884 19.67468811 -29 16 C-29.91052942 11.48836773 -29.35738346 7.80411279 -27.5 3.625 C-20.021277 -4.22765915 -9.55790785 -2.78048228 0 0 Z " fill="#FFFFFF" transform="translate(871,73)"/>
<path d="M0 0 C0 4.29 0 8.58 0 13 C2.97 13 5.94 13 9 13 C9 16.3 9 19.6 9 23 C5.04 23.495 5.04 23.495 1 24 C0.90054585 30.11090483 0.9287172 35.97403427 2 42 C4.64 42.99 7.28 43.98 10 45 C10.04241723 47.33294775 10.04092937 49.66702567 10 52 C8.036987 53.963013 4.42160806 53.22987489 1.75 53.25 C1.08097656 53.270625 0.41195312 53.29125 -0.27734375 53.3125 C-4.70771066 53.34731624 -7.57787363 52.87258783 -11 50 C-12.74405387 46.45304847 -13.24128117 43.62954033 -13.1953125 39.69921875 C-13.18886719 38.72275391 -13.18242188 37.74628906 -13.17578125 36.74023438 C-13.15902344 35.73283203 -13.14226563 34.72542969 -13.125 33.6875 C-13.11597656 32.66076172 -13.10695313 31.63402344 -13.09765625 30.57617188 C-13.07416201 28.05054101 -13.04131131 25.5253919 -13 23 C-15.31 23 -17.62 23 -20 23 C-20 19.7 -20 16.4 -20 13 C-17.69 13 -15.38 13 -13 13 C-13 10.36 -13 7.72 -13 5 C-11.56328432 4.35242375 -10.12559584 3.70700547 -8.6875 3.0625 C-7.88699219 2.70285156 -7.08648438 2.34320313 -6.26171875 1.97265625 C-1.6746988 0 -1.6746988 0 0 0 Z " fill="#FFFFFF" transform="translate(571,59)"/>
<path d="M0 0 C0.33 0.33 0.66 0.66 1 1 C0.91036938 2.69141656 0.75422324 4.37959602 0.5625 6.0625 C0.46066406 6.98160156 0.35882813 7.90070313 0.25390625 8.84765625 C0.17011719 9.55792969 0.08632812 10.26820312 0 11 C-0.5775 10.84144531 -1.155 10.68289062 -1.75 10.51953125 C-5.20593218 9.72154691 -8.48093017 9.48695286 -12 10 C-15.03437855 12.02291903 -15.81161043 13.42227198 -16.9375 16.875 C-17.01494522 20.74726087 -16.06519782 22.75468914 -14 26 C-10.47320901 28.35119399 -8.97120515 28.21443452 -4.8125 28.125 C-3.72582031 28.10695313 -2.63914063 28.08890625 -1.51953125 28.0703125 C-0.68808594 28.04710938 0.14335937 28.02390625 1 28 C1 31.3 1 34.6 1 38 C-6.13747094 40.28937747 -13.27326719 41.04377929 -20.33984375 37.98828125 C-25.35559897 35.02739781 -29.11747506 31.64757483 -31 26 C-31.14648082 23.73236426 -31.2209626 21.45967634 -31.25 19.1875 C-31.28867188 17.38345703 -31.28867188 17.38345703 -31.328125 15.54296875 C-30.83105735 10.17582165 -28.85669476 6.24260956 -24.75 2.75 C-17.25137891 -3.26780096 -8.7668256 -2.9807207 0 0 Z " fill="#FEFEFE" transform="translate(238,73)"/>
<path d="M0 0 C4.29 0 8.58 0 13 0 C13 18.81 13 37.62 13 57 C8.71 57 4.42 57 0 57 C0 38.19 0 19.38 0 0 Z " fill="#FFFFFF" transform="translate(532,55)"/>
<path d="M0 0 C0.66 0.66 1.32 1.32 2 2 C1.96674646 5.38077661 1.43082516 8.63956379 1 12 C-2.63 12.66 -6.26 13.32 -10 14 C-12.46554458 22.87596049 -12.62476926 31.84634482 -13 41 C-17.29 41 -21.58 41 -26 41 C-26 27.8 -26 14.6 -26 1 C-22.04 1 -18.08 1 -14 1 C-13.67 2.32 -13.34 3.64 -13 5 C-12.401875 4.360625 -11.80375 3.72125 -11.1875 3.0625 C-7.70317588 -0.22271988 -4.63097545 -0.29559418 0 0 Z " fill="#FEFEFE" transform="translate(792,71)"/>
<path d="M0 0 C1 1 1 1 1.09765625 3.50390625 C1.08605469 4.51324219 1.07445312 5.52257812 1.0625 6.5625 C1.05347656 7.57441406 1.04445313 8.58632812 1.03515625 9.62890625 C1.02355469 10.41136719 1.01195312 11.19382812 1 12 C0.38511719 12.10957031 -0.22976563 12.21914062 -0.86328125 12.33203125 C-1.67152344 12.49058594 -2.47976563 12.64914063 -3.3125 12.8125 C-4.51326172 13.03873047 -4.51326172 13.03873047 -5.73828125 13.26953125 C-8.31445959 14.10156121 -9.37307676 14.85246133 -11 17 C-11.90776137 19.93121373 -12.17921939 22.70831787 -12.31640625 25.765625 C-12.35830078 26.65507813 -12.40019531 27.54453125 -12.44335938 28.4609375 C-12.48267578 29.38132812 -12.52199219 30.30171875 -12.5625 31.25 C-12.60568359 32.18585938 -12.64886719 33.12171875 -12.69335938 34.0859375 C-12.79917939 36.39046222 -12.90006917 38.69521239 -13 41 C-17.29 41 -21.58 41 -26 41 C-26 27.8 -26 14.6 -26 1 C-22.04 1 -18.08 1 -14 1 C-13.67 2.32 -13.34 3.64 -13 5 C-12.154375 4.175 -11.30875 3.35 -10.4375 2.5 C-7.03047169 -0.37163814 -4.44731174 -0.52321315 0 0 Z " fill="#FEFEFE" transform="translate(655,71)"/>
<path d="M0 0 C0 3.96 0 7.92 0 12 C-2.24609375 12.42317708 -4.4921875 12.84635417 -6.73828125 13.26953125 C-9.31445959 14.10156121 -10.37307676 14.85246133 -12 17 C-12.90776137 19.93121373 -13.17921939 22.70831787 -13.31640625 25.765625 C-13.35830078 26.65507813 -13.40019531 27.54453125 -13.44335938 28.4609375 C-13.48267578 29.38132812 -13.52199219 30.30171875 -13.5625 31.25 C-13.60568359 32.18585938 -13.64886719 33.12171875 -13.69335938 34.0859375 C-13.79917939 36.39046222 -13.90006917 38.69521239 -14 41 C-18.29 41 -22.58 41 -27 41 C-27 27.8 -27 14.6 -27 1 C-23.04 1 -19.08 1 -15 1 C-14.67 2.32 -14.34 3.64 -14 5 C-13.401875 4.360625 -12.80375 3.72125 -12.1875 3.0625 C-8.40764294 -0.50136523 -4.98143974 -0.09398943 0 0 Z " fill="#FEFEFE" transform="translate(271,71)"/>
</svg>
