<?xml version="1.0" encoding="UTF-8"?>
<svg version="1.1" xmlns="http://www.w3.org/2000/svg" width="500" height="300">
<path d="M0 0 C0.7425 -0.61875 1.485 -1.2375 2.25 -1.875 C8.34937975 -5.90289229 16.23932573 -6.58445881 23.3125 -5.375 C30.07846009 -3.65098132 34.81650046 -0.88100278 38.95703125 4.828125 C42.24949746 11.68434677 42.27317377 18.6194184 42.1953125 26.0625 C42.1924826 27.09439453 42.18965271 28.12628906 42.18673706 29.18945312 C42.17561252 32.45975732 42.15052226 35.72977968 42.125 39 C42.11496022 41.22786061 42.10583612 43.45572554 42.09765625 45.68359375 C42.0756985 51.12250312 42.04122222 56.5612039 42 62 C36.39 62 30.78 62 25 62 C24.98541748 60.56688477 24.97083496 59.13376953 24.95581055 57.65722656 C24.89785325 52.34186813 24.82061973 47.02693447 24.73754883 41.71191406 C24.70428749 39.41120292 24.67625937 37.11040994 24.65356445 34.80957031 C24.62004127 31.50290032 24.5677254 28.19698112 24.51171875 24.890625 C24.50532883 23.86132874 24.4989389 22.83203247 24.49235535 21.77154541 C24.47256119 20.81085144 24.45276703 19.85015747 24.43237305 18.86035156 C24.42126999 18.01651917 24.41016693 17.17268677 24.39872742 16.30328369 C23.90252283 13.43691465 23.0262526 12.0731031 21 10 C16.50517355 8.91254199 14.28549071 8.42563181 10.0625 10.3125 C7.91019125 11.83873758 7.91019125 11.83873758 7 14 C6.88177029 15.54142175 6.82300189 17.08761097 6.79467773 18.63330078 C6.77473251 19.59414581 6.75478729 20.55499084 6.73423767 21.54495239 C6.70916893 23.10438065 6.70916893 23.10438065 6.68359375 24.6953125 C6.66281265 25.75789276 6.64203156 26.82047302 6.62062073 27.91525269 C6.55509739 31.31843438 6.49622727 34.72169489 6.4375 38.125 C6.39431743 40.42839366 6.35070323 42.73177926 6.30664062 45.03515625 C6.19941313 50.69002284 6.09815351 56.34496892 6 62 C0.39 62 -5.22 62 -11 62 C-11.01458252 60.60241455 -11.02916504 59.2048291 -11.04418945 57.76489258 C-11.10220831 52.57436678 -11.17944163 47.38427315 -11.26245117 42.1940918 C-11.29568351 39.9487205 -11.32372069 37.703266 -11.34643555 35.45776367 C-11.38001202 32.22799257 -11.43233073 28.99898273 -11.48828125 25.76953125 C-11.49467117 24.76727005 -11.5010611 23.76500885 -11.50764465 22.7323761 C-11.62301659 15.86637311 -11.62301659 15.86637311 -15 10 C-17.62287265 8.85866629 -20.16073614 8.78968416 -23 9 C-25.43063337 10.13774328 -27.11813896 11.11813896 -29 13 C-29.1225355 14.53382679 -29.17777938 16.07310519 -29.20532227 17.61157227 C-29.22526749 18.59251358 -29.24521271 19.5734549 -29.26576233 20.5841217 C-29.28247482 21.6507756 -29.29918732 22.7174295 -29.31640625 23.81640625 C-29.33718735 24.9025975 -29.35796844 25.98878876 -29.37937927 27.1078949 C-29.44499442 30.59269627 -29.50381511 34.07757568 -29.5625 37.5625 C-29.60567385 39.91862801 -29.64928776 42.27474799 -29.69335938 44.63085938 C-29.80068797 50.42049205 -29.90192131 56.21020354 -30 62 C-35.61 62 -41.22 62 -47 62 C-47 40.55 -47 19.1 -47 -3 C-42.71 -3 -38.42 -3 -34 -3 C-33.34 -2.34 -32.68 -1.68 -32 -1 C-30.96875 -1.639375 -29.9375 -2.27875 -28.875 -2.9375 C-18.98310894 -8.50539077 -9.02507956 -5.90772116 0 0 Z " fill="#FEFEFE" transform="translate(264,128)"/>
<path d="M0 0 C5.90294762 5.35870422 6.68428053 13.05787999 7.17095947 20.67611694 C7.22844989 23.35298697 7.22582733 26.02193732 7.1953125 28.69921875 C7.1924826 29.6602803 7.18965271 30.62134186 7.18673706 31.61152649 C7.17567314 34.63698567 7.15059573 37.66213253 7.125 40.6875 C7.11495233 42.75715714 7.10582964 44.82681899 7.09765625 46.89648438 C7.07577923 51.93110723 7.0413472 56.96550094 7 62 C3.04 62 -0.92 62 -5 62 C-5.33 61.01 -5.66 60.02 -6 59 C-6.556875 59.27714844 -7.11375 59.55429688 -7.6875 59.83984375 C-16.83562448 64.1821123 -24.24596456 64.77833169 -34 62 C-39.3051957 59.202715 -42.66981397 55.79339065 -45.25 50.375 C-46.82630431 43.28163059 -47.14316115 36.21996295 -43.390625 29.78515625 C-38.81762247 23.91475693 -33.27845613 21.19798667 -26 20 C-22.99178575 19.79188042 -20.01334724 19.80710829 -17 19.875 C-15.83791016 19.88853516 -15.83791016 19.88853516 -14.65234375 19.90234375 C-12.76809157 19.92560612 -10.88400168 19.9614636 -9 20 C-11.05219485 13.91939393 -11.05219485 13.91939393 -15.3125 9.4375 C-22.18233991 8.31915397 -28.30309457 9.49083821 -35 11 C-35.67305018 9.39850114 -36.33822227 7.79368971 -37 6.1875 C-37.37125 5.29417969 -37.7425 4.40085938 -38.125 3.48046875 C-39 1 -39 1 -39 -2 C-26.36560349 -7.09808982 -11.58888197 -8.44427073 0 0 Z M-28 35 C-30.50031654 38.75047482 -30.53603554 40.55856266 -30 45 C-28.21013047 48.1235883 -28.21013047 48.1235883 -25 50 C-20.67501991 50.82119875 -17.1318912 50.45757304 -13.0625 48.8125 C-10.47520485 46.53881639 -9.78960625 45.37377216 -9 42 C-8.85140027 38.65906819 -8.8832111 35.34146017 -9 32 C-18.9235478 31.53178432 -18.9235478 31.53178432 -28 35 Z " fill="#FFFFFF" transform="translate(362,128)"/>
<path d="M0 0 C8.11358652 9.3618306 6 21.18430506 6 33 C-6.21 33 -18.42 33 -31 33 C-29.94645444 41.46787976 -29.94645444 41.46787976 -26.5625 44.5 C-22.2237068 47.03978138 -18.97743792 47.32112503 -14 47 C-11.65460183 46.28411961 -9.3901376 45.46852746 -7.11328125 44.55859375 C-4.57922088 43.88877742 -3.38383958 43.90244053 -1 45 C0.30078125 46.9609375 0.30078125 46.9609375 1.3125 49.375 C1.83263672 50.56222656 1.83263672 50.56222656 2.36328125 51.7734375 C3 54 3 54 2 57 C-7.20193696 62.70205495 -19.17804067 63.03321347 -29.4921875 60.79296875 C-35.61406147 58.85723602 -40.56140619 55.47627903 -44 50 C-47.40691354 43.05936473 -47.52616979 36.30952713 -47.50097656 28.70117188 C-47.50000484 26.63529601 -47.54170125 24.57315365 -47.5859375 22.5078125 C-47.65986714 14.419569 -46.93149983 7.65686812 -42 1 C-30.13841049 -10.2168916 -12.42044203 -11.21065871 0 0 Z M-29 9 C-31.86000512 12.64000652 -31 14.91464124 -31 20 C-24.07 20 -17.14 20 -10 20 C-10.25437013 11.79147727 -10.25437013 11.79147727 -12.5625 8.5 C-18.31771765 4.9583276 -23.53105457 5.22382339 -29 9 Z " fill="#FEFEFE" transform="translate(129,130)"/>
<path d="M0 0 C4.04542353 3.74690627 6.7224236 8.02768542 7.24050903 13.57539368 C7.2338472 14.94440071 7.2338472 14.94440071 7.22705078 16.34106445 C7.22689972 17.3817659 7.22674866 18.42246735 7.22659302 19.4947052 C7.21627045 20.6063353 7.20594788 21.71796539 7.1953125 22.86328125 C7.1924826 24.01040085 7.18965271 25.15752045 7.18673706 26.33940125 C7.17555697 29.99720768 7.15045595 33.65476778 7.125 37.3125 C7.11496741 39.79491833 7.10584205 42.27734051 7.09765625 44.75976562 C7.07562467 50.83993842 7.04110935 56.91992747 7 63 C1.72 63 -3.56 63 -9 63 C-9.01458252 61.60241455 -9.02916504 60.2048291 -9.04418945 58.76489258 C-9.10220831 53.57436678 -9.17944163 48.38427315 -9.26245117 43.1940918 C-9.29568351 40.9487205 -9.32372069 38.703266 -9.34643555 36.45776367 C-9.38001202 33.22799257 -9.43233073 29.99898273 -9.48828125 26.76953125 C-9.49467117 25.76727005 -9.5010611 24.76500885 -9.50764465 23.7323761 C-9.62301659 16.86637311 -9.62301659 16.86637311 -13 11 C-15.6264375 9.85711506 -18.15715674 9.80566501 -21 10 C-23.94700848 11.21724263 -25.44993546 12.09994375 -27.11288452 14.82098389 C-28.10422162 17.2559989 -28.27561335 19.05387651 -28.31884766 21.67675781 C-28.33871735 22.59741028 -28.35858704 23.51806274 -28.37905884 24.46661377 C-28.39638565 25.94493683 -28.39638565 25.94493683 -28.4140625 27.453125 C-28.43342865 28.46848328 -28.4527948 29.48384155 -28.4727478 30.52996826 C-28.53248099 33.76989365 -28.57890428 37.00985468 -28.625 40.25 C-28.66318551 42.44793208 -28.70223758 44.64584928 -28.7421875 46.84375 C-28.83817755 52.22904574 -28.92223205 57.61441154 -29 63 C-34.28 63 -39.56 63 -45 63 C-45 41.55 -45 20.1 -45 -2 C-40.71 -2 -36.42 -2 -32 -2 C-31.34 -1.34 -30.68 -0.68 -30 0 C-29.505 -0.45375 -29.01 -0.9075 -28.5 -1.375 C-19.78630289 -7.03890312 -8.31723915 -5.85355807 0 0 Z " fill="#FFFFFF" transform="translate(429,127)"/>
<path d="M0 0 C0.639375 0.5775 1.27875 1.155 1.9375 1.75 C0.57379701 4.74220268 -1.01158083 7.04026529 -3.1875 9.5 C-3.72632813 10.11359375 -4.26515625 10.7271875 -4.8203125 11.359375 C-5.23023438 11.81828125 -5.64015625 12.2771875 -6.0625 12.75 C-8.3552965 11.6279932 -10.5127868 10.47125103 -12.6875 9.125 C-17.07467432 7.33763269 -21.37367414 6.88981972 -26.0625 7.75 C-28.30258697 10.43802192 -28.30258697 10.43802192 -27.89453125 12.8125 C-26.64648717 15.7187435 -24.34380662 16.47610001 -21.58203125 17.75 C-18.73472829 18.88009234 -15.85596552 19.81958011 -12.9375 20.75 C-5.87373479 23.03638244 -1.46487253 25.55406829 2.9375 31.75 C4.45328428 34.78156857 4.18721927 37.62966614 4.25 41 C4.30607422 42.95679688 4.30607422 42.95679688 4.36328125 44.953125 C3.72216534 50.670232 1.1299548 53.60939106 -2.9375 57.5 C-10.84889505 63.19620444 -20.90057878 63.40876215 -30.3125 62.0625 C-36.41261859 60.87925288 -43.15422666 58.93189597 -47.0625 53.75 C-46.84617351 50.31668933 -45.0732092 48.14665005 -43 45.5 C-42.45214844 44.79359375 -41.90429688 44.0871875 -41.33984375 43.359375 C-40.91832031 42.82828125 -40.49679687 42.2971875 -40.0625 41.75 C-38.10156426 42.70466609 -36.1961033 43.66680158 -34.34375 44.8203125 C-28.51110124 48.27385453 -22.73247342 48.59980402 -16.0625 47.75 C-12.88556399 46.08857863 -12.88556399 46.08857863 -12.3125 43.3125 C-11.875627 40.63253469 -11.875627 40.63253469 -13.0625 37.75 C-14.94251708 36.67160191 -14.94251708 36.67160191 -17.3125 35.875 C-18.20839844 35.53726563 -19.10429687 35.19953125 -20.02734375 34.8515625 C-21.02894531 34.48804688 -22.03054688 34.12453125 -23.0625 33.75 C-25.3362364 32.92462054 -27.60704329 32.0911307 -29.875 31.25 C-31.46248047 30.67765625 -31.46248047 30.67765625 -33.08203125 30.09375 C-38.1535828 27.80723134 -41.78810931 24.86737904 -44.0625 19.75 C-45.69295241 13.31598394 -45.23746495 7.62423828 -42.0625 1.75 C-38.01208624 -3.67023299 -32.63932902 -5.48973811 -26.18359375 -6.84375 C-16.32802865 -8.126577 -7.97160619 -5.85669026 0 0 Z " fill="#FEFEFE" transform="translate(492.0625,129.25)"/>
<path d="M0 0 C5.61 0 11.22 0 17 0 C17.06791616 9.64061146 17.12289689 19.28106268 17.15543652 28.92185974 C17.17105796 33.39900641 17.19223151 37.87598017 17.22631836 42.35302734 C17.25903794 46.67781258 17.27687948 51.00243203 17.28463173 55.32733154 C17.2901527 56.97306933 17.30093367 58.61879858 17.31719017 60.26446533 C17.33913256 62.57884971 17.34196002 64.89255873 17.34057617 67.20703125 C17.34723801 68.5216333 17.35389984 69.83623535 17.36076355 71.19067383 C16.68001966 78.37869356 14.20777011 83.90795811 9 89 C2.69718156 93.71978497 -3.3467151 93.34787659 -11 93 C-11 88.38 -11 83.76 -11 79 C-9.535625 78.54625 -8.07125 78.0925 -6.5625 77.625 C-4.11327425 76.90725434 -4.11327425 76.90725434 -2 76 C-0.51155121 73.02310242 -0.83408395 70.3013618 -0.79467773 66.97998047 C-0.78477814 66.25792419 -0.77487854 65.53586792 -0.76467896 64.79193115 C-0.73303969 62.40038352 -0.70829701 60.00881601 -0.68359375 57.6171875 C-0.66302631 55.96094236 -0.6420299 54.30470249 -0.62062073 52.64846802 C-0.56537833 48.28538276 -0.51597863 43.92224996 -0.46777344 39.55908203 C-0.41757423 35.10835531 -0.36187993 30.65769777 -0.30664062 26.20703125 C-0.19903251 17.47141103 -0.09810113 8.73573216 0 0 Z " fill="#FEFEFE" transform="translate(184,125)"/>
<path d="M0 0 C0 4.62 0 9.24 0 14 C-1.6396875 14.37125 -1.6396875 14.37125 -3.3125 14.75 C-7.26885319 16.09113667 -8.06731439 16.46002216 -10 20 C-10.47336616 23.39265036 -10.47336616 23.39265036 -10.43237305 27.24707031 C-10.4425647 27.96941864 -10.45275635 28.69176697 -10.46325684 29.43600464 C-10.49338197 31.81679037 -10.50265173 34.19717373 -10.51171875 36.578125 C-10.52856585 38.23151995 -10.54671614 39.88490208 -10.56611633 41.53826904 C-10.61361932 45.88488768 -10.64342664 50.2314544 -10.66955566 54.57824707 C-10.69935974 59.01581069 -10.74589058 63.45319541 -10.79101562 67.890625 C-10.87705227 76.59367701 -10.94284953 85.29671031 -11 94 C-16.28 94 -21.56 94 -27 94 C-27.09053932 83.96824314 -27.16385312 73.93675974 -27.20724869 63.90468597 C-27.22808137 59.24587262 -27.25631961 54.58735444 -27.30175781 49.92871094 C-27.3453703 45.42884946 -27.36916957 40.92927107 -27.37950897 36.42921448 C-27.38687279 34.71647183 -27.40125255 33.00374385 -27.42292023 31.29112244 C-27.64044793 13.37752132 -27.64044793 13.37752132 -21.25390625 5.9765625 C-20.69574219 5.53054687 -20.13757813 5.08453125 -19.5625 4.625 C-19.00691406 4.16351563 -18.45132812 3.70203125 -17.87890625 3.2265625 C-11.99951272 -0.61154471 -6.8286396 -0.16454553 0 0 Z " fill="#FFFFFF" transform="translate(43,96)"/>
<path d="M0 0 C5.61 0 11.22 0 17 0 C17.0093457 1.40282227 17.01869141 2.80564453 17.02832031 4.25097656 C17.06818564 9.45458762 17.13393537 14.65760531 17.20751953 19.86083984 C17.23574911 22.11304096 17.2569537 24.36534152 17.27099609 26.61767578 C17.2923976 29.85501083 17.33903495 33.09114774 17.390625 36.328125 C17.39185364 37.33554749 17.39308228 38.34296997 17.39434814 39.38092041 C17.46582213 44.78864168 17.46582213 44.78864168 19.66308594 49.60449219 C22.4229366 51.44519384 22.4229366 51.44519384 28 52 C28 56.95 28 61.9 28 67 C18.60343222 66.57288328 12.10512926 65.92267908 5.1875 59.3125 C0.25778157 51.8474978 -0.43146152 44.61974509 -0.29296875 35.83984375 C-0.28872391 34.80936417 -0.28447906 33.77888458 -0.28010559 32.71717834 C-0.26344216 29.45700885 -0.22581301 26.19747961 -0.1875 22.9375 C-0.17243722 20.7142017 -0.15875162 18.49089361 -0.14648438 16.26757812 C-0.11357907 10.84480902 -0.06188272 5.4225127 0 0 Z " fill="#FEFEFE" transform="translate(146,125)"/>
<path d="M0 0 C15.09534891 0.69403903 15.09534891 0.69403903 21 5 C25.48281483 10.22995063 28.13068224 15.07369238 28.11352539 22.0222168 C28.11344986 23.04304855 28.11337433 24.06388031 28.11329651 25.11564636 C28.10813522 26.21572525 28.10297394 27.31580414 28.09765625 28.44921875 C28.0962413 29.5769722 28.09482635 30.70472565 28.09336853 31.86665344 C28.0877647 35.47362912 28.07521153 39.08054304 28.0625 42.6875 C28.05748549 45.13085848 28.0529225 47.57421793 28.04882812 50.01757812 C28.03779403 56.01174259 28.02052679 62.00586082 28 68 C22.72 68 17.44 68 12 68 C11.98541748 66.63270752 11.97083496 65.26541504 11.95581055 63.85668945 C11.89778537 58.77797452 11.82055215 53.69970097 11.73754883 48.62133789 C11.70431945 46.42447073 11.67628134 44.2275186 11.65356445 42.03051758 C11.61998246 38.87023757 11.56766366 35.71073479 11.51171875 32.55078125 C11.50532883 31.57039383 11.4989389 30.59000641 11.49235535 29.57991028 C11.35636989 22.79611206 11.35636989 22.79611206 8 17 C5.99411525 15.99065319 5.99411525 15.99065319 3.8125 15.6875 C2.554375 15.460625 1.29625 15.23375 0 15 C0 10.05 0 5.1 0 0 Z " fill="#FFFFFF" transform="translate(42,122)"/>
<path d="M0 0 C18.15 0 36.3 0 55 0 C55 4.62 55 9.24 55 14 C36.85 14 18.7 14 0 14 C0 9.38 0 4.76 0 0 Z " fill="#FFFFFF" transform="translate(146,96)"/>
</svg>
