<?xml version="1.0" encoding="UTF-8"?>
<svg xmlns="http://www.w3.org/2000/svg" id="Laag_1" data-name="Laag 1" viewBox="0 0 44 44">
  <defs>
    <style>
      .cls-1 {
        fill: none;
        stroke: #fff;
      }

      .cls-2 {
        fill: #fff;
        stroke-width: 0px;
      }
    </style>
  </defs>
  <circle class="cls-1" cx="22" cy="22" r="21.5"></circle>
  <path class="cls-2" d="m27,15.5c0-.3.09-.59.25-.83.16-.25.4-.44.67-.55.27-.11.58-.14.87-.09.29.06.56.2.77.41.21.21.35.48.41.77.06.29.03.59-.09.87-.11.27-.31.51-.55.67-.25.16-.54.25-.83.25-.4,0-.77-.17-1.05-.45-.28-.28-.44-.66-.45-1.05Zm-9,6.5c0,2.19,1.81,4,4,4s4-1.81,4-4-1.81-4-4-4-4,1.81-4,4Zm-2.25,0c0-3.44,2.81-6.25,6.25-6.25s6.25,2.81,6.25,6.25-2.81,6.25-6.25,6.25-6.25-2.81-6.25-6.25Zm-6,0c0,6,0,8.12,2.06,10.19s4.19,2.06,10.19,2.06,8.12,0,10.19-2.06,2.06-4.19,2.06-10.19,0-8.12-2.06-10.19-4.19-2.06-10.19-2.06-8.12,0-10.19,2.06-2.06,4.19-2.06,10.19Z"></path>
</svg>
