<?xml version="1.0" encoding="UTF-8"?>
<svg xmlns="http://www.w3.org/2000/svg" id="Laag_1" data-name="Laag 1" viewBox="0 0 44 44">
  <defs>
    <style>
      .cls-1 {
        fill: none;
        stroke: #fff;
      }

      .cls-2 {
        fill: #fff;
        stroke-width: 0px;
      }
    </style>
  </defs>
  <circle class="cls-1" cx="22" cy="22" r="21.5"></circle>
  <path class="cls-2" d="m18.5,32h5v-7.88c0-2.12.38-4.12,2.94-4.12s2.56,2.38,2.56,4.25v7.75h5v-8.75c0-4.38-.88-7.62-6-7.62-2.5,0-3.94,1.31-4.69,2.56h-.06v-2.19h-4.75v16ZM10,10.88c0,1.56,1.31,2.88,2.88,2.88s2.88-1.31,2.88-2.88-1.31-2.88-2.88-2.88-2.88,1.31-2.88,2.88Zm.38,21.12h5v-16h-5v16Z"></path>
</svg>
