<?xml version="1.0" encoding="UTF-8"?>
<svg xmlns="http://www.w3.org/2000/svg" id="Laag_1" data-name="Laag 1" viewBox="0 0 355 92">
  <defs>
    <style>
      .cls-1 {
        fill: #fff;
        stroke-width: 0px;
      }
    </style>
  </defs>
  <path class="cls-1" d="m0,52.8v-26.23h9.28c5.85,0,8.96,2.52,8.96,7.12v.5c0,2.45-.96,4.11-2.59,5.11,2.27.96,3.65,2.76,3.65,5.74v.5c0,4.61-3.08,7.27-8.96,7.27H0Zm4.92-22.19v7.02h4.82c2.41,0,3.51-1.38,3.51-3.51s-1.1-3.51-3.51-3.51h-4.82Zm0,10.92v7.23h5.78c2.37,0,3.61-1.35,3.61-3.65s-1.24-3.58-3.61-3.58h-5.78Z"></path>
  <path class="cls-1" d="m35.01,52.62v-25.88h5.03v21.45h10.45v4.43h-15.49Z"></path>
  <path class="cls-1" d="m63.92,42.17v-15.42h5.03v15.7c0,3.72,2.2,6.17,6.13,6.17s6.06-2.41,6.06-6.17v-15.7h5.03v15.42c0,6.73-3.86,11.13-11.09,11.13s-11.16-4.4-11.16-11.13Z"></path>
  <path class="cls-1" d="m102.69,52.62v-25.88h15.66v4.25h-10.74v6.34h10.1v4.25h-10.1v6.77h11.02v4.25h-15.95Z"></path>
  <path class="cls-1" d="m139.54,52.62v-21.45h-7.48v-4.43h19.98v4.43h-7.48v21.45h-5.03Z"></path>
  <path class="cls-1" d="m166.68,52.62v-25.88h15.66v4.25h-10.74v6.34h10.1v4.25h-10.1v6.77h11.02v4.25h-15.95,0Z"></path>
  <path class="cls-1" d="m196.66,40.01v-.78c0-6.38,3.97-13.22,13.01-13.22,6.98,0,11.52,4.04,12.15,10.14h-5.07c-.57-3.54-3.37-5.46-7.09-5.46-5.14,0-7.9,3.76-7.9,8.97s2.83,8.97,8.08,8.97c3.86,0,6.77-2.02,7.34-5.46h5.07c-.68,5.57-5.03,10.14-12.4,10.14-9.39,0-13.18-7.48-13.18-13.29h0Z"></path>
  <path class="cls-1" d="m237.12,52.62v-25.88h5.03v10.71h11.94v-10.71h5.03v25.88h-5.03v-10.74h-11.94v10.74h-5.03Z"></path>
  <path class="cls-1" d="m79.6,78.32v-12.94h7.3v1.22h-5.95v4.54h5.55v1.21h-5.55v4.75h6.15v1.22h-7.49Z"></path>
  <path class="cls-1" d="m95.6,78.32v-12.94h2.25l7.09,11.71h.21v-11.71h1.29v12.94h-2.27l-7.09-11.72h-.21v11.72h-1.27Z"></path>
  <path class="cls-1" d="m114.86,71.92v-.32c0-3.31,2.25-6.56,6.31-6.56,3.15,0,5.37,1.92,5.65,4.71h-1.37c-.27-2.29-2.13-3.47-4.29-3.47-3.03,0-4.94,2.32-4.94,5.49,0,3.39,1.93,5.64,5.22,5.64,1.65,0,3.05-.57,3.95-1.49v-2.55h-4.43v-1.14h6.86v1.14h-1.15v2.94c-1.1,1.44-2.91,2.3-5.22,2.3-4.25,0-6.59-3.08-6.59-6.7h0Z"></path>
  <path class="cls-1" d="m135.87,78.32v-12.94h1.35v12.94h-1.35Z"></path>
  <path class="cls-1" d="m146.61,78.32v-12.94h2.25l7.09,11.71h.21v-11.71h1.29v12.94h-2.27l-7.09-11.72h-.21v11.72h-1.27Z"></path>
  <path class="cls-1" d="m166.8,78.32v-12.94h7.3v1.22h-5.95v4.54h5.55v1.21h-5.55v4.75h6.15v1.22h-7.49Z"></path>
  <path class="cls-1" d="m182.8,78.32v-12.94h7.3v1.22h-5.95v4.54h5.54v1.21h-5.54v4.75h6.15v1.22h-7.49Z"></path>
  <path class="cls-1" d="m198.8,78.32v-12.99h4.04c2.85,0,4.48,1.38,4.48,3.92v.25c0,2-1.03,3.28-2.83,3.74l3.98,5.09h-1.65l-3.79-4.91h-2.89v4.91h-1.35Zm1.35-11.8v5.69h2.92c1.91,0,2.87-1.22,2.87-2.84s-.96-2.85-2.87-2.85h-2.92Z"></path>
  <path class="cls-1" d="m216.32,78.32v-12.94h1.35v12.94h-1.35Z"></path>
  <path class="cls-1" d="m227.06,78.32v-12.94h2.25l7.09,11.71h.21v-11.71h1.29v12.94h-2.27l-7.09-11.72h-.21v11.72h-1.27Z"></path>
  <path class="cls-1" d="m246.32,71.92v-.32c0-3.31,2.25-6.56,6.31-6.56,3.16,0,5.37,1.92,5.65,4.71h-1.37c-.27-2.29-2.13-3.47-4.29-3.47-3.03,0-4.94,2.32-4.94,5.49,0,3.39,1.93,5.64,5.22,5.64,1.65,0,3.05-.57,3.95-1.49v-2.55h-4.43v-1.14h6.86v1.14h-1.15v2.94c-1.1,1.44-2.91,2.3-5.23,2.3-4.25,0-6.59-3.08-6.59-6.7h0Z"></path>
  <path class="cls-1" d="m351,79.73c4.37-2.44,3.99-11.5,3.99-11.5.02-7.39-2.91-13.52-7.56-18.52,0,0,5.42-2.2,5.42-11.32,0-18.88-6.08-21.04-18.11-27.89l-18.45-10.5-19.53,11.08v65.18l26.26,14.4c3.89,1.82,5.77,1.78,8.95-.05-.11.06,19.02-10.88,19.02-10.88Z"></path>
</svg>
