<?xml version="1.0" encoding="UTF-8"?>
<svg version="1.1" xmlns="http://www.w3.org/2000/svg" width="1024" height="467">
<path d="M0 0 C2.31285437 1.95265574 4.38822008 3.98095208 6.4453125 6.19921875 C7.18201172 6.94751953 7.18201172 6.94751953 7.93359375 7.7109375 C17.96343586 19.54180389 18.33824038 39.79609053 17.20703125 54.2421875 C15.99316273 63.32780947 12.78890584 75.28522056 6.4453125 82.19921875 C5.7853125 82.19921875 5.1253125 82.19921875 4.4453125 82.19921875 C4.19136719 82.80636719 3.93742188 83.41351563 3.67578125 84.0390625 C0.59202303 89.45277138 -6.94112286 92.08089247 -12.5546875 94.19921875 C-22.96017324 96.7691401 -33.99058374 96.12119297 -43.5546875 91.19921875 C-44.89800425 90.21267027 -46.23284089 89.21435387 -47.5546875 88.19921875 C-47.5640332 89.26358154 -47.57337891 90.32794434 -47.58300781 91.42456055 C-47.62297407 95.38526786 -47.68875049 99.34520382 -47.76220703 103.30541992 C-47.79037836 105.01723295 -47.81161202 106.72917512 -47.82568359 108.44116211 C-47.84716715 110.90675794 -47.89384166 113.37080736 -47.9453125 115.8359375 C-47.94715546 116.97841194 -47.94715546 116.97841194 -47.94903564 118.14396667 C-48.08442846 123.09019549 -48.94598258 125.77455614 -52.5546875 129.19921875 C-60.78268847 131.94188574 -69.88161295 130.19921875 -78.5546875 130.19921875 C-78.5546875 85.64921875 -78.5546875 41.09921875 -78.5546875 -4.80078125 C-68.6546875 -4.80078125 -58.7546875 -4.80078125 -48.5546875 -4.80078125 C-48.2246875 -2.82078125 -47.8946875 -0.84078125 -47.5546875 1.19921875 C-46.6265625 0.30203125 -46.6265625 0.30203125 -45.6796875 -0.61328125 C-33.42754296 -9.18978243 -12.08137988 -8.5160797 0 0 Z M-43.5546875 26.19921875 C-48.46316024 35.71111789 -49.0490399 46.35628453 -46.3671875 56.63671875 C-44.65654154 61.59920585 -42.28815874 65.55800413 -37.66796875 68.33203125 C-33.99763764 69.83815603 -30.44712145 69.74659227 -26.5546875 69.19921875 C-20.27934275 66.06154638 -18.08007892 62.03976104 -15.8671875 55.63671875 C-12.97418477 45.23421957 -14.05736813 35.00791234 -18.5546875 25.19921875 C-21.08993706 21.49385401 -23.59078749 19.68618906 -27.94921875 18.60546875 C-34.98978615 17.99982854 -39.42583754 20.58626604 -43.5546875 26.19921875 Z " fill="#13124F" transform="translate(515.5546875,134.80078125)"/>
<path d="M0 0 C0.33 16.83 0.66 33.66 1 51 C4.465 49.02 4.465 49.02 8 47 C17.78533182 42.62921845 29.14925701 42.59411738 39.375 45.4375 C46.80887123 48.30899535 51.87621179 53.03253953 55.62890625 60.04296875 C58.74745913 67.19520541 60.09698936 73.67405792 60.20874023 81.47680664 C60.22803085 82.74154312 60.24732147 84.0062796 60.26719666 85.30934143 C60.2819984 86.67626921 60.29577267 88.04320845 60.30859375 89.41015625 C60.31516558 90.10449705 60.3217374 90.79883785 60.32850838 91.51421928 C60.36096176 95.18336834 60.38545694 98.85248987 60.4050293 102.52172852 C60.42289295 105.55112682 60.45781051 108.5796031 60.50756836 111.60864258 C60.56776835 115.27909018 60.59850079 118.94867878 60.60820198 122.61959648 C60.61674907 124.0139005 60.63554958 125.40818192 60.6649456 126.80220222 C60.90913921 139.03136059 60.90913921 139.03136059 57.76586914 142.37280273 C52.85924538 145.33883497 46.6294467 144.51441255 41.125 144.3125 C39.37703125 144.27866211 39.37703125 144.27866211 37.59375 144.24414062 C34.72784055 144.18541297 31.86459078 144.10332875 29 144 C28.99413376 143.27052155 28.98826752 142.54104309 28.98222351 141.78945923 C28.924041 134.87579042 28.85182046 127.96239128 28.76428509 121.04903603 C28.71977735 117.49576766 28.68047985 113.94260878 28.65356445 110.38916016 C28.62230043 106.2930094 28.56752129 102.19745305 28.51171875 98.1015625 C28.50532883 96.8407486 28.4989389 95.57993469 28.49235535 94.28091431 C28.43708391 82.56830983 28.43708391 82.56830983 23.54057312 72.25576782 C20.80371316 70.02487035 17.81378205 70.59700886 14.43359375 70.734375 C11.01491962 71.10752081 9.49993233 71.57149431 7 74 C2.88804597 80.747822 0.92181039 86.71606886 0.79467773 94.61645508 C0.77473251 95.71721878 0.75478729 96.81798248 0.73423767 97.95210266 C0.70916893 99.71797981 0.70916893 99.71797981 0.68359375 101.51953125 C0.66281265 102.73323898 0.64203156 103.94694672 0.62062073 105.19743347 C0.55531084 109.06906551 0.49632637 112.94076455 0.4375 116.8125 C0.39429715 119.43946002 0.35068229 122.06641329 0.30664062 124.69335938 C0.19887431 131.1288386 0.09966215 137.56436974 0 144 C-10.23 144 -20.46 144 -31 144 C-31.06770128 126.59764672 -31.12297257 109.19540568 -31.15543652 91.79295731 C-31.17091024 83.71283506 -31.19200935 75.6328004 -31.22631836 67.55273438 C-31.25620532 60.51074565 -31.27557133 53.46882035 -31.28226548 46.42676997 C-31.28617896 42.69749142 -31.29538648 38.96839433 -31.31719017 35.23917389 C-31.34132434 31.07766138 -31.34197045 26.91646505 -31.34057617 22.75488281 C-31.351362 21.51626495 -31.36214783 20.27764709 -31.3732605 19.00149536 C-31.36913651 17.86850006 -31.36501251 16.73550476 -31.36076355 15.56817627 C-31.36352893 14.58370136 -31.36629431 13.59922646 -31.36914349 12.58491898 C-30.93750583 9.56238599 -30.07213993 8.20824577 -28 6 C-25.99462891 5.1027832 -25.99462891 5.1027832 -23.7265625 4.55078125 C-22.9015625 4.34259766 -22.0765625 4.13441406 -21.2265625 3.91992188 C-20.36804688 3.71947266 -19.50953125 3.51902344 -18.625 3.3125 C-17.77421875 3.10044922 -16.9234375 2.88839844 -16.046875 2.66992188 C-5.23242804 0 -5.23242804 0 0 0 Z " fill="#13124F" transform="translate(311,84)"/>
<path d="M0 0 C0 17.16 0 34.32 0 52 C2.97 50.35 5.94 48.7 9 47 C18.5822383 42.72484753 29.98622446 42.32685108 40 45.5625 C47.3680006 48.68058459 54.02864362 54.24155356 57.1328125 61.734375 C57.62394531 63.22710937 57.62394531 63.22710937 58.125 64.75 C58.62386719 66.22726563 58.62386719 66.22726563 59.1328125 67.734375 C61.28266329 75.83020951 61.17393405 83.97019334 61.203125 92.29296875 C61.20882507 93.55716141 61.21452515 94.82135406 61.22039795 96.12385559 C61.22981117 98.78565056 61.23672827 101.44733376 61.24023438 104.10913086 C61.24574468 107.51194623 61.26985497 110.91436667 61.29820633 114.31705761 C61.32132914 117.57983112 61.3232794 120.84262478 61.328125 124.10546875 C61.3404718 125.32324509 61.3528186 126.54102142 61.36553955 127.79570007 C61.36253845 128.9307045 61.35953735 130.06570892 61.35644531 131.23510742 C61.36191376 132.72780403 61.36191376 132.72780403 61.36749268 134.25065613 C60.93115759 137.51503466 59.94232605 139.35844583 58 142 C54.50663182 144.32891212 53.13992135 144.23551143 49.01953125 144.1953125 C47.27446289 144.18564453 47.27446289 144.18564453 45.49414062 144.17578125 C44.27919922 144.15902344 43.06425781 144.14226562 41.8125 144.125 C40.58595703 144.11597656 39.35941406 144.10695312 38.09570312 144.09765625 C35.06360705 144.07406017 32.03190062 144.04113841 29 144 C28.99413376 143.22849609 28.98826752 142.45699219 28.98222351 141.66210938 C28.92414254 134.36518002 28.85197882 127.06858614 28.76428509 119.7719574 C28.71969759 116.02133361 28.68041661 112.27081554 28.65356445 108.52001953 C28.62741449 104.89528636 28.58693152 101.27096256 28.53681374 97.64648438 C28.52022353 96.26876954 28.50866064 94.89098403 28.50238609 93.51318359 C28.73892421 81.29595586 28.73892421 81.29595586 23 71 C18.63258827 70.40479522 14.39555012 70.56582885 10.1875 71.875 C2.21297196 79.62168438 0.82656638 91.23584599 0.62094116 101.79542542 C0.60361435 103.39909218 0.60361435 103.39909218 0.5859375 105.03515625 C0.56657135 106.15442001 0.5472052 107.27368378 0.5272522 108.42686462 C0.46787777 111.97200095 0.42124029 115.5171705 0.375 119.0625 C0.33678143 121.47852912 0.29772748 123.89454518 0.2578125 126.31054688 C0.16065224 132.20696002 0.08074831 138.10324832 0 144 C-9.9 144 -19.8 144 -30 144 C-30.06768024 126.44999227 -30.12296028 108.90009563 -30.15543652 91.34999371 C-30.17091555 83.201462 -30.19202478 75.05301705 -30.22631836 66.90454102 C-30.25618909 59.80359824 -30.27556746 52.70271828 -30.28226548 45.60171443 C-30.28618172 41.84061046 -30.29540669 38.07968621 -30.31719017 34.31863976 C-30.34129211 30.1233963 -30.3419715 25.92846671 -30.34057617 21.7331543 C-30.351362 20.48159042 -30.36214783 19.23002655 -30.3732605 17.9405365 C-30.36913651 16.80050171 -30.36501251 15.66046692 -30.36076355 14.48588562 C-30.36352893 13.49311458 -30.36629431 12.50034353 -30.36914349 11.47748852 C-29.93904239 8.59088594 -29.30144964 7.73079123 -27 6 C-24.97875977 5.21630859 -24.97875977 5.21630859 -22.69140625 4.6484375 C-21.44713867 4.33132812 -21.44713867 4.33132812 -20.17773438 4.0078125 C-19.31470703 3.79898438 -18.45167969 3.59015625 -17.5625 3.375 C-16.70333984 3.1584375 -15.84417969 2.941875 -14.95898438 2.71875 C-12.64155116 2.13624545 -10.32136789 1.56657293 -8 1 C-7.330896 0.81260254 -6.66179199 0.62520508 -5.97241211 0.43212891 C-4 0 -4 0 0 0 Z " fill="#13124F" transform="translate(576,84)"/>
<path d="M0 0 C1 1 1 1 1.03759766 3.0378418 C0.99683105 3.91609619 0.95606445 4.79435059 0.9140625 5.69921875 C0.87023437 6.66150391 0.82640625 7.62378906 0.78125 8.61523438 C0.70390625 10.13600586 0.70390625 10.13600586 0.625 11.6875 C0.58117187 12.68201172 0.53734375 13.67652344 0.4921875 14.70117188 C0.26052658 19.53709358 -0.04337706 24.2412062 -1 29 C-5.50434673 28.3466978 -9.70455965 27.23789076 -14.0625 25.9375 C-22.89065111 23.46307532 -33.47355611 21.83151632 -42 26 C-44.23074449 30.1705223 -44.67748357 34.34230043 -44 39 C-39.01645824 44.22045037 -32.94023442 46.30147294 -26.3125 48.875 C-13.69861333 53.97736293 -3.73464796 58.30963208 4 70 C4.61875 70.886875 5.2375 71.77375 5.875 72.6875 C9.82986585 80.81694648 9.24964879 95.23087625 6.875 103.85546875 C2.8352914 113.75636169 -3.43176981 120.83814336 -13.04296875 125.46484375 C-33.9704266 134.09085684 -55.86130377 131.56510169 -77 125 C-77.17387838 117.99415041 -76.5176452 111.36390495 -75.5 104.4375 C-75.35691406 103.42880859 -75.21382813 102.42011719 -75.06640625 101.38085938 C-74.7164815 98.91972198 -74.36091674 96.4595452 -74 94 C-70.43832863 95.14136536 -67.05510594 96.3764461 -63.6875 98 C-54.01421896 102.3207322 -43.25935368 103.76639634 -32.9375 100.8125 C-30.12990936 99.71697915 -28.99449015 98.99416604 -26.875 96.75 C-25.52698174 92.51337118 -25.99056454 88.9874488 -28.00390625 85.0234375 C-31.07180157 81.91351622 -34.78660856 80.75168485 -38.8125 79.1875 C-40.53646099 78.48627208 -42.25911082 77.78181252 -43.98046875 77.07421875 C-44.8317334 76.72536621 -45.68299805 76.37651367 -46.56005859 76.01708984 C-59.04729597 70.81178357 -70.98016666 64.77317578 -77 52 C-80.76254391 41.78738081 -80.53053345 28.93298088 -76 19 C-70.6830223 8.97890495 -62.6232858 1.97596662 -52 -2 C-36.46533867 -6.36060669 -15.01201581 -5.79079855 0 0 Z " fill="#13124F" transform="translate(176,100)"/>
<path d="M0 0 C11.24475389 8.43011611 16.85930103 19.30095129 20 32.8125 C20.38841131 36.32624453 20.42195607 39.78036011 20.375 43.3125 C20.38660156 44.18519531 20.39820313 45.05789062 20.41015625 45.95703125 C20.38175625 52.34703216 19.13218426 57.80810292 17 63.8125 C16.720354 64.60495117 16.44070801 65.39740234 16.15258789 66.21386719 C12.39871411 76.34520127 3.83887161 84.49020726 -5.75 89.1484375 C-20.33787457 95.58645357 -36.08060073 97.28049038 -51.26171875 91.58984375 C-63.499949 86.25960409 -72.7771392 79.37490515 -78.28515625 66.90234375 C-83.81616135 52.17282122 -84.3952538 34.82302021 -78.609375 20.08203125 C-72.96124924 8.60756217 -64.03064465 -0.82490629 -51.86328125 -5.35546875 C-34.49049943 -10.34369323 -15.47220226 -10.48557143 0 0 Z M-42 20.8125 C-42 21.4725 -42 22.1325 -42 22.8125 C-42.61875 23.080625 -43.2375 23.34875 -43.875 23.625 C-46.54876505 25.11916282 -47.67213517 26.82283395 -48.6328125 29.72265625 C-50.72958152 38.89186044 -51.06125308 48.8032859 -48 57.8125 C-45.50225548 61.77155381 -42.61115367 64.76742735 -38.6875 67.3125 C-33.16846221 68.33929773 -28.03523864 68.50371312 -22.6875 66.6875 C-15.7451286 61.84398507 -14.12180449 57.21423351 -12.50390625 49.05078125 C-11.25594673 41.03094835 -11.55431038 33.31393577 -15 25.8125 C-18.37695959 21.88997843 -22.31173951 18.01898382 -27.64453125 17.609375 C-29.21267578 17.58617187 -29.21267578 17.58617187 -30.8125 17.5625 C-31.85019531 17.53671875 -32.88789062 17.5109375 -33.95703125 17.484375 C-37.39114233 17.85467709 -39.26629035 18.73063609 -42 20.8125 Z " fill="#13124F" transform="translate(729,136.1875)"/>
<path d="M0 0 C1.35883301 0.00978882 1.35883301 0.00978882 2.74511719 0.01977539 C21.77076977 0.39576977 21.77076977 0.39576977 25.75 4.375 C25.71094107 6.87176675 25.60554046 9.32359362 25.4375 11.8125 C25.39117432 12.53373047 25.34484863 13.25496094 25.29711914 13.99804688 C24.89843908 19.56588442 24.09310585 24.95041716 22.75 30.375 C20.00042002 29.88978 17.50588678 29.28644262 14.875 28.33203125 C11.36788202 27.25797637 8.41296821 27.07454924 4.75 27.0625 C3.574375 27.04574219 2.39875 27.02898437 1.1875 27.01171875 C-3.65701646 27.52369606 -6.92628866 28.81818227 -10.11328125 32.56640625 C-10.59152344 33.34886719 -11.06976563 34.13132813 -11.5625 34.9375 C-12.29919922 36.11505859 -12.29919922 36.11505859 -13.05078125 37.31640625 C-15.65963454 41.79479609 -15.50454989 45.38493663 -15.5625 50.5 C-15.59150391 51.33015625 -15.62050781 52.1603125 -15.65039062 53.015625 C-15.72684225 60.51964625 -13.66118446 65.60213787 -8.75 71.25 C-3.58560953 75.6397319 0.4792867 75.78629201 7.140625 75.7109375 C12.08406752 75.25083354 16.49501177 73.87734173 21.16796875 72.25 C23.75 71.375 23.75 71.375 25.75 71.375 C26.36326035 80.7162692 26.9320896 90.00750185 26.75 99.375 C7.99201686 105.6015539 -10.35223675 104.87439442 -28.25 96.375 C-29.735 95.385 -29.735 95.385 -31.25 94.375 C-31.25 93.715 -31.25 93.055 -31.25 92.375 C-31.8275 92.13523437 -32.405 91.89546875 -33 91.6484375 C-40.23726279 87.5523478 -44.28508645 79.33848882 -46.50390625 71.63671875 C-50.45749644 54.35269882 -50.67321452 36.36811678 -41.6875 20.625 C-36.34634276 12.43653468 -29.58440383 6.54202987 -20.25 3.375 C-19.53424805 3.12451904 -18.81849609 2.87403809 -18.08105469 2.6159668 C-11.93516638 0.59619422 -6.45078967 -0.1018863 0 0 Z " fill="#13124F" transform="translate(241.25,127.625)"/>
<path d="M0 0 C0.11679583 18.16731408 0.20496967 36.33453074 0.25906086 54.50213909 C0.28484381 62.93767026 0.31999585 71.37296816 0.37719727 79.80834961 C0.42702972 87.16054925 0.45929036 94.51257997 0.47044247 101.8649438 C0.47696161 105.75814875 0.4922845 109.65087044 0.52865028 113.54392052 C0.56260781 117.20888004 0.57305381 120.87315761 0.56553841 124.53825951 C0.56756822 126.52336705 0.59446481 128.50840044 0.62210083 130.49331665 C0.59379235 135.37326232 0.54243947 138.94305521 -1.70344543 143.31916809 C-7.06753394 146.05418459 -12.395974 145.51937154 -18.3125 145.3125 C-20.1387793 145.27866211 -20.1387793 145.27866211 -22.00195312 145.24414062 C-25.00255482 145.1853053 -28.00064797 145.1031414 -31 145 C-31.09341015 127.46730671 -31.16396282 109.934691 -31.20724869 92.40180588 C-31.22788061 84.26111283 -31.2560131 76.12057433 -31.30175781 67.97998047 C-31.34160647 60.88525358 -31.36742823 53.79063861 -31.37635398 46.69580293 C-31.38157214 42.93851765 -31.3938493 39.18155255 -31.42292023 35.42436981 C-31.45509835 31.23166149 -31.45596069 27.03951104 -31.45410156 22.84667969 C-31.47567322 20.97472679 -31.47567322 20.97472679 -31.49768066 19.06495667 C-31.49218201 17.92354721 -31.48668335 16.78213776 -31.48101807 15.60614014 C-31.48470524 14.61429089 -31.48839241 13.62244164 -31.49219131 12.60053635 C-30.86256122 9.27383002 -29.59001395 8.10707975 -27 6 C-24.97290039 5.1027832 -24.97290039 5.1027832 -22.84765625 4.55078125 C-22.07099609 4.34259766 -21.29433594 4.13441406 -20.49414062 3.91992188 C-19.69169922 3.71947266 -18.88925781 3.51902344 -18.0625 3.3125 C-17.26392578 3.10044922 -16.46535156 2.88839844 -15.64257812 2.66992188 C-10.38727515 1.28969731 -5.46233098 0 0 0 Z " fill="#13124F" transform="translate(791,83)"/>
<path d="M0 0 C10.23 0 20.46 0 31 0 C31.11294574 12.03932127 31.20468463 24.07829087 31.25906086 36.11802197 C31.28515829 41.70852015 31.32055972 47.2986372 31.37719727 52.88891602 C31.43151076 58.28354451 31.46141943 63.67780634 31.47438622 69.07268715 C31.48362721 71.13122646 31.50167281 73.18974562 31.52865028 75.24812889 C31.56493144 78.1309488 31.56994569 81.01225232 31.56762695 83.89526367 C31.58560333 84.74690598 31.60357971 85.59854828 31.62210083 86.47599792 C31.61522751 87.26538757 31.60835419 88.05477722 31.60127258 88.86808777 C31.60588155 89.54929278 31.61049051 90.2304978 31.61523914 90.93234539 C31 93 31 93 26 98 C17.42 98 8.84 98 0 98 C0 65.66 0 33.32 0 0 Z " fill="#13124E" transform="translate(388,130)"/>
<path d="M0 0 C1.375 2 1.375 2 1.375 4 C3.85974503 2.93510927 5.35291557 2.02436903 7.1875 0 C10.59017082 -3.11101332 14.08779297 -4.03477173 18.6875 -3.96484375 C23.98519238 -3.48561171 27.7399318 -2.73124868 31.5 1.25 C35.38435956 6.94706069 35.65618929 12.24101743 35.5703125 18.8984375 C35.5674826 19.73339752 35.56465271 20.56835754 35.56173706 21.42861938 C35.55060301 24.07756291 35.52551127 26.72615984 35.5 29.375 C35.48996143 31.17838051 35.48083712 32.98176636 35.47265625 34.78515625 C35.4506859 39.19023633 35.41620321 43.59505953 35.375 48 C32.075 48 28.775 48 25.375 48 C25.36098145 46.41131104 25.36098145 46.41131104 25.34667969 44.79052734 C25.30666151 40.84284149 25.2408709 36.89592529 25.16748047 32.94873047 C25.13933913 31.24375329 25.11809065 29.53864731 25.10400391 27.83349609 C25.08247863 25.37530911 25.035783 22.91865952 24.984375 20.4609375 C24.98314636 19.70444916 24.98191772 18.94796082 24.98065186 18.16854858 C24.84113158 13.07206801 23.82627189 9.98622678 20.375 6 C16.91821553 5.0831978 16.91821553 5.0831978 13.375 6 C9.18111488 9.1687132 7.72624618 12.01426518 6.375 17 C6.15354101 19.44961454 6.0219007 21.90833838 5.9609375 24.3671875 C5.94157135 25.04677521 5.9222052 25.72636292 5.9022522 26.42654419 C5.84294901 28.57590579 5.79627109 30.72532241 5.75 32.875 C5.71177468 34.3411679 5.67272036 35.80731443 5.6328125 37.2734375 C5.53728956 40.84876164 5.45307874 44.42424748 5.375 48 C2.075 48 -1.225 48 -4.625 48 C-4.63958252 47.04222656 -4.65416504 46.08445312 -4.66918945 45.09765625 C-4.72758363 41.51151989 -4.80480984 37.92598474 -4.88745117 34.34033203 C-4.92050862 32.79453357 -4.94859903 31.24861996 -4.97143555 29.70263672 C-4.4939993 16.98479878 -4.4939993 16.98479878 -9.625 6 C-14.12925663 5.87209008 -17.61158563 6.11651055 -21.0625 9.125 C-24.02042779 14.56758714 -24.87543412 19.89127959 -25.0390625 26.02734375 C-25.09707031 27.95610352 -25.09707031 27.95610352 -25.15625 29.92382812 C-25.18769499 31.26171418 -25.21894259 32.59960489 -25.25 33.9375 C-25.28824342 35.30275756 -25.3272987 36.66799264 -25.3671875 38.03320312 C-25.46109937 41.3553354 -25.54677787 44.67746741 -25.625 48 C-28.925 48 -32.225 48 -35.625 48 C-35.625 31.5 -35.625 15 -35.625 -2 C-32.655 -2 -29.685 -2 -26.625 -2 C-26.625 -0.35 -26.625 1.3 -26.625 3 C-25.8 2.21625 -24.975 1.4325 -24.125 0.625 C-17.11258657 -5.12583438 -7.33997089 -5.59235877 0 0 Z " fill="#14114E" transform="translate(553.625,324)"/>
<path d="M0 0 C2.69844661 2.05337999 4.86656582 4.3726518 7 7 C7.42410156 6.59007812 7.84820312 6.18015625 8.28515625 5.7578125 C13.57250839 0.90042086 18.17370484 -1.31043624 25.5 -1 C29.76422138 -0.37312301 32.35412938 1.26996415 35.58984375 4.0390625 C39.41471112 9.35785314 39.27682266 15.71794253 39.1953125 21.99609375 C39.1924826 22.82963882 39.18965271 23.6631839 39.18673706 24.52198792 C39.17562289 27.1606436 39.15053515 29.79894848 39.125 32.4375 C39.11495885 34.23632319 39.10583499 36.03515175 39.09765625 37.83398438 C39.07571235 42.22278955 39.04124387 46.61133548 39 51 C36.03 51 33.06 51 30 51 C29.97494385 50.23969482 29.9498877 49.47938965 29.92407227 48.69604492 C29.80678371 45.19307983 29.68466943 41.69029814 29.5625 38.1875 C29.52318359 36.99189453 29.48386719 35.79628906 29.44335938 34.56445312 C29.79549077 21.94673693 29.79549077 21.94673693 26.3125 10.3125 C23.17573777 8.53217549 21.56205431 8.35883022 18 9 C12.57961869 12.43985737 11.55327948 14.68413285 10 21 C9.78349264 23.40959756 9.64821655 25.82759067 9.5859375 28.24609375 C9.56657135 28.90207047 9.5472052 29.55804718 9.5272522 30.23390198 C9.46811091 32.30164128 9.42133771 34.36943829 9.375 36.4375 C9.33675967 37.85093394 9.29770455 39.26434609 9.2578125 40.67773438 C9.16246548 44.11828852 9.07819713 47.55900839 9 51 C6.03 51 3.06 51 0 51 C-0.01458252 50.00669678 -0.02916504 49.01339355 -0.04418945 47.98999023 C-0.10248162 44.27902539 -0.1797103 40.56864785 -0.26245117 36.8581543 C-0.29555592 35.25701481 -0.32363221 33.65576268 -0.34643555 32.05444336 C-0.38024982 29.74284183 -0.43257451 27.43225922 -0.48828125 25.12109375 C-0.49467117 24.41351425 -0.5010611 23.70593475 -0.50764465 22.97691345 C-0.65490079 17.91682399 -1.69408342 14.42205888 -4 10 C-6.90295805 8.54852097 -8.77261779 8.62760975 -12 9 C-16.3906145 11.61748172 -17.65368013 12.84400817 -19.1328125 17.78125 C-20.43010197 24.30939592 -20.4621129 30.92824396 -20.625 37.5625 C-20.66367188 38.85736328 -20.70234375 40.15222656 -20.7421875 41.48632812 C-20.83579894 44.65741576 -20.92153403 47.82850755 -21 51 C-24.3 51 -27.6 51 -31 51 C-31 34.5 -31 18 -31 1 C-28.03 1 -25.06 1 -22 1 C-21.01 2.485 -21.01 2.485 -20 4 C-18.9275 3.360625 -17.855 2.72125 -16.75 2.0625 C-11.3311661 -1.16795867 -6.08291763 -1.88815396 0 0 Z " fill="#14114D" transform="translate(202,321)"/>
<path d="M0 0 C1.6026782 -0.10824843 3.20745748 -0.18570645 4.8125 -0.25 C5.70582031 -0.29640625 6.59914062 -0.3428125 7.51953125 -0.390625 C10 0 10 0 11.73266602 1.80371094 C13.47563262 4.82427106 14.71036037 7.99683109 15.9375 11.25 C17.77898245 16.00157068 19.71757759 20.61349242 22.07421875 25.1328125 C24.47739877 29.97973255 26.29466819 35.11370144 28.1875 40.17578125 C30.1378768 45.36256454 32.12028176 50.39703213 34.6875 55.3125 C36.8646931 59.49572321 38.0599014 63.38497053 39 68 C35.37 68 31.74 68 28 68 C26.82866942 65.54379149 25.66278278 63.08525083 24.5 60.625 C24.16613281 59.92632812 23.83226562 59.22765625 23.48828125 58.5078125 C21 53.2265625 21 53.2265625 21 51 C10.44 51 -0.12 51 -11 51 C-11.66 53.97 -12.32 56.94 -13 60 C-14.15038548 62.82558186 -15.53426268 65.31281491 -17 68 C-20.63 68 -24.26 68 -28 68 C-27.13746858 63.68734289 -26.05403437 60.48587393 -24.3125 56.5 C-24.04703369 55.88906494 -23.78156738 55.27812988 -23.50805664 54.64868164 C-21.71516491 50.54769942 -19.83809043 46.48979513 -17.9375 42.4375 C-16.0465938 38.37861394 -14.31664842 34.31922016 -12.75 30.125 C-8.92467308 19.91150338 -4.39282863 9.97881858 0 0 Z M5 12 C2.17992954 15.84555063 1.09431213 19.85911243 -0.17578125 24.375 C-1.21023527 27.66956446 -2.60949893 30.70301332 -4.1328125 33.796875 C-5.30644375 36.55410637 -5.30644375 36.55410637 -6 42 C1.59 42 9.18 42 17 42 C14.67664146 34.77177344 12.16244119 27.75774618 9.1484375 20.7890625 C7.95739353 17.89652715 6.95726896 14.97719429 6 12 C5.67 12 5.34 12 5 12 Z " fill="#14114E" transform="translate(125,304)"/>
<path d="M0 0 C1.51400391 0.01740234 1.51400391 0.01740234 3.05859375 0.03515625 C4.07050781 0.04417969 5.08242188 0.05320312 6.125 0.0625 C6.90746094 0.07410156 7.68992187 0.08570313 8.49609375 0.09765625 C8.84220703 0.98904297 8.84220703 0.98904297 9.1953125 1.8984375 C10.99759129 6.47893261 12.87644451 11.00030965 14.93359375 15.47265625 C17.6057164 21.28797484 20.06510509 27.1781302 22.49609375 33.09765625 C23.06106276 34.47010773 23.62617503 35.84250024 24.19140625 37.21484375 C24.63504517 38.29233887 24.63504517 38.29233887 25.08764648 39.39160156 C25.69116101 40.85716384 26.29483825 42.32265913 26.89868164 43.78808594 C28.26544135 47.1054857 29.62919151 50.42393789 30.984375 53.74609375 C31.42136719 54.81085938 31.85835937 55.875625 32.30859375 56.97265625 C32.68628906 57.89820313 33.06398438 58.82375 33.453125 59.77734375 C34.50727461 62.29297533 34.50727461 62.29297533 36.49609375 65.09765625 C36.49609375 66.08765625 36.49609375 67.07765625 36.49609375 68.09765625 C32.53609375 68.09765625 28.57609375 68.09765625 24.49609375 68.09765625 C23.68066944 66.01546576 22.86886186 63.93185864 22.05859375 61.84765625 C21.37990234 60.10742188 21.37990234 60.10742188 20.6875 58.33203125 C19.49609375 55.09765625 19.49609375 55.09765625 18.49609375 51.09765625 C3.15109375 51.59265625 3.15109375 51.59265625 -12.50390625 52.09765625 C-15.66576483 58.2894214 -15.66576483 58.2894214 -18.25390625 64.59765625 C-18.66640625 65.75265625 -19.07890625 66.90765625 -19.50390625 68.09765625 C-23.13390625 68.09765625 -26.76390625 68.09765625 -30.50390625 68.09765625 C-29.74202366 64.2882433 -28.97679925 61.52141863 -27.5 58.02734375 C-27.09313965 57.05821045 -26.6862793 56.08907715 -26.26708984 55.09057617 C-25.82961426 54.0616626 -25.39213867 53.03274902 -24.94140625 51.97265625 C-24.49104004 50.90313721 -24.04067383 49.83361816 -23.57666016 48.73168945 C-22.65743026 46.54994002 -21.73621278 44.36902693 -20.81298828 42.18896484 C-19.65229317 39.44806191 -18.49640647 36.70522816 -17.34375 33.9609375 C-16.05250813 30.88673267 -14.75820181 27.81385562 -13.4609375 24.7421875 C-12.0543867 21.40960075 -10.65776954 18.07300489 -9.265625 14.734375 C-8.71382568 13.41433472 -8.71382568 13.41433472 -8.15087891 12.06762695 C-7.44156949 10.37036225 -6.73413497 8.67231246 -6.02880859 6.97338867 C-3.16139732 0.12329943 -3.16139732 0.12329943 0 0 Z M1.49609375 13.09765625 C-1.46741254 19.2589381 -3.97942099 25.27857781 -5.8125 31.8671875 C-6.71724395 34.78588126 -8.08664258 37.3981064 -9.50390625 40.09765625 C-9.50390625 40.75765625 -9.50390625 41.41765625 -9.50390625 42.09765625 C-1.58390625 42.09765625 6.33609375 42.09765625 14.49609375 42.09765625 C12.6703766 36.6205048 10.67637623 31.27650049 8.55859375 25.91015625 C8.21119141 25.00845703 7.86378906 24.10675781 7.50585938 23.17773438 C7.16361328 22.31212891 6.82136719 21.44652344 6.46875 20.5546875 C6.00867554 19.37869995 6.00867554 19.37869995 5.53930664 18.17895508 C4.45725216 16.02016395 3.2921156 14.69111206 1.49609375 13.09765625 Z " fill="#14114E" transform="translate(649.50390625,303.90234375)"/>
<path d="M0 0 C3.3 0 6.6 0 10 0 C10.33 24.09 10.66 48.18 11 73 C8.03 73 5.06 73 2 73 C1.34 71.35 0.68 69.7 0 68 C-0.721875 68.61875 -1.44375 69.2375 -2.1875 69.875 C-7.56709681 73.93958425 -12.37392723 74.8660851 -19 74 C-23.90934968 72.55774532 -28.67642011 71.05785917 -32 67 C-33.1328125 64.87890625 -33.1328125 64.87890625 -34.125 62.5625 C-34.45757812 61.80066406 -34.79015625 61.03882813 -35.1328125 60.25390625 C-38.53290931 51.41671768 -37.59228726 42.60125118 -34 34 C-33.62875 32.948125 -33.2575 31.89625 -32.875 30.8125 C-29.70134044 26.05201066 -25.22445908 23.01291908 -19.76171875 21.296875 C-13.86209554 20.33281579 -8.44850829 21.66198226 -3 24 C-2.34 24.66 -1.68 25.32 -1 26 C-0.67 17.42 -0.34 8.84 0 0 Z M-23 35 C-26.67052359 40.99518853 -26.79782228 47.09471063 -26 54 C-24.75022829 58.84974305 -22.61440685 62.03815271 -18.375 64.75 C-14.76518452 66.26422971 -12.43871835 65.96869161 -8.75 64.75 C-4.36609284 62.66242516 -2.36426596 60.50560262 -0.61328125 56.0078125 C1.61504953 48.71251299 0.66607378 42.89011777 -2.8125 36.1875 C-5.07685094 32.8880172 -6.30802453 31.45961821 -10 30 C-15.83238762 29.15165271 -19.24754258 30.54253543 -23 35 Z " fill="#14114F" transform="translate(445,299)"/>
<path d="M0 0 C5.64242648 5.79916055 7.79229144 12.84582885 8.1875 20.75 C8.03486624 28.88537931 6.00299635 36.46467231 1 43 C-4.24033605 47.26511656 -10.04059875 48.34037683 -16.609375 48.296875 C-20.69320732 47.78973242 -25.04663175 45.95336825 -28 43 C-28.33 50.59 -28.66 58.18 -29 66 C-32.3 66 -35.6 66 -39 66 C-39.33 43.23 -39.66 20.46 -40 -3 C-36.7 -3 -33.4 -3 -30 -3 C-30 -1.35 -30 0.3 -30 2 C-29.40832031 1.57847656 -28.81664062 1.15695312 -28.20703125 0.72265625 C-27.41683594 0.17480469 -26.62664063 -0.37304688 -25.8125 -0.9375 C-25.03519531 -1.48277344 -24.25789062 -2.02804687 -23.45703125 -2.58984375 C-15.64424558 -7.07381136 -6.97548758 -4.92387358 0 0 Z M-25 8 C-28.5909982 13.06628089 -30.30206336 18.79091991 -30 25 C-28.86779706 28.75356961 -28.86779706 28.75356961 -27 32 C-26.62875 32.9075 -26.2575 33.815 -25.875 34.75 C-22.94269759 38.26876289 -19.52406886 39.53955357 -15 40 C-10.59651023 38.95806891 -7.77563361 37.025838 -5.0625 33.4375 C-2.21999844 26.91646702 -1.58106128 18.84134848 -4.125 12.0625 C-6.47971958 8.21645803 -8.17428106 6.42786009 -12 4 C-17.62472666 3.09602607 -20.76956194 4.23961062 -25 8 Z " fill="#14114E" transform="translate(790,325)"/>
<path d="M0 0 C4.55096602 5.16596143 4.59208426 9.85065187 4.5078125 16.42578125 C4.5049826 17.26215622 4.50215271 18.09853119 4.49923706 18.96025085 C4.4880832 21.61948226 4.46298763 24.27837118 4.4375 26.9375 C4.42746399 28.74543783 4.41833923 30.55338096 4.41015625 32.36132812 C4.38815959 36.78268312 4.35366294 41.20378358 4.3125 45.625 C1.3425 45.625 -1.6275 45.625 -4.6875 45.625 C-5.1825 43.645 -5.1825 43.645 -5.6875 41.625 C-6.47125 42.099375 -7.255 42.57375 -8.0625 43.0625 C-12.196973 45.52349584 -14.57936074 45.81350457 -19.4375 45.875 C-20.64921875 45.90078125 -21.8609375 45.9265625 -23.109375 45.953125 C-28.26057374 45.48074433 -31.49798993 43.91095683 -35 40.125 C-37.83147449 35.93022298 -38.02513378 32.60509828 -37.6875 27.625 C-35.83604641 22.48207336 -33.12552125 19.75772089 -28.6875 16.625 C-23.5095217 14.38043542 -18.84349154 14.38532234 -13.3125 14.5 C-12.48105469 14.50902344 -11.64960938 14.51804687 -10.79296875 14.52734375 C-8.75768663 14.5507378 -6.72255436 14.58660275 -4.6875 14.625 C-7.05071152 8.24646024 -7.05071152 8.24646024 -11.6875 3.625 C-17.90907609 2.55307659 -22.70436841 3.56938135 -28.09375 6.75 C-29.6875 7.625 -29.6875 7.625 -31.6875 7.625 C-33.1658226 4.66835481 -32.74782783 1.88270263 -32.6875 -1.375 C-21.61036364 -7.56093329 -9.90156682 -8.75022184 0 0 Z M-26.6875 27.625 C-27.52099951 30.66840127 -27.52099951 30.66840127 -26.6875 33.625 C-24.81696379 36.1883274 -23.35707063 37.34601224 -20.4375 38.5625 C-16.38798781 38.65453437 -13.19361828 37.64211826 -9.6875 35.625 C-5.98092558 31.44322373 -5.35080218 28.06021396 -4.6875 22.625 C-7.23098425 22.48906557 -9.76711496 22.39051093 -12.3125 22.3125 C-13.38177734 22.2496582 -13.38177734 22.2496582 -14.47265625 22.18554688 C-20.22976869 22.05350301 -22.73164543 23.42344017 -26.6875 27.625 Z " fill="#14114E" transform="translate(501.6875,326.375)"/>
<path d="M0 0 C2.3125 2.25 2.3125 2.25 4 5 C4.36996094 5.60199219 4.73992188 6.20398438 5.12109375 6.82421875 C9.04881948 14.17681258 9.44623212 22.6791032 7.26953125 30.6875 C6.33774871 32.93899088 5.28684135 34.93338393 4 37 C3.319375 38.093125 2.63875 39.18625 1.9375 40.3125 C-3.36077467 45.15985768 -9.93133263 47.16256306 -17.0625 47.5 C-23.87184406 47.18555577 -29.7607166 44.9057731 -34.9375 40.5 C-42.13625161 31.77424047 -41.93810359 23.51974301 -41.30810547 12.46435547 C-40.62657035 7.01315459 -38.09493824 3.4874474 -34 0 C-23.22385254 -7.92363784 -10.81661526 -7.81816955 0 0 Z M-28.1875 8.375 C-32.10203558 14.04432739 -32.94873948 19.19733606 -32 26 C-30.26440715 31.40898354 -27.78412824 35.05100892 -22.6875 37.6875 C-18.71719153 39.12764517 -15.78070293 39.26093262 -11.78515625 37.88671875 C-7.3718961 35.69457421 -5.04406061 32.560117 -3.1875 28.125 C-1.22642206 22.04905909 -1.48286965 17.63370977 -4.125 11.8125 C-6.44417016 7.54444736 -8.41841482 4.97637008 -13 3 C-19.56909852 1.90083981 -23.74463242 3.5513152 -28.1875 8.375 Z " fill="#14114E" transform="translate(847,326)"/>
<path d="M0 0 C6.97929802 7.1679277 6 13.97071754 6 24 C-5.22 24 -16.44 24 -28 24 C-25.9566572 31.42167092 -25.9566572 31.42167092 -21.06640625 36.921875 C-14.32802108 39.15048289 -9.76959366 38.83779347 -3 37 C-1.00189338 36.65549886 0.99722415 36.31622777 3 36 C3 38.97 3 41.94 3 45 C-7.4831581 48.8203266 -17.59657173 49.64472478 -28 45 C-33.05593148 41.29231692 -36.17206732 35.94266179 -38 30 C-38.87754211 21.68385323 -38.69756079 14.59120434 -35 7 C-34.5875 6.13375 -34.175 5.2675 -33.75 4.375 C-30.09572451 -0.58437388 -25.200773 -3.56612327 -19.171875 -4.78125 C-11.81428875 -5.52230185 -5.9919935 -4.31423532 0 0 Z M-25 8 C-27.08007422 11.0255625 -27 12.14475109 -27 16 C-19.41 16 -11.82 16 -4 16 C-4.2267754 8.51978772 -4.2267754 8.51978772 -7 5.5 C-13.58462344 2.20768828 -19.45429397 3.13059958 -25 8 Z " fill="#14114E" transform="translate(362,325)"/>
<path d="M0 0 C-0.33 2.64 -0.66 5.28 -1 8 C-1.804375 7.835 -2.60875 7.67 -3.4375 7.5 C-7.65276571 6.90838376 -11.76331794 6.38097814 -16 7 C-18.56990998 8.81264648 -18.56990998 8.81264648 -20 11 C-19.07591104 14.20493282 -18.56256931 15.66413773 -15.64453125 17.40625 C-14.70996094 17.7671875 -13.77539062 18.128125 -12.8125 18.5 C-7.94235652 20.54149247 -4.03561883 22.57849708 0 26 C1.97418338 31.49287492 1.56518032 37.82001876 0.125 43.375 C-3.62426881 48.0064497 -8.81062758 49.62143948 -14.6328125 50.3125 C-19.76419787 50.43803848 -24.1803913 49.74326272 -29 48 C-30 47 -30 47 -30.09765625 45.15234375 C-30.06510417 43.1015625 -30.03255208 41.05078125 -30 39 C-26.47060575 39.50419918 -22.98776321 40.00262217 -19.5 40.75 C-15.04690959 41.06807789 -12.93209062 40.00616868 -9 38 C-8.66570352 35.62888222 -8.66570352 35.62888222 -9 33 C-10.67146429 31.22830961 -10.67146429 31.22830961 -13 29.9375 C-13.81726563 29.43347656 -14.63453125 28.92945313 -15.4765625 28.41015625 C-17.7451423 27.14242048 -20.02756653 25.98763111 -22.375 24.875 C-25.49925661 23.34703355 -27.46296262 22.2549027 -29 19 C-30.19156959 13.40878886 -30.33195398 9.37363308 -28 4 C-20.65256107 -3.68918028 -9.33830667 -5.33617524 0 0 Z " fill="#14114E" transform="translate(281,323)"/>
<path d="M0 0 C0 4.62 0 9.24 0 14 C3.96 14 7.92 14 12 14 C12 16.64 12 19.28 12 22 C8.04 22 4.08 22 0 22 C0.11853846 26.05698819 0.24280582 30.11375694 0.37231445 34.17041016 C0.4155455 35.54959378 0.45722866 36.92882685 0.49731445 38.30810547 C0.55530403 40.29406938 0.61937723 42.27985269 0.68359375 44.265625 C0.72025146 45.45961914 0.75690918 46.65361328 0.79467773 47.88378906 C0.91894104 51.18074351 0.91894104 51.18074351 2 55 C5.63 55 9.26 55 13 55 C13 57.64 13 60.28 13 63 C10.31767173 64.34116414 8.18167741 64.16904021 5.1875 64.1875 C4.14980469 64.20167969 3.11210937 64.21585937 2.04296875 64.23046875 C-1.28304745 63.97856252 -3.16758181 63.78372121 -6 62 C-11.45125299 54.65749598 -10.45277358 46.21543789 -10.25 37.5 C-10.22990494 35.99481542 -10.21165948 34.48960495 -10.1953125 32.984375 C-10.15155298 29.32237263 -10.08269216 25.66135422 -10 22 C-13.3 22 -16.6 22 -20 22 C-20 19.36 -20 16.72 -20 14 C-16.7 14 -13.4 14 -10 14 C-10 10.37 -10 6.74 -10 3 C-3.375 0 -3.375 0 0 0 Z " fill="#14124E" transform="translate(307,308)"/>
<path d="M0 0 C0 4.62 0 9.24 0 14 C3.96 14 7.92 14 12 14 C12 16.64 12 19.28 12 22 C8.04 22 4.08 22 0 22 C0.11853846 26.05698819 0.24280582 30.11375694 0.37231445 34.17041016 C0.4155455 35.54959378 0.45722866 36.92882685 0.49731445 38.30810547 C0.55530403 40.29406938 0.61937723 42.27985269 0.68359375 44.265625 C0.72025146 45.45961914 0.75690918 46.65361328 0.79467773 47.88378906 C0.91894104 51.18074351 0.91894104 51.18074351 2 55 C5.63 55 9.26 55 13 55 C13 57.64 13 60.28 13 63 C10.31767173 64.34116414 8.18167741 64.16904021 5.1875 64.1875 C4.14980469 64.20167969 3.11210938 64.21585937 2.04296875 64.23046875 C-1.28304745 63.97856252 -3.16758181 63.78372121 -6 62 C-11.45125299 54.65749598 -10.45277358 46.21543789 -10.25 37.5 C-10.22990494 35.99481542 -10.21165948 34.48960495 -10.1953125 32.984375 C-10.15155298 29.32237263 -10.08269216 25.66135422 -10 22 C-13.3 22 -16.6 22 -20 22 C-20 19.36 -20 16.72 -20 14 C-16.7 14 -13.4 14 -10 14 C-10 10.37 -10 6.74 -10 3 C-3.375 0 -3.375 0 0 0 Z " fill="#14114E" transform="translate(917,308)"/>
<path d="M0 0 C0 9.9 0 19.8 0 30 C-10.23 30 -20.46 30 -31 30 C-31.061875 26.968125 -31.12375 23.93625 -31.1875 20.8125 C-31.21481201 19.86608643 -31.24212402 18.91967285 -31.27026367 17.94458008 C-31.35353255 9.50935325 -31.35353255 9.50935325 -28 6 C-24.7421875 4.70703125 -24.7421875 4.70703125 -20.875 3.8125 C-20.20428467 3.65233398 -19.53356934 3.49216797 -18.8425293 3.32714844 C-16.8990876 2.86722321 -14.94961173 2.43302533 -13 2 C-12.06027344 1.77183594 -11.12054688 1.54367188 -10.15234375 1.30859375 C-6.65390255 0.47340662 -3.61464178 0 0 0 Z " fill="#13124F" transform="translate(419,92)"/>
<path d="M0 0 C0 2.97 0 5.94 0 9 C-1.4025 9.12375 -2.805 9.2475 -4.25 9.375 C-7.65062147 9.67505484 -10.05031981 10.2668096 -13 12 C-18.16920334 19.33220332 -17.66592234 27.38301704 -17.75 36 C-17.77820128 37.4570661 -17.80813444 38.91409977 -17.83984375 40.37109375 C-17.91321509 43.91391061 -17.96308952 47.45659381 -18 51 C-21.3 51 -24.6 51 -28 51 C-28.33 34.5 -28.66 18 -29 1 C-25.7 1 -22.4 1 -19 1 C-19 2.65 -19 4.3 -19 6 C-18.34 6 -17.68 6 -17 6 C-16.731875 5.38125 -16.46375 4.7625 -16.1875 4.125 C-14.60984345 1.30182512 -12.81222377 0.24817949 -9.75 -0.6875 C-6.34864692 -1.0740174 -3.35831396 -0.59264364 0 0 Z " fill="#14124C" transform="translate(744,321)"/>
<path d="M0 0 C0 2.97 0 5.94 0 9 C-2.0728125 9.12375 -2.0728125 9.12375 -4.1875 9.25 C-8.57677937 9.75990059 -10.96856336 10.61192375 -14 14 C-16.47524493 18.94105244 -17.39153354 22.6454631 -17.51171875 28.24609375 C-17.52966995 28.90207047 -17.54762115 29.55804718 -17.56611633 30.23390198 C-17.61972153 32.30170512 -17.65395093 34.36928438 -17.6875 36.4375 C-17.72071743 37.85094231 -17.75521111 39.26435523 -17.79101562 40.67773438 C-17.87541619 44.11827446 -17.94246279 47.55889366 -18 51 C-21.3 51 -24.6 51 -28 51 C-28 34.5 -28 18 -28 1 C-25.03 1 -22.06 1 -19 1 C-19 2.65 -19 4.3 -19 6 C-18.46890625 5.57847656 -17.9378125 5.15695312 -17.390625 4.72265625 C-16.68421875 4.17480469 -15.9778125 3.62695312 -15.25 3.0625 C-14.55390625 2.51722656 -13.8578125 1.97195313 -13.140625 1.41015625 C-8.63526783 -1.55778889 -5.2157063 -0.9027184 0 0 Z " fill="#15124B" transform="translate(406,321)"/>
<path d="M0 0 C0 2.97 0 5.94 0 9 C-1.01320313 9.14695312 -1.01320313 9.14695312 -2.046875 9.296875 C-7.59179503 10.19182767 -7.59179503 10.19182767 -12.5 12.75 C-15.72648277 17.58972416 -16.26756938 22.43520595 -16.4140625 28.1484375 C-16.43342865 28.80582916 -16.4527948 29.46322083 -16.4727478 30.14053345 C-16.53202461 32.21856135 -16.57871794 34.29664624 -16.625 36.375 C-16.66322778 37.7929915 -16.70228223 39.21096097 -16.7421875 40.62890625 C-16.83768171 44.08573461 -16.92190189 47.54272983 -17 51 C-20.3 51 -23.6 51 -27 51 C-27 34.5 -27 18 -27 1 C-24.03 1 -21.06 1 -18 1 C-18 2.65 -18 4.3 -18 6 C-17.34 6 -16.68 6 -16 6 C-15.814375 5.401875 -15.62875 4.80375 -15.4375 4.1875 C-11.76887495 -1.39519029 -5.94276042 -1.33408907 0 0 Z " fill="#14114E" transform="translate(892,321)"/>
<path d="M0 0 C2.97 0 5.94 0 9 0 C9 16.5 9 33 9 50 C6.36 50 3.72 50 1 50 C0 49 0 49 -0.12025452 47.01951599 C-0.11803391 46.15125687 -0.11581329 45.28299774 -0.11352539 44.38842773 C-0.11344986 43.40748642 -0.11337433 42.4265451 -0.11329651 41.4158783 C-0.10813522 40.3492244 -0.10297394 39.2825705 -0.09765625 38.18359375 C-0.0962413 37.0974025 -0.09482635 36.01121124 -0.09336853 34.8921051 C-0.08775048 31.40720925 -0.07519492 27.92237658 -0.0625 24.4375 C-0.05748733 22.08138113 -0.05292402 19.72526126 -0.04882812 17.36914062 C-0.03777518 11.57940257 -0.02049846 5.78971201 0 0 Z " fill="#15124B" transform="translate(693,322)"/>
<path d="M0 0 C3.3 0 6.6 0 10 0 C10 3.63 10 7.26 10 11 C6.7 11 3.4 11 0 11 C0 7.37 0 3.74 0 0 Z " fill="#15114F" transform="translate(693,303)"/>
</svg>
