<?xml version="1.0" encoding="UTF-8"?>
<svg version="1.1" xmlns="http://www.w3.org/2000/svg" width="1000" height="431">
<path d="M0 0 C0.79660538 -0.0065712 1.59321075 -0.0131424 2.41395569 -0.01991272 C5.0327264 -0.03950138 7.6514396 -0.05128781 10.27026367 -0.0612793 C11.1780274 -0.06535482 12.08579113 -0.06943035 13.02106285 -0.07362938 C17.84379211 -0.09444803 22.66649345 -0.10875723 27.48925781 -0.11816406 C31.42138532 -0.12694743 35.35315059 -0.14764363 39.28515625 -0.1796875 C79.91278291 -0.5034831 124.51217282 0.22667897 156.14916992 29.51293945 C167.11448626 40.76969277 171.04809283 54.50098291 170.99145508 69.80957031 C170.74589964 81.47120102 167.49057987 91.66285658 160.62573242 101.17700195 C160.13588867 101.86149414 159.64604492 102.54598633 159.14135742 103.2512207 C142.42892853 124.30722641 111.80282082 130.56280027 86.62452698 133.70603943 C80.97524952 134.32060433 75.35736186 134.30941981 69.68017578 134.29052734 C68.51818665 134.29067337 67.35619751 134.2908194 66.15899658 134.29096985 C62.34450367 134.29027701 58.53006049 134.28251414 54.71557617 134.2746582 C52.06042905 134.27279179 49.40528463 134.2713197 46.75013733 134.27037048 C40.49242717 134.26727328 34.23473466 134.25908178 27.97703224 134.24902099 C20.84757833 134.23780961 13.71812353 134.23233679 6.58866298 134.22732556 C-8.06565757 134.21689768 -22.71995906 134.19857242 -37.37426758 134.17700195 C-37.37426758 126.58700195 -37.37426758 118.99700195 -37.37426758 111.17700195 C-34.53945801 111.16765625 -31.70464844 111.15831055 -28.78393555 111.14868164 C-19.37219414 111.11477302 -9.9606688 111.05914754 -0.54910088 110.99309921 C5.15192875 110.95374707 10.85280673 110.92149867 16.55395508 110.90600586 C22.0654975 110.89075825 27.57662271 110.85617007 33.08797836 110.80869293 C35.1808495 110.79396229 37.27378023 110.78596577 39.36670303 110.7851181 C55.33867997 110.77215447 69.17534762 109.78786937 82.62573242 100.17700195 C83.59446289 99.50024414 83.59446289 99.50024414 84.58276367 98.80981445 C89.7036864 94.86034463 92.73070217 89.89687991 95.62573242 84.17700195 C96.14006836 83.16379883 96.14006836 83.16379883 96.66479492 82.13012695 C100.81327253 72.12725572 99.84155616 58.79142782 95.93823242 48.8840332 C90.2395061 37.13041017 81.51094429 29.61371964 69.30541992 24.96606445 C60.27922534 22.30820541 51.84737236 21.80446914 42.49975586 21.80639648 C40.1581731 21.802062 37.81854088 21.76576802 35.47729492 21.7277832 C14.17968065 21.566718 -5.61141536 27.514124 -21.46801758 42.1965332 C-37.07769431 57.62696496 -43.45455458 78.49322532 -43.57958984 99.88574219 C-43.58948944 100.94014999 -43.59938904 101.9945578 -43.60958862 103.08091736 C-43.64105265 106.54912101 -43.66590116 110.01733834 -43.69067383 113.4855957 C-43.7112564 115.89698126 -43.73225321 118.30836332 -43.75364685 120.71974182 C-43.80873292 127.05391598 -43.85820142 133.38812197 -43.90649414 139.72235107 C-43.96566011 147.32911395 -44.03181376 154.93581888 -44.09679413 162.54253387 C-44.19463414 174.08732106 -44.28360622 185.63214611 -44.37426758 197.17700195 C-68.13426758 197.17700195 -91.89426758 197.17700195 -116.37426758 197.17700195 C-116.49459401 170.78540541 -116.49459401 170.78540541 -116.52075195 159.4699707 C-116.53863261 151.77182757 -116.55970542 144.07379226 -116.60058594 136.37573242 C-116.63336339 130.16412301 -116.65115922 123.95262936 -116.65889931 117.74094009 C-116.66440995 115.38006902 -116.6751702 113.01920374 -116.69145775 110.65838242 C-116.88870056 80.86326512 -110.01801369 57.27159257 -88.62817383 35.36450195 C-65.61639284 12.96910796 -31.95019306 0.11720734 0 0 Z " fill="#FEFEFE" transform="translate(414.374267578125,233.822998046875)"/>
<path d="M0 0 C4.49921793 3.44961375 8.64772183 7.19371271 12.74609375 11.10546875 C13.64908203 11.89630859 13.64908203 11.89630859 14.5703125 12.703125 C23.16506956 20.53657491 29.23712117 31.27795399 33.93359375 41.79296875 C34.23716797 42.46384521 34.54074219 43.13472168 34.85351562 43.82592773 C36.01459665 46.57090514 36.81697674 48.56829526 36.421875 51.5625 C36.19886719 52.07167969 35.97585938 52.58085938 35.74609375 53.10546875 C34.81990234 51.87183594 34.81990234 51.87183594 33.875 50.61328125 C28.47119682 43.46947065 22.87691473 36.6481491 16.74609375 30.10546875 C15.87791016 29.12320313 15.87791016 29.12320313 14.9921875 28.12109375 C13.32632645 26.2330107 13.32632645 26.2330107 10.74609375 24.10546875 C8.60410741 24.39179432 8.60410741 24.39179432 6.74609375 25.10546875 C13.49699078 31.24339815 13.49699078 31.24339815 20.43359375 37.16796875 C26.26074552 42.15296805 30.92462571 48.2006893 35.62109375 54.23046875 C36.38164063 55.20242187 37.1421875 56.174375 37.92578125 57.17578125 C40.88795714 61.94323172 40.87558839 66.4869079 40.80859375 71.98046875 C40.79957031 72.94726562 40.79054688 73.9140625 40.78125 74.91015625 C40.76384766 75.99683594 40.76384766 75.99683594 40.74609375 77.10546875 C37.97251408 74.42332577 35.53939023 71.65833676 33.18359375 68.60546875 C24.67023191 57.90879086 15.54522749 48.49086754 4.74609375 40.10546875 C4.20210937 39.68120605 3.658125 39.25694336 3.09765625 38.81982422 C-1.81078835 35.01042867 -1.81078835 35.01042867 -7.25390625 32.10546875 C-10.55065745 32.78276763 -10.55065745 32.78276763 -13.25390625 34.10546875 C-8.51372526 37.30070186 -3.74676487 40.42020834 1.12109375 43.41796875 C13.16342926 51.05989714 24.12365722 61.02003289 33.984375 71.30078125 C35.88581948 73.30300793 35.88581948 73.30300793 38.74609375 75.66796875 C42.035883 81.32229402 41.11087883 87.73388931 40.74609375 94.10546875 C37.58113107 92.73535504 35.79214812 91.26746507 33.62109375 88.60546875 C18.60878507 70.98508949 -0.11847463 57.90235532 -21.12890625 48.35546875 C-21.88389404 48.00790527 -22.63888184 47.6603418 -23.41674805 47.30224609 C-27.13510276 45.68571756 -29.40422247 44.70118159 -33.25390625 46.10546875 C-34.96140605 47.3860936 -36.63654366 48.71273985 -38.25390625 50.10546875 C-36.67029297 50.58113281 -36.67029297 50.58113281 -35.0546875 51.06640625 C-12.02215344 58.22470383 8.65331997 69.08767043 26.74609375 85.10546875 C27.32794434 85.59418457 27.90979492 86.08290039 28.50927734 86.58642578 C39.49144058 95.87990611 39.49144058 95.87990611 40.12109375 101.3828125 C39.60464693 104.16947345 38.9260411 106.5343171 37.74609375 109.10546875 C33.68409621 109.10546875 32.98577884 107.67580887 30.12109375 104.85546875 C7.80604998 83.8475031 -24.30596984 67.36044004 -55.25390625 65.10546875 C-58.92231831 65.55641061 -60.81794535 67.20583793 -63.50390625 69.66796875 C-64.2103125 70.30863281 -64.91671875 70.94929688 -65.64453125 71.609375 C-66.175625 72.10308594 -66.70671875 72.59679687 -67.25390625 73.10546875 C-66.60655518 73.17016357 -65.9592041 73.2348584 -65.29223633 73.30151367 C-31.60894814 76.7616169 -1.34955564 85.05947693 25.74609375 106.10546875 C26.6278125 106.78351563 27.50953125 107.4615625 28.41796875 108.16015625 C30.53598709 109.79800273 32.64532104 111.44559895 34.74609375 113.10546875 C34.27788165 117.88123214 33.50277377 121.1502322 30.74609375 125.10546875 C26.92991941 123.75898171 24.16520211 122.04091244 20.99609375 119.54296875 C-4.36430757 100.82780628 -37.87243693 91.5621178 -69.25390625 93.10546875 C-69.91664551 93.10401855 -70.57938477 93.10256836 -71.26220703 93.10107422 C-80.12108987 92.90253474 -80.12108987 92.90253474 -87.88964844 96.47607422 C-90.9750392 100.00089943 -93.18536684 103.92124373 -95.25390625 108.10546875 C-94.6196875 107.91210938 -93.98546875 107.71875 -93.33203125 107.51953125 C-55.73193081 97.02889549 -15.52006651 104.800573 18.0546875 123.49609375 C21.44671398 125.52441728 24.61162365 127.69994518 27.74609375 130.10546875 C26.26010215 134.69853371 23.89594693 137.5411612 20.74609375 141.10546875 C16.61151231 139.84963794 12.84597312 138.24737684 8.98828125 136.33862305 C-23.34129739 120.37141994 -59.54828153 118.44488082 -94.02392578 128.46728516 C-96.06983588 129.05279085 -98.12265652 129.57251983 -100.1875 130.0859375 C-105.30167594 131.60103389 -108.30273174 132.69117557 -111.33984375 137.20703125 C-112.88120234 140.47065907 -114.14877089 143.67230234 -115.25390625 147.10546875 C-115.58390625 148.09546875 -115.91390625 149.08546875 -116.25390625 150.10546875 C-115.12597656 149.52539062 -113.99804688 148.9453125 -112.8359375 148.34765625 C-100.96400067 142.39701222 -89.16115098 138.20207527 -76.25390625 135.10546875 C-75.19171875 134.85023438 -74.12953125 134.595 -73.03515625 134.33203125 C-44.61244405 128.69649349 -12.46402458 132.68678447 13.74609375 145.10546875 C14.40609375 145.76546875 15.06609375 146.42546875 15.74609375 147.10546875 C12.64991573 151.32267674 9.22583556 154.3787697 5.12109375 157.54296875 C4.18414673 158.26746216 4.18414673 158.26746216 3.22827148 159.0065918 C-17.5991073 174.90476183 -43.42673177 181.99927146 -69.5390625 178.609375 C-95.88250368 174.62222707 -118.73803205 162.24457109 -135.25390625 141.10546875 C-151.42421763 119.0873388 -157.84420556 93.25619699 -154.56640625 66.16796875 C-151.49076756 47.41921234 -143.85041205 30.38876366 -131.25390625 16.10546875 C-130.81175781 15.52152344 -130.36960937 14.93757813 -129.9140625 14.3359375 C-100.180537 -24.25438284 -37.73744309 -26.47253471 0 0 Z " fill="#FEFEFE" transform="translate(729.25390625,16.89453125)"/>
<path d="M0 0 C1.05919144 -0.00701431 2.11838287 -0.01402863 3.20967102 -0.02125549 C6.60987656 -0.03865751 10.00990782 -0.04510784 13.41015625 -0.046875 C15.15383484 -0.04788712 15.15383484 -0.04788712 16.93273926 -0.04891968 C48.61935928 -0.01969856 79.33297442 2.78720554 109.47265625 13.203125 C107.793426 17.00445942 105.35802791 20.17395202 102.84765625 23.453125 C102.42742187 24.00742187 102.0071875 24.56171875 101.57421875 25.1328125 C100.54326906 26.49179163 99.50835714 27.84776335 98.47265625 29.203125 C96.97605469 28.83960938 96.97605469 28.83960938 95.44921875 28.46875 C57.81886709 19.58032488 0.2305347 7.94968569 -35.71484375 27.828125 C-36.98774154 28.61646801 -38.25874431 29.40788356 -39.52734375 30.203125 C-40.24277344 30.53441406 -40.95820312 30.86570312 -41.6953125 31.20703125 C-44.35239704 32.65171474 -44.60927455 34.38334103 -45.52734375 37.203125 C-46.11515625 38.37875 -46.11515625 38.37875 -46.71484375 39.578125 C-47.83918852 43.21062349 -47.50824879 45.5410795 -46.52734375 49.203125 C-41.26155154 55.90504235 -34.26994862 59.15601226 -26.28662109 61.58666992 C-25.58548376 61.80258128 -24.88434643 62.01849264 -24.16196251 62.24094677 C-17.13667245 64.3735065 -10.04619271 66.22122147 -2.92586136 68.00597572 C-0.60590939 68.58784998 1.71239876 69.17593402 4.03042603 69.76542664 C10.60951628 71.43738286 17.19132505 73.09851668 23.77392578 74.7565918 C108.59626888 96.13837877 108.59626888 96.13837877 123.03515625 119.515625 C127.60031048 127.54667535 127.94269618 138.00416143 125.82421875 146.9375 C124.88331975 149.20530785 123.81853107 151.15036637 122.47265625 153.203125 C121.98667969 153.94820312 121.50070313 154.69328125 121 155.4609375 C103.32446477 180.11475732 66.96248619 188.16773985 38.90405273 192.94482422 C37.87481689 193.11256348 36.84558105 193.28030273 35.78515625 193.453125 C34.86226807 193.60410645 33.93937988 193.75508789 32.98852539 193.91064453 C29.82134956 194.39363 26.65229433 194.80982368 23.47265625 195.203125 C22.7756662 195.29032806 22.07867615 195.37753113 21.36056519 195.46737671 C6.5128241 197.26466514 -8.26354068 197.54422622 -23.20825195 197.51879883 C-27.06034976 197.51564912 -30.91166875 197.53916108 -34.76367188 197.56445312 C-60.49370143 197.63071952 -85.44589671 194.95450159 -110.52734375 189.203125 C-111.63207031 188.95433594 -112.73679687 188.70554687 -113.875 188.44921875 C-114.96683594 188.19269531 -116.05867188 187.93617188 -117.18359375 187.671875 C-118.18197266 187.43919922 -119.18035156 187.20652344 -120.20898438 186.96679688 C-120.97404297 186.71478516 -121.73910156 186.46277344 -122.52734375 186.203125 C-122.85734375 185.543125 -123.18734375 184.883125 -123.52734375 184.203125 C-122.72290039 182.41552734 -122.72290039 182.41552734 -121.4375 180.2890625 C-120.98310547 179.52851563 -120.52871094 178.76796875 -120.06054688 177.984375 C-119.33254883 176.79328125 -119.33254883 176.79328125 -118.58984375 175.578125 C-118.10837891 174.77632812 -117.62691406 173.97453125 -117.13085938 173.1484375 C-115.9367761 171.16223958 -114.73539174 169.18084958 -113.52734375 167.203125 C-108.99407572 167.7459242 -104.76749539 168.63429711 -100.37573242 169.86621094 C-90.60136616 172.5691753 -80.76221723 174.17974731 -70.71484375 175.453125 C-69.44125 175.61594971 -68.16765625 175.77877441 -66.85546875 175.9465332 C-52.20388847 177.72600467 -37.66634753 178.41063738 -22.92236328 178.44335938 C-20.29427382 178.45306249 -17.66697003 178.4842177 -15.0390625 178.515625 C4.98498782 178.64065324 30.67283548 177.08731786 46.12109375 162.6640625 C49.74484943 158.5794824 51.54625081 155.22697533 51.34765625 149.765625 C49.68734298 143.0057781 46.13534326 139.2586922 40.32763672 135.71899414 C28.31743397 129.34210438 13.86641381 126.88886866 0.77331543 123.67025757 C-2.71085737 122.81374055 -6.192976 121.94924478 -9.67480469 121.08325195 C-19.28287519 118.69844184 -28.89338964 116.32726576 -38.53515625 114.08203125 C-100.09785944 99.73426773 -100.09785944 99.73426773 -114.52734375 78.203125 C-119.44521693 68.90502394 -121.15391321 59.67946534 -118.87890625 49.22265625 C-114.21492389 35.09118832 -102.48796036 24.68819647 -89.45800781 18.11816406 C-61.87554708 5.04544494 -30.34411741 0.1356278 0 0 Z " fill="#FEFEFE" transform="translate(123.52734375,233.796875)"/>
<path d="M0 0 C1.2505014 -0.00029205 2.50100281 -0.00058411 3.78939819 -0.00088501 C7.1687264 0.00025711 10.5478002 0.01018123 13.92708349 0.02426291 C17.47710745 0.03689543 21.02713598 0.03795051 24.57717896 0.04031372 C31.27744557 0.04649214 37.97764572 0.06285285 44.67788327 0.0830127 C52.31529626 0.10548603 59.95271269 0.11639367 67.59015059 0.12640357 C83.28035458 0.14722299 98.97048831 0.18273711 114.66064453 0.22705078 C114.66064453 7.81705078 114.66064453 15.40705078 114.66064453 23.22705078 C110.090354 23.24106934 110.090354 23.24106934 105.42773438 23.25537109 C95.3175078 23.28926371 85.2074827 23.3448806 75.09741783 23.41095352 C68.97264978 23.45032323 62.84802324 23.48256318 56.72314453 23.49804688 C50.80313273 23.51328269 44.88351027 23.54785071 38.96367264 23.5953598 C36.71449814 23.61010241 34.46526803 23.61808767 32.21604538 23.61893463 C20.07189297 23.6280998 9.12770109 23.78816623 -2.33935547 28.22705078 C-3.02451233 28.49129349 -3.70966919 28.75553619 -4.41558838 29.02778625 C-20.28573267 35.8325284 -33.66548979 50.56006733 -40.28076172 66.28564453 C-42.74714629 73.13873525 -44.57432388 80.16692441 -46.33935547 87.22705078 C-6.07935547 87.22705078 34.18064453 87.22705078 75.66064453 87.22705078 C75.66064453 94.81705078 75.66064453 102.40705078 75.66064453 110.22705078 C35.40064453 110.22705078 -4.85935547 110.22705078 -46.33935547 110.22705078 C-40.24976364 133.06302013 -31.98892718 152.04074716 -11.27294922 164.62548828 C-0.46364515 170.52670622 9.77448879 173.51757856 22.02392578 173.54589844 C23.02971176 173.55594406 24.03549774 173.56598969 25.07176208 173.57633972 C28.37221747 173.60705152 31.67259219 173.62417349 34.97314453 173.64111328 C37.2710031 173.65983457 39.56885486 173.6794087 41.86669922 173.69979858 C47.89670797 173.7510241 53.92673898 173.79070113 59.95684814 173.82794189 C66.11728378 173.86804163 72.27762756 173.91910672 78.43798828 173.96923828 C90.51214877 174.0658842 102.58634749 174.14931112 114.66064453 174.22705078 C114.66064453 182.14705078 114.66064453 190.06705078 114.66064453 198.22705078 C99.34273769 198.27242683 84.02486174 198.30917214 68.70690441 198.33067513 C61.59242003 198.34093051 54.47798078 198.35487914 47.36352539 198.37792969 C41.15311009 198.39804136 34.94272752 198.41080874 28.73228055 198.41522777 C25.45248289 198.41780552 22.17279906 198.42483692 18.89302635 198.43851089 C0.74700524 198.51108301 -17.38305162 198.46505009 -35.08935547 193.97705078 C-35.96148682 193.76161621 -36.83361816 193.54618164 -37.73217773 193.32421875 C-45.60456641 191.30098521 -52.94332968 188.60096816 -60.33935547 185.22705078 C-61.50724609 184.70369141 -62.67513672 184.18033203 -63.87841797 183.64111328 C-90.0459787 171.2825979 -109.5327628 150.63729291 -119.73388672 123.52001953 C-124.69106958 106.79171694 -124.33383858 87.59261195 -118.33935547 71.22705078 C-118.03900391 70.32341797 -117.73865234 69.41978516 -117.42919922 68.48876953 C-108.92526542 44.81764645 -87.60091324 25.68164042 -65.3918457 14.94262695 C-44.58000673 5.26334616 -23.0557974 -0.14459235 0 0 Z " fill="#FEFEFE" transform="translate(885.33935546875,232.77294921875)"/>
<path d="M0 0 C23.76 0 47.52 0 72 0 C72 65.01 72 130.02 72 197 C48.24 197 24.48 197 0 197 C0 131.99 0 66.98 0 0 Z " fill="#FEFEFE" transform="translate(636,234)"/>
</svg>
