<?xml version="1.0" encoding="UTF-8"?>
<svg version="1.1" xmlns="http://www.w3.org/2000/svg" width="1144" height="253">
<path d="M0 0 C1.13795344 0.00138269 1.13795344 0.00138269 2.29889584 0.00279331 C3.16692837 0.00141865 4.0349609 0.00004398 4.92929745 -0.00137234 C5.88882824 0.00222294 6.84835903 0.00581821 7.83696651 0.00952244 C8.84173031 0.00937641 9.8464941 0.00923038 10.88170528 0.00907993 C14.22024817 0.00977953 17.55873604 0.01757409 20.89726925 0.02539158 C23.20512518 0.02725559 25.51298151 0.02867957 27.82083797 0.0296793 C33.90854126 0.03350578 39.99622086 0.04333718 46.08391476 0.05438328 C52.29057654 0.0645946 58.49724212 0.06917632 64.70390987 0.0742197 C76.89207135 0.08495933 89.08021521 0.10203731 101.268363 0.12304783 C101.598363 1.44304783 101.928363 2.76304783 102.268363 4.12304783 C102.928363 4.12304783 103.588363 4.12304783 104.268363 4.12304783 C106.268363 7.12304783 106.268363 7.12304783 106.268363 11.12304783 C107.258363 11.45304783 108.248363 11.78304783 109.268363 12.12304783 C109.268363 13.44304783 109.268363 14.76304783 109.268363 16.12304783 C109.928363 16.12304783 110.588363 16.12304783 111.268363 16.12304783 C114.268363 21.87304783 114.268363 21.87304783 114.268363 24.12304783 C114.928363 24.12304783 115.588363 24.12304783 116.268363 24.12304783 C117.50757602 27.09715907 118.56894704 29.97567601 119.268363 33.12304783 C119.928363 33.12304783 120.588363 33.12304783 121.268363 33.12304783 C121.845863 34.29867283 122.423363 35.47429783 123.018363 36.68554783 C124.4274501 39.5188194 125.9116305 42.27234091 127.518363 44.99804783 C129.268363 48.12304783 129.268363 48.12304783 129.268363 50.12304783 C129.928363 50.12304783 130.588363 50.12304783 131.268363 50.12304783 C133.03298983 53.21114478 133.268363 54.35616919 133.268363 58.12304783 C134.258363 58.45304783 135.248363 58.78304783 136.268363 59.12304783 C136.268363 60.44304783 136.268363 61.76304783 136.268363 63.12304783 C136.928363 63.12304783 137.588363 63.12304783 138.268363 63.12304783 C140.31005785 66.02853665 141.268363 67.52446828 141.268363 71.12304783 C141.928363 71.12304783 142.588363 71.12304783 143.268363 71.12304783 C143.392113 71.76242283 143.515863 72.40179783 143.643363 73.06054783 C143.849613 73.74117283 144.055863 74.42179783 144.268363 75.12304783 C144.928363 75.45304783 145.588363 75.78304783 146.268363 76.12304783 C146.268363 77.44304783 146.268363 78.76304783 146.268363 80.12304783 C146.928363 80.12304783 147.588363 80.12304783 148.268363 80.12304783 C149.2782103 82.0345445 150.27590795 83.95246352 151.268363 85.87304783 C151.825238 86.94039158 152.382113 88.00773533 152.955863 89.10742283 C154.77845323 93.29504087 154.50405226 95.50168522 152.893363 99.74804783 C151.268363 103.12304783 151.268363 103.12304783 149.268363 105.12304783 C148.6258395 107.19178817 148.6258395 107.19178817 148.268363 109.12304783 C147.608363 109.12304783 146.948363 109.12304783 146.268363 109.12304783 C146.165238 109.6670322 146.062113 110.21101658 145.955863 110.77148533 C145.10165852 113.69325294 143.75618858 116.094282 142.268363 118.74804783 C141.732113 119.70968845 141.195863 120.67132908 140.643363 121.66211033 C140.189613 122.4742197 139.735863 123.28632908 139.268363 124.12304783 C138.938363 124.78304783 138.608363 125.44304783 138.268363 126.12304783 C137.608363 126.12304783 136.948363 126.12304783 136.268363 126.12304783 C136.082738 126.98929783 136.082738 126.98929783 135.893363 127.87304783 C135.26187476 130.1464055 134.37978109 132.04840072 133.268363 134.12304783 C132.608363 134.12304783 131.948363 134.12304783 131.268363 134.12304783 C131.082738 135.29867283 131.082738 135.29867283 130.893363 136.49804783 C130.268363 139.12304783 130.268363 139.12304783 128.268363 141.12304783 C125.82899246 141.31074301 123.50421572 141.37503388 121.06474972 141.35009861 C120.3231863 141.35039066 119.58162289 141.35068272 118.81758785 141.35098362 C116.36095729 141.34958777 113.90462822 141.33401481 111.4480505 141.31836033 C109.74697186 141.3146311 108.04589108 141.3117837 106.34480953 141.30978489 C101.86325324 141.30214132 97.38182617 141.28248667 92.90032101 141.26037693 C88.32900904 141.23993405 83.75767623 141.23078651 79.18633175 141.22070408 C70.21361866 141.19924142 61.24100157 141.16509679 52.268363 141.12304783 C51.13252844 137.40577109 51.60166274 135.65253073 53.268363 132.12304783 C53.928363 132.12304783 54.588363 132.12304783 55.268363 132.12304783 C55.392113 131.54554783 55.515863 130.96804783 55.643363 130.37304783 C56.27485124 128.09969016 57.15694491 126.19769493 58.268363 124.12304783 C58.928363 124.12304783 59.588363 124.12304783 60.268363 124.12304783 C60.268363 122.80304783 60.268363 121.48304783 60.268363 120.12304783 C60.928363 120.12304783 61.588363 120.12304783 62.268363 120.12304783 C62.37535519 119.38699314 62.48234737 118.65093845 62.59258175 117.89257908 C63.3143392 114.93462514 64.30967457 113.2633075 66.080863 110.81054783 C68.04981866 107.98105097 69.79434322 105.23901368 71.268363 102.12304783 C72.70964045 99.09636517 74.3737151 96.38923375 76.268363 93.62304783 C79.01100204 89.61297711 81.2014558 85.51052811 83.268363 81.12304783 C83.93222315 79.78831492 84.59817134 78.45461283 85.268363 77.12304783 C85.928363 77.12304783 86.588363 77.12304783 87.268363 77.12304783 C87.350863 76.60742283 87.433363 76.09179783 87.518363 75.56054783 C88.58976525 72.07849051 90.40359904 69.25103898 92.268363 66.12304783 C91.278363 66.61804783 91.278363 66.61804783 90.268363 67.12304783 C88.58545314 67.21815651 86.89876704 67.24935061 85.21317196 67.25003147 C84.14327023 67.2528513 83.07336849 67.25567112 81.97104549 67.25857639 C80.7922633 67.25655216 79.6134811 67.25452793 78.39897823 67.25244236 C76.5428944 67.25507084 76.5428944 67.25507084 74.64931393 67.25775242 C71.25069193 67.26140681 67.85213059 67.26054004 64.45351195 67.25737333 C60.90254206 67.25484688 57.35157481 67.25718802 53.80060482 67.2587595 C47.83778574 67.26058012 41.87497903 67.25817744 35.91216183 67.25341892 C29.00934147 67.24797401 22.10655064 67.24974105 15.203731 67.25524533 C9.28525013 67.25977654 3.36677817 67.26042704 -2.55170387 67.25780666 C-6.0901926 67.25624425 -9.62866742 67.25604919 -13.16715527 67.25934315 C-17.1086642 67.26275585 -21.05013979 67.25803201 -24.99164677 67.25244236 C-26.17245319 67.25446659 -27.35325962 67.25649082 -28.56984806 67.25857639 C-29.63692997 67.25575657 -30.70401188 67.25293674 -31.8034296 67.25003147 C-32.73645185 67.24965445 -33.66947409 67.24927742 -34.63076973 67.24888897 C-36.731637 67.12304783 -36.731637 67.12304783 -37.731637 66.12304783 C-38.58637489 61.42198944 -36.43565699 58.51741863 -34.0206995 54.69726658 C-33.59530888 54.17777439 -33.16991825 53.6582822 -32.731637 53.12304783 C-32.071637 53.12304783 -31.411637 53.12304783 -30.731637 53.12304783 C-30.649137 52.44242283 -30.566637 51.76179783 -30.481637 51.06054783 C-29.52940891 47.33098779 -27.72539157 44.37001955 -25.731637 41.12304783 C-22.57854537 35.9271081 -19.48700874 30.72646602 -16.606637 25.37304783 C-14.50268819 21.46649704 -12.19321002 17.81540736 -9.731637 14.12304783 C-8.33386522 11.48656105 -7.0166415 8.81608917 -5.731637 6.12304783 C-5.071637 6.12304783 -4.411637 6.12304783 -3.731637 6.12304783 C-3.587262 5.31867283 -3.442887 4.51429783 -3.294137 3.68554783 C-2.52449195 0.17938705 -2.52449195 0.17938705 0 0 Z " fill="#FFFFFF" transform="translate(98.7316370010376,-0.1230478286743164)"/>
<path d="M0 0 C1.01437637 -0.00307663 2.02875275 -0.00615326 3.0738678 -0.00932312 C4.16767258 -0.0021376 5.26147736 0.00504791 6.38842773 0.01245117 C8.07294289 0.0131385 8.07294289 0.0131385 9.79148865 0.01383972 C12.16617896 0.01686191 14.54086729 0.02474721 16.91552734 0.03710938 C20.56086202 0.05536404 24.20594275 0.05761907 27.85131836 0.05737305 C30.15535703 0.06228827 32.45939396 0.06811661 34.76342773 0.07495117 C36.40717125 0.07662041 36.40717125 0.07662041 38.0841217 0.07832336 C39.09534592 0.08470322 40.10657013 0.09108307 41.1484375 0.09765625 C42.04095718 0.10146805 42.93347687 0.10527985 43.8530426 0.10920715 C46.00952148 0.24291992 46.00952148 0.24291992 48.00952148 1.24291992 C48.00952148 1.90291992 48.00952148 2.56291992 48.00952148 3.24291992 C48.66952148 3.24291992 49.32952148 3.24291992 50.00952148 3.24291992 C50.00952148 4.23291992 50.00952148 5.22291992 50.00952148 6.24291992 C50.66952148 6.24291992 51.32952148 6.24291992 52.00952148 6.24291992 C52.00952148 7.56291992 52.00952148 8.88291992 52.00952148 10.24291992 C52.66952148 10.24291992 53.32952148 10.24291992 54.00952148 10.24291992 C54.3356543 10.91838867 54.66178711 11.59385742 54.99780273 12.28979492 C55.43479492 13.18182617 55.87178711 14.07385742 56.32202148 14.99291992 C56.9659082 16.31549805 56.9659082 16.31549805 57.62280273 17.66479492 C58.91450213 20.2535516 58.91450213 20.2535516 60.67749023 22.32104492 C62.00952148 24.24291992 62.00952148 24.24291992 62.00952148 28.24291992 C62.66952148 28.24291992 63.32952148 28.24291992 64.00952148 28.24291992 C64.50452148 30.22291992 64.50452148 30.22291992 65.00952148 32.24291992 C65.66952148 32.24291992 66.32952148 32.24291992 67.00952148 32.24291992 C71.41726636 40.50487892 71.41726636 40.50487892 72.00952148 45.24291992 C72.66952148 45.24291992 73.32952148 45.24291992 74.00952148 45.24291992 C76.05121633 48.14840874 77.00952148 49.64434038 77.00952148 53.24291992 C77.66952148 53.24291992 78.32952148 53.24291992 79.00952148 53.24291992 C80.2487345 56.21703116 81.31010553 59.09554811 82.00952148 62.24291992 C82.66952148 62.24291992 83.32952148 62.24291992 84.00952148 62.24291992 C84.00952148 64.55291992 84.00952148 66.86291992 84.00952148 69.24291992 C56.61952148 69.24291992 29.22952148 69.24291992 1.00952148 69.24291992 C1.00952148 69.90291992 1.00952148 70.56291992 1.00952148 71.24291992 C1.66952148 71.24291992 2.32952148 71.24291992 3.00952148 71.24291992 C3.39624023 71.96737305 3.78295898 72.69182617 4.18139648 73.43823242 C7.52122357 79.71900145 7.52122357 79.71900145 11.38452148 85.68041992 C13.00952148 88.24291992 13.00952148 88.24291992 13.00952148 92.24291992 C13.66952148 92.24291992 14.32952148 92.24291992 15.00952148 92.24291992 C16.29858398 93.85229492 16.29858398 93.85229492 17.63452148 95.99291992 C18.30354492 97.03706055 18.30354492 97.03706055 18.98608398 98.10229492 C20.00952148 100.24291992 20.00952148 100.24291992 20.00952148 104.24291992 C20.66952148 104.24291992 21.32952148 104.24291992 22.00952148 104.24291992 C23.0146095 106.03173728 24.01344884 107.82406688 25.00952148 109.61791992 C25.56639648 110.6156543 26.12327148 111.61338867 26.69702148 112.64135742 C28.00952148 115.24291992 28.00952148 115.24291992 28.00952148 117.24291992 C28.66952148 117.24291992 29.32952148 117.24291992 30.00952148 117.24291992 C30.00952148 118.56291992 30.00952148 119.88291992 30.00952148 121.24291992 C30.66952148 121.24291992 31.32952148 121.24291992 32.00952148 121.24291992 C32.33952148 122.89291992 32.66952148 124.54291992 33.00952148 126.24291992 C33.66952148 126.24291992 34.32952148 126.24291992 35.00952148 126.24291992 C39.41726636 134.50487892 39.41726636 134.50487892 40.00952148 139.24291992 C40.66952148 139.24291992 41.32952148 139.24291992 42.00952148 139.24291992 C42.33952148 140.56291992 42.66952148 141.88291992 43.00952148 143.24291992 C43.66952148 143.24291992 44.32952148 143.24291992 45.00952148 143.24291992 C46.77414832 146.33101688 47.00952148 147.47604128 47.00952148 151.24291992 C47.99952148 151.57291992 48.98952148 151.90291992 50.00952148 152.24291992 C50.00952148 153.56291992 50.00952148 154.88291992 50.00952148 156.24291992 C50.66952148 156.24291992 51.32952148 156.24291992 52.00952148 156.24291992 C53.29858398 157.85229492 53.29858398 157.85229492 54.63452148 159.99291992 C55.08053711 160.68901367 55.52655273 161.38510742 55.98608398 162.10229492 C57.00952148 164.24291992 57.00952148 164.24291992 57.00952148 168.24291992 C57.66952148 168.24291992 58.32952148 168.24291992 59.00952148 168.24291992 C62.00952148 173.99291992 62.00952148 173.99291992 62.00952148 176.24291992 C62.66952148 176.24291992 63.32952148 176.24291992 64.00952148 176.24291992 C64.50452148 178.71791992 64.50452148 178.71791992 65.00952148 181.24291992 C38.93952148 181.24291992 12.86952148 181.24291992 -13.99047852 181.24291992 C-17.95047852 174.31291992 -17.95047852 174.31291992 -21.99047852 167.24291992 C-25.34358801 161.62964921 -25.34358801 161.62964921 -28.73852539 156.04174805 C-30.88491983 152.45770601 -32.53590505 149.48285063 -32.99047852 145.24291992 C-33.98047852 144.91291992 -34.97047852 144.58291992 -35.99047852 144.24291992 C-35.99047852 142.92291992 -35.99047852 141.60291992 -35.99047852 140.24291992 C-36.65047852 140.24291992 -37.31047852 140.24291992 -37.99047852 140.24291992 C-38.44422852 139.31479492 -38.89797852 138.38666992 -39.36547852 137.43041992 C-40.93264182 134.20370604 -40.93264182 134.20370604 -42.99047852 131.24291992 C-42.99047852 130.25291992 -42.99047852 129.26291992 -42.99047852 128.24291992 C-43.65047852 128.24291992 -44.31047852 128.24291992 -44.99047852 128.24291992 C-46.66438474 125.80180667 -47.91429801 123.43813246 -48.99047852 120.68041992 C-49.89296788 118.17924069 -49.89296788 118.17924069 -51.61547852 116.11791992 C-52.99047852 114.24291992 -52.99047852 114.24291992 -52.99047852 111.24291992 C-53.65047852 111.24291992 -54.31047852 111.24291992 -54.99047852 111.24291992 C-55.24442383 110.60483398 -55.49836914 109.96674805 -55.76000977 109.30932617 C-56.10418945 108.48303711 -56.44836914 107.65674805 -56.80297852 106.80541992 C-57.13942383 105.98170898 -57.47586914 105.15799805 -57.82250977 104.30932617 C-58.87450939 101.90919504 -58.87450939 101.90919504 -61.99047852 101.24291992 C-61.99047852 98.27291992 -61.99047852 95.30291992 -61.99047852 92.24291992 C-60.50547852 91.74791992 -60.50547852 91.74791992 -58.99047852 91.24291992 C-57.93035908 89.27412669 -56.94770868 87.26373916 -55.99047852 85.24291992 C-54.48679459 82.71252708 -52.94536791 80.20842879 -51.39282227 77.70776367 C-50.00954939 75.27644003 -48.96588334 72.86111181 -47.99047852 70.24291992 C-47.33047852 70.24291992 -46.67047852 70.24291992 -45.99047852 70.24291992 C-45.86672852 69.66541992 -45.74297852 69.08791992 -45.61547852 68.49291992 C-44.98399027 66.21956225 -44.10189661 64.31756703 -42.99047852 62.24291992 C-42.33047852 62.24291992 -41.67047852 62.24291992 -40.99047852 62.24291992 C-40.66047852 60.59291992 -40.33047852 58.94291992 -39.99047852 57.24291992 C-39.33047852 57.24291992 -38.67047852 57.24291992 -37.99047852 57.24291992 C-37.89508789 56.54295898 -37.79969727 55.84299805 -37.70141602 55.12182617 C-36.85705493 51.70262772 -35.42405103 49.198523 -33.61547852 46.18041992 C-32.70668945 44.64708008 -32.70668945 44.64708008 -31.77954102 43.08276367 C-29.99047852 40.24291992 -29.99047852 40.24291992 -28.30688477 38.01245117 C-26.87764988 36.09125414 -26.40807948 34.58148531 -25.99047852 32.24291992 C-25.33047852 32.24291992 -24.67047852 32.24291992 -23.99047852 32.24291992 C-23.72493164 31.54811523 -23.45938477 30.85331055 -23.18579102 30.13745117 C-21.88444776 26.98615916 -20.40344468 23.97291821 -18.86547852 20.93041992 C-18.32665039 19.86178711 -17.78782227 18.7931543 -17.23266602 17.69213867 C-16.82274414 16.88389648 -16.41282227 16.0756543 -15.99047852 15.24291992 C-15.33047852 15.24291992 -14.67047852 15.24291992 -13.99047852 15.24291992 C-13.80485352 14.40760742 -13.80485352 14.40760742 -13.61547852 13.55541992 C-12.93070996 11.02177628 -11.99914088 8.6637096 -10.99047852 6.24291992 C-10.33047852 6.24291992 -9.67047852 6.24291992 -8.99047852 6.24291992 C-8.88735352 5.62416992 -8.78422852 5.00541992 -8.67797852 4.36791992 C-7.26374896 -0.00333506 -3.99531964 -0.00637334 0 0 Z " fill="#FFFFFF" transform="translate(61.990478515625,71.757080078125)"/>
<path d="M0 0 C5.66192377 3.49707057 8.35070071 9.08937975 11 15 C11.671875 17.84765625 11.671875 17.84765625 12 20 C12.99 20.33 13.98 20.66 15 21 C16.5703125 23.58203125 16.5703125 23.58203125 18.125 26.8125 C18.64320313 27.87082031 19.16140625 28.92914063 19.6953125 30.01953125 C20.73132822 32.38623781 21.49976919 34.48054482 22 37 C22.66 37 23.32 37 24 37 C24.45890625 37.86882812 24.9178125 38.73765625 25.390625 39.6328125 C26.00421875 40.78523438 26.6178125 41.93765625 27.25 43.125 C27.85328125 44.26195312 28.4565625 45.39890625 29.078125 46.5703125 C30.94898723 50.03296867 30.94898723 50.03296867 33.234375 53.2421875 C35 56 35 56 35 59 C35.66 59 36.32 59 37 59 C40.57142857 66.28571429 40.57142857 66.28571429 39 71 C38.34 71 37.68 71 37 71 C37 72.32 37 73.64 37 75 C36.01 75.495 36.01 75.495 35 76 C33.94647157 78.30965848 32.94280904 80.6429774 32 83 C31.34 83 30.68 83 30 83 C29.67 84.65 29.34 86.3 29 88 C28.34 88 27.68 88 27 88 C26.8453125 89.07701172 26.8453125 89.07701172 26.6875 90.17578125 C25.92361661 93.31377948 24.71589125 95.4610478 23 98.1875 C20.89110597 101.53293588 20.89110597 101.53293588 19 105 C18.34 105 17.68 105 17 105 C16.9175 105.66 16.835 106.32 16.75 107 C15.75240209 110.99039163 13.92833317 114.38549643 12 118 C11.34 118 10.68 118 10 118 C9.87753906 118.57234375 9.75507813 119.1446875 9.62890625 119.734375 C8.97237132 122.09953191 8.06276488 124.07206797 6.9375 126.25 C6.57527344 126.95640625 6.21304688 127.6628125 5.83984375 128.390625 C5.56269531 128.92171875 5.28554688 129.4528125 5 130 C4.34 130 3.68 130 3 130 C2.67 131.65 2.34 133.3 2 135 C1.34 135 0.68 135 0 135 C0 136.32 0 137.64 0 139 C-0.66 139 -1.32 139 -2 139 C-3.07525194 141.65228812 -4.09456151 144.28368454 -5 147 C-5.66 147 -6.32 147 -7 147 C-7 148.32 -7 149.64 -7 151 C-22.08994205 151.07001704 -37.17987153 151.12295225 -52.26994133 151.15543652 C-59.27620746 151.17091905 -66.28237278 151.19203485 -73.28857422 151.22631836 C-80.04477456 151.25936284 -86.80084832 151.27683296 -93.55713272 151.28463173 C-96.14004291 151.29019234 -98.72294709 151.30105017 -101.30581284 151.31719017 C-104.91217393 151.33883788 -108.51809655 151.3419722 -112.12451172 151.34057617 C-113.20200684 151.351362 -114.27950195 151.36214783 -115.38964844 151.3732605 C-116.36843964 151.36913651 -117.34723083 151.36501251 -118.35568237 151.36076355 C-119.20926268 151.36352893 -120.06284298 151.36629431 -120.94228935 151.36914349 C-121.62133387 151.24732614 -122.30037838 151.12550879 -123 151 C-125 148 -125 148 -125 145 C-125.66 145 -126.32 145 -127 145 C-127.53625 143.88625 -128.0725 142.7725 -128.625 141.625 C-131.49211534 135.88060224 -134.87993556 130.45095663 -138.23828125 124.984375 C-140.21526447 121.67742125 -141.53407626 118.84387082 -142 115 C-142.66 115 -143.32 115 -144 115 C-144.495 112.525 -144.495 112.525 -145 110 C-145.66 110 -146.32 110 -147 110 C-147 107.69 -147 105.38 -147 103 C-146.34 103 -145.68 103 -145 103 C-144.82597656 102.14921875 -144.82597656 102.14921875 -144.6484375 101.28125 C-143.93435341 98.76905054 -142.90884498 96.77201658 -141.625 94.5 C-141.20476562 93.7471875 -140.78453125 92.994375 -140.3515625 92.21875 C-139 90 -139 90 -137.37890625 87.859375 C-135.91751361 85.88877189 -135.42752096 84.39411739 -135 82 C-134.34 82 -133.68 82 -133 82 C-132.67 80.35 -132.34 78.7 -132 77 C-131.34 77 -130.68 77 -130 77 C-129.87625 76.236875 -129.7525 75.47375 -129.625 74.6875 C-129 72 -129 72 -127 69 C-126.34 69 -125.68 69 -125 69 C-124.88140625 68.26394531 -124.7628125 67.52789062 -124.640625 66.76953125 C-124.00545823 64.02359688 -123.15255243 62.11533601 -121.75 59.6875 C-121.30398437 58.91277344 -120.85796875 58.13804687 -120.3984375 57.33984375 C-118.6793849 54.46355184 -116.92892465 51.6118517 -115.1171875 48.79296875 C-113.86941179 46.84701315 -113.86941179 46.84701315 -112.5 44.0625 C-111 42 -111 42 -108.3125 41.1875 C-107.549375 41.125625 -106.78625 41.06375 -106 41 C-103 45.625 -103 45.625 -103 49 C-102.34 49 -101.68 49 -101 49 C-100.54625 50.134375 -100.0925 51.26875 -99.625 52.4375 C-98.42904194 56.04721692 -98.42904194 56.04721692 -96 57 C-95.27069674 58.69065756 -94.54650068 60.38394959 -93.86328125 62.09375 C-92.93154308 64.29937195 -92.93154308 64.29937195 -90.8125 67.1875 C-89 70 -89 70 -89 74 C-88.01 74.33 -87.02 74.66 -86 75 C-84.61328125 76.9609375 -84.61328125 76.9609375 -83.3125 79.375 C-82.87550781 80.16648437 -82.43851562 80.95796875 -81.98828125 81.7734375 C-81 84 -81 84 -81 87 C-80.34 87 -79.68 87 -79 87 C-79 88.32 -79 89.64 -79 91 C-78.34 91 -77.68 91 -77 91 C-76.18162558 92.41328129 -75.37053781 93.83078346 -74.5625 95.25 C-74.11003906 96.03890625 -73.65757812 96.8278125 -73.19140625 97.640625 C-72.10688398 99.78833468 -71.46851284 101.65205061 -71 104 C-70.34 104 -69.68 104 -69 104 C-68.71125 104.78375 -68.4225 105.5675 -68.125 106.375 C-67.15087746 109.09671632 -67.15087746 109.09671632 -65 111 C-63.72593712 108.96028888 -62.45570798 106.91834736 -61.1875 104.875 C-60.83107422 104.30523437 -60.47464844 103.73546875 -60.10742188 103.1484375 C-57.85964983 99.51900742 -55.85662261 95.84277704 -54 92 C-53 90 -52 88 -51 86 C-50.34 86 -49.68 86 -49 86 C-48.88527344 85.4328125 -48.77054687 84.865625 -48.65234375 84.28125 C-47.92962283 81.7538906 -46.87506245 79.77458894 -45.5625 77.5 C-43.95673049 74.70068838 -42.41704403 71.89999709 -41 69 C-40.34 69 -39.68 69 -39 69 C-38.67 67.35 -38.34 65.7 -38 64 C-37.34 64 -36.68 64 -36 64 C-35.90203125 63.29488281 -35.8040625 62.58976562 -35.703125 61.86328125 C-34.88356085 58.52583389 -33.52291134 56.12822033 -31.75 53.1875 C-31.11707031 52.13046875 -30.48414063 51.0734375 -29.83203125 49.984375 C-28.38326915 47.62434463 -26.92072938 45.27588117 -25.4375 42.9375 C-22.94324694 39.00049273 -20.75656211 34.91627835 -18.55078125 30.8125 C-16.57755825 27.23385879 -14.45514074 23.75853269 -12.296875 20.2890625 C-10.95578603 17.92195968 -9.95330883 15.5451547 -9 13 C-8.34 13 -7.68 13 -7 13 C-6.814375 12.13375 -6.814375 12.13375 -6.625 11.25 C-5.99351176 8.97664233 -5.11141809 7.0746471 -4 5 C-3.34 5 -2.68 5 -2 5 C-1.855625 4.360625 -1.71125 3.72125 -1.5625 3.0625 C-1 1 -1 1 0 0 Z " fill="#FFFFFF" transform="translate(257,102)"/>
<path d="M0 0 C0.7448616 -0.00817749 1.48972321 -0.01635498 2.25715637 -0.02478027 C4.73596386 -0.04969915 7.21471344 -0.06617494 9.69360352 -0.08056641 C10.5407448 -0.08589008 11.38788609 -0.09121376 12.26069832 -0.09669876 C16.75256573 -0.12347025 21.24440508 -0.14282424 25.73632812 -0.15722656 C30.3597826 -0.17380062 34.98251394 -0.21850488 39.60569668 -0.26959801 C43.17213168 -0.3034094 46.73839892 -0.31481966 50.30497932 -0.32045364 C52.00770597 -0.32713782 53.71042269 -0.34228549 55.41299248 -0.36634445 C64.82645197 -0.49167492 72.87863426 -0.43914451 80.88500977 5.19287109 C81.63008286 5.70137604 82.37515594 6.20988098 83.14280701 6.73379517 C83.71773392 7.21529022 84.29266083 7.69678528 84.88500977 8.19287109 C84.88500977 8.85287109 84.88500977 9.51287109 84.88500977 10.19287109 C85.54500977 10.19287109 86.20500977 10.19287109 86.88500977 10.19287109 C92.46453856 16.05852957 95.81941866 23.13340037 96.88500977 31.19287109 C96.7927216 34.23838042 96.33968848 37.18381756 95.88500977 40.19287109 C95.75845628 41.77608102 95.63343015 43.35941385 95.51000977 44.94287109 C95.10202181 48.64066673 94.27125692 51.23392463 91.88500977 54.19287109 C91.22500977 54.19287109 90.56500977 54.19287109 89.88500977 54.19287109 C89.69938477 54.91474609 89.51375977 55.63662109 89.32250977 56.38037109 C87.57579961 59.79784748 85.61934633 61.05266044 82.44360352 63.07958984 C80.72451182 64.12396055 80.72451182 64.12396055 79.88500977 66.19287109 C81.06063477 66.56412109 81.06063477 66.56412109 82.26000977 66.94287109 C85.20818085 68.34676208 85.78748747 69.19962846 86.88500977 72.19287109 C87.54500977 72.19287109 88.20500977 72.19287109 88.88500977 72.19287109 C89.21500977 73.84287109 89.54500977 75.49287109 89.88500977 77.19287109 C90.54500977 77.19287109 91.20500977 77.19287109 91.88500977 77.19287109 C94.86781629 85.20330118 95.32131282 93.03762869 95.50585938 101.49047852 C95.66234463 107.29342824 96.45800583 112.5721052 97.88500977 118.19287109 C98.22487643 119.85821777 98.56203463 121.52416622 98.88500977 123.19287109 C96.31435387 124.47819904 94.45568763 124.32233848 91.58032227 124.32568359 C90.52200195 124.32697266 89.46368164 124.32826172 88.37329102 124.32958984 C87.2634082 124.32572266 86.15352539 124.32185547 85.01000977 124.31787109 C83.90786133 124.32173828 82.80571289 124.32560547 81.67016602 124.32958984 C80.60926758 124.32830078 79.54836914 124.32701172 78.45532227 124.32568359 C77.48353027 124.32455566 76.51173828 124.32342773 75.51049805 124.32226562 C73.11835045 124.20437105 71.13625803 124.00270492 68.88500977 123.19287109 C67.34951746 120.12188648 67.44232806 116.89706733 67.16625977 113.50537109 C67.01364929 111.17018654 67.01364929 111.17018654 65.88500977 109.19287109 C65.72750203 106.66983058 65.60851179 104.15563076 65.51000977 101.63037109 C65.19933133 95.30735883 64.2908929 90.10733379 61.88500977 84.19287109 C61.55500977 83.20287109 61.22500977 82.21287109 60.88500977 81.19287109 C60.22500977 81.19287109 59.56500977 81.19287109 58.88500977 81.19287109 C58.88500977 80.53287109 58.88500977 79.87287109 58.88500977 79.19287109 C58.10125977 79.04849609 57.31750977 78.90412109 56.51000977 78.75537109 C53.88500977 78.19287109 53.88500977 78.19287109 51.88500977 77.19287109 C49.70826193 77.03817742 47.52717496 76.94285003 45.34594727 76.87646484 C44.17338379 76.83835693 43.00082031 76.80024902 41.79272461 76.76098633 C40.29692871 76.7178833 38.80113281 76.67478027 37.26000977 76.63037109 C32.51625977 76.48599609 27.77250977 76.34162109 22.88500977 76.19287109 C22.88500977 91.37287109 22.88500977 106.55287109 22.88500977 122.19287109 C19.04040483 124.11517356 17.69234525 124.44843984 13.60375977 124.45849609 C12.59700195 124.46107422 11.59024414 124.46365234 10.55297852 124.46630859 C9.50754883 124.45857422 8.46211914 124.45083984 7.38500977 124.44287109 C5.81686523 124.45447266 5.81686523 124.45447266 4.21704102 124.46630859 C2.7069043 124.46244141 2.7069043 124.46244141 1.16625977 124.45849609 C0.2490918 124.45624023 -0.66807617 124.45398438 -1.61303711 124.45166016 C-4.24599851 124.17932028 -5.80571763 123.4251814 -8.11499023 122.19287109 C-8.13831954 106.43370366 -8.15596957 90.67454086 -8.16680241 74.91536045 C-8.1719653 67.59859707 -8.17900786 60.2818444 -8.19042969 52.96508789 C-8.20037674 46.59004091 -8.20684371 40.21500169 -8.20907873 33.83994716 C-8.2103858 30.46239095 -8.21347142 27.08485693 -8.22072029 23.70730782 C-8.22792636 19.94279766 -8.22898136 16.17833424 -8.22851562 12.41381836 C-8.23390854 10.72205223 -8.23390854 10.72205223 -8.2394104 8.99610901 C-8.23803574 7.9766217 -8.23666107 6.9571344 -8.23524475 5.90675354 C-8.23616654 5.01537972 -8.23708834 4.12400591 -8.23803806 3.20562077 C-7.95933134 -1.35331272 -3.57611874 0.02145489 0 0 Z M22.88500977 24.19287109 C21.47588881 27.01111301 21.77317424 29.36538391 21.78735352 32.51318359 C21.79057617 33.77001953 21.79379883 35.02685547 21.79711914 36.32177734 C21.80549805 37.64048828 21.81387695 38.95919922 21.82250977 40.31787109 C21.82752487 41.65771321 21.83208776 42.9975571 21.83618164 44.33740234 C21.84799891 47.62260316 21.86447359 50.90771507 21.88500977 54.19287109 C26.4748377 54.24251976 31.0645073 54.27870782 35.65454102 54.30273438 C37.21413905 54.31275667 38.77371847 54.32637815 40.33325195 54.34375 C42.58232231 54.3681652 44.83114299 54.37939199 47.08032227 54.38818359 C48.11662277 54.40366745 48.11662277 54.40366745 49.17385864 54.41946411 C53.45908323 54.42044458 56.93738212 53.87538323 60.88500977 52.19287109 C65.54776227 47.53011859 65.91029827 43.51288194 66.13500977 37.19287109 C66.09218412 33.09384539 65.72955477 30.35347666 62.88500977 27.19287109 C61.89500977 27.19287109 60.90500977 27.19287109 59.88500977 27.19287109 C59.88500977 26.53287109 59.88500977 25.87287109 59.88500977 25.19287109 C56.76546849 23.63310045 53.45541593 24.07182983 50.03344727 24.09521484 C48.87239975 24.09733727 48.87239975 24.09733727 47.68789673 24.09950256 C45.21189535 24.10510706 42.73598388 24.11766026 40.26000977 24.13037109 C38.58292774 24.13538552 36.90584429 24.13994852 35.22875977 24.14404297 C31.11414171 24.15507794 26.99959099 24.17234555 22.88500977 24.19287109 Z " fill="#FFFFFF" transform="translate(842.114990234375,128.80712890625)"/>
<path d="M0 0 C1.30582031 -0.02900391 2.61164063 -0.05800781 3.95703125 -0.08789062 C5.20613281 -0.09626953 6.45523437 -0.10464844 7.7421875 -0.11328125 C9.46864502 -0.13515503 9.46864502 -0.13515503 11.22998047 -0.1574707 C14.125 0.3125 14.125 0.3125 15.96142578 2.13989258 C17.54469478 5.09614748 18.2742931 8.06917994 19.125 11.3125 C19.5738422 12.66984207 20.0328711 14.0238422 20.5 15.375 C22.22256342 20.45569211 23.64072263 25.61344108 25.0625 30.78515625 C26.01003813 33.93084349 27.13387591 36.95519587 28.30859375 40.02075195 C30.35410053 45.76272927 31.87049626 51.69140482 33.51953125 57.55664062 C35.36374895 64.03886202 35.36374895 64.03886202 37.80078125 70.3125 C39.27885522 73.66105696 39.75495527 76.6860616 40.125 80.3125 C40.30675781 79.755625 40.48851562 79.19875 40.67578125 78.625 C41.89599923 74.92054337 43.14533514 71.26033595 44.5625 67.625 C46.42263145 62.75554595 47.74446968 57.73445184 49.1484375 52.71875 C50.1563669 49.20309226 51.27956016 45.74775888 52.46484375 42.2890625 C53.45512724 39.32407168 54.29175528 36.32500015 55.125 33.3125 C55.785 33.3125 56.445 33.3125 57.125 33.3125 C57.0425 32.549375 56.96 31.78625 56.875 31 C57.17514961 26.57279321 58.52697668 23.10585997 60.109375 18.98828125 C61.78170244 14.58234166 62.93058808 10.05369546 64.125 5.5 C65.125 2.3125 65.125 2.3125 67.125 0.3125 C70.01416016 0.08544922 70.01416016 0.08544922 73.6640625 0.1171875 C75.61699219 0.12685547 75.61699219 0.12685547 77.609375 0.13671875 C78.98958595 0.15343071 80.36979429 0.17036061 81.75 0.1875 C83.13801452 0.19752994 84.52603589 0.20665577 85.9140625 0.21484375 C89.31788026 0.23848137 92.72135506 0.27143133 96.125 0.3125 C96.38097729 8.75092386 96.38097729 8.75092386 94.3125 12.5625 C92.58264817 16.08896987 91.51219957 19.42180738 90.625 23.25 C89.5247966 27.96005995 88.04071022 32.2276964 86.1640625 36.67578125 C84.54086474 40.79479813 83.33439935 45.03152287 82.0625 49.26953125 C80.90493915 53.02678084 79.55291711 56.64958221 78.125 60.3125 C76.64874882 64.12122805 75.24808111 67.88171613 74.125 71.8125 C73.38604084 74.39885705 72.58662745 76.81226863 71.625 79.3125 C70.23697919 82.9282942 69.17215845 86.58199803 68.125 90.3125 C67.37935586 92.58590414 66.61185283 94.85128414 65.84375 97.1171875 C65.21431566 99.0396989 64.66295522 100.98741234 64.125 102.9375 C63.05653475 106.54357022 61.60560326 109.85775907 60.125 113.3125 C59.6609375 115.1378125 59.6609375 115.1378125 59.1875 117 C58.01092213 120.66815454 57.12407318 121.95865707 54.125 124.3125 C51.25585938 124.7824707 51.25585938 124.7824707 47.96875 124.73828125 C46.78152344 124.72990234 45.59429687 124.72152344 44.37109375 124.71289062 C43.13488281 124.68388672 41.89867187 124.65488281 40.625 124.625 C39.38878906 124.61533203 38.15257812 124.60566406 36.87890625 124.59570312 C26.1190544 124.46135101 26.1190544 124.46135101 23.125 123.3125 C22.0625 120.75 22.0625 120.75 21.125 117.3125 C20.4071907 115.41010923 19.65856448 113.52177604 18.90625 111.6328125 C17.99742108 108.93359062 17.34004049 106.19208624 16.66503906 103.42675781 C15.8205006 100.1203821 14.78785699 96.87449047 13.75 93.625 C13.3070074 92.22404819 12.86430314 90.82300517 12.421875 89.421875 C12.20337891 88.73158203 11.98488281 88.04128906 11.75976562 87.33007812 C10.82230665 84.35040083 9.91172032 81.36263736 9 78.375 C6.760603 71.09472929 4.34461226 63.91145314 1.75 56.75 C-1.28089394 48.30161001 -3.91307473 39.74195941 -6.53222656 31.15869141 C-7.18515473 29.02152961 -7.84253287 26.885769 -8.5 24.75 C-8.88414062 23.49058594 -9.26828125 22.23117188 -9.6640625 20.93359375 C-10.83107862 17.26400412 -10.83107862 17.26400412 -12.4765625 13.65234375 C-13.69478016 10.7429133 -14.34558428 8.54331319 -14.625 5.4375 C-14.70234375 4.67695313 -14.7796875 3.91640625 -14.859375 3.1328125 C-14.86453125 2.53210938 -14.8696875 1.93140625 -14.875 1.3125 C-12.10133223 -1.46116777 -3.73560406 0.02749463 0 0 Z " fill="#FFFFFF" transform="translate(362.875,128.6875)"/>
<path d="M0 0 C1.12148438 0.00322266 2.24296875 0.00644531 3.3984375 0.00976562 C4.5740625 0.01814453 5.7496875 0.02652344 6.9609375 0.03515625 C8.14429688 0.03966797 9.32765625 0.04417969 10.546875 0.04882812 C13.47661257 0.06064158 16.40625022 0.07711367 19.3359375 0.09765625 C21.05026247 3.82474617 21.58145763 6.71494659 21.56298828 10.8059082 C21.56283722 11.92669266 21.56268616 13.04747711 21.56253052 14.20222473 C21.55220795 15.40134995 21.54188538 16.60047516 21.53125 17.8359375 C21.5284201 19.07184128 21.52559021 20.30774506 21.52267456 21.58110046 C21.51338968 24.85430622 21.49544383 28.12731269 21.4732666 31.40045166 C21.45274567 34.74546473 21.44383018 38.09048651 21.43359375 41.43554688 C21.41155545 47.98966099 21.37809411 54.54364233 21.3359375 61.09765625 C21.6659375 60.43765625 21.9959375 59.77765625 22.3359375 59.09765625 C22.9959375 59.09765625 23.6559375 59.09765625 24.3359375 59.09765625 C24.57183594 58.53304687 24.80773437 57.9684375 25.05078125 57.38671875 C26.62828692 54.57693662 28.57645036 52.70146574 30.8984375 50.47265625 C34.02635804 47.58694944 34.02635804 47.58694944 36.3359375 44.09765625 C36.9959375 44.09765625 37.6559375 44.09765625 38.3359375 44.09765625 C38.59947021 43.5245874 38.86300293 42.95151855 39.13452148 42.36108398 C41.43946732 38.01864285 44.17839802 34.76720157 48.3359375 32.09765625 C53.19123429 31.11409336 57.84321296 31.29128487 62.7734375 31.53515625 C64.06443359 31.56287109 65.35542969 31.59058594 66.68554688 31.61914062 C76.1105418 31.87226055 76.1105418 31.87226055 77.3359375 33.09765625 C77.37657582 34.7638274 77.3786585 36.4315372 77.3359375 38.09765625 C75.8509375 38.59265625 75.8509375 38.59265625 74.3359375 39.09765625 C74.3359375 39.75765625 74.3359375 40.41765625 74.3359375 41.09765625 C72.83984375 42.53515625 72.83984375 42.53515625 70.8984375 44.09765625 C68.18405512 46.24290669 68.18405512 46.24290669 66.3359375 49.09765625 C65.3459375 49.09765625 64.3559375 49.09765625 63.3359375 49.09765625 C63.0059375 50.08765625 62.6759375 51.07765625 62.3359375 52.09765625 C61.6759375 52.09765625 61.0159375 52.09765625 60.3359375 52.09765625 C60.3359375 52.75765625 60.3359375 53.41765625 60.3359375 54.09765625 C59.6759375 54.09765625 59.0159375 54.09765625 58.3359375 54.09765625 C58.0059375 55.08765625 57.6759375 56.07765625 57.3359375 57.09765625 C56.6759375 57.09765625 56.0159375 57.09765625 55.3359375 57.09765625 C55.3359375 57.75765625 55.3359375 58.41765625 55.3359375 59.09765625 C54.6759375 59.09765625 54.0159375 59.09765625 53.3359375 59.09765625 C53.0059375 60.08765625 52.6759375 61.07765625 52.3359375 62.09765625 C51.6759375 62.09765625 51.0159375 62.09765625 50.3359375 62.09765625 C50.3359375 62.75765625 50.3359375 63.41765625 50.3359375 64.09765625 C49.6759375 64.09765625 49.0159375 64.09765625 48.3359375 64.09765625 C48.3359375 66.40765625 48.3359375 68.71765625 48.3359375 71.09765625 C48.9959375 71.09765625 49.6559375 71.09765625 50.3359375 71.09765625 C50.8721875 72.08765625 51.4084375 73.07765625 51.9609375 74.09765625 C54.03943098 77.77614112 56.51211394 81.01866669 59.1640625 84.30078125 C60.3359375 86.09765625 60.3359375 86.09765625 60.3359375 89.09765625 C60.9959375 89.09765625 61.6559375 89.09765625 62.3359375 89.09765625 C63.84375 91.21484375 63.84375 91.21484375 65.4609375 93.97265625 C65.99976563 94.87757813 66.53859375 95.7825 67.09375 96.71484375 C68.3359375 99.09765625 68.3359375 99.09765625 68.3359375 101.09765625 C68.9959375 101.09765625 69.6559375 101.09765625 70.3359375 101.09765625 C70.3359375 102.08765625 70.3359375 103.07765625 70.3359375 104.09765625 C70.9959375 104.09765625 71.6559375 104.09765625 72.3359375 104.09765625 C74.0625 106.3984375 74.0625 106.3984375 75.9609375 109.41015625 C76.59257813 110.39628906 77.22421875 111.38242188 77.875 112.3984375 C79.3359375 115.09765625 79.3359375 115.09765625 79.3359375 118.09765625 C80.8209375 118.59265625 80.8209375 118.59265625 82.3359375 119.09765625 C81.4609375 122.97265625 81.4609375 122.97265625 80.3359375 124.09765625 C75.92597794 124.38045583 71.50387607 124.32953137 67.0859375 124.34765625 C65.84457031 124.36828125 64.60320312 124.38890625 63.32421875 124.41015625 C62.12667969 124.4153125 60.92914062 124.42046875 59.6953125 124.42578125 C58.59670898 124.43512695 57.49810547 124.44447266 56.36621094 124.45410156 C52.94246502 124.05137283 51.09684264 123.12493283 48.3359375 121.09765625 C46.75390625 118.90625 46.75390625 118.90625 45.5234375 116.53515625 C45.10449219 115.75011719 44.68554688 114.96507812 44.25390625 114.15625 C43.3359375 112.09765625 43.3359375 112.09765625 43.3359375 110.09765625 C42.6759375 110.09765625 42.0159375 110.09765625 41.3359375 110.09765625 C40.49479579 108.66471127 39.66328063 107.2261122 38.8359375 105.78515625 C38.371875 104.98464844 37.9078125 104.18414062 37.4296875 103.359375 C36.3359375 101.09765625 36.3359375 101.09765625 36.3359375 98.09765625 C35.6759375 98.09765625 35.0159375 98.09765625 34.3359375 98.09765625 C32.29424265 95.19216743 31.3359375 93.69623579 31.3359375 90.09765625 C30.6759375 90.09765625 30.0159375 90.09765625 29.3359375 90.09765625 C29.0059375 89.10765625 28.6759375 88.11765625 28.3359375 87.09765625 C27.3459375 86.76765625 26.3559375 86.43765625 25.3359375 86.09765625 C25.0471875 86.71640625 24.7584375 87.33515625 24.4609375 87.97265625 C23.3359375 90.09765625 23.3359375 90.09765625 21.3359375 92.09765625 C21.09059966 94.73586186 21.09059966 94.73586186 21.2109375 97.8046875 C21.22640625 98.94873047 21.241875 100.09277344 21.2578125 101.27148438 C21.30964434 103.68555229 21.36172522 106.09961487 21.4140625 108.51367188 C21.42953125 109.66158203 21.445 110.80949219 21.4609375 111.9921875 C21.48414063 113.04253174 21.50734375 114.09287598 21.53125 115.17504883 C21.32461254 118.26712008 20.80891885 120.37453075 19.3359375 123.09765625 C15.03531731 124.53119631 10.9028834 124.28196839 6.3984375 124.28515625 C5.49158203 124.29740234 4.58472656 124.30964844 3.65039062 124.32226562 C2.77447266 124.32419922 1.89855469 124.32613281 0.99609375 124.328125 C-0.20067993 124.33428833 -0.20067993 124.33428833 -1.42163086 124.34057617 C-3.6640625 124.09765625 -3.6640625 124.09765625 -7.6640625 122.09765625 C-7.6640625 82.16765625 -7.6640625 42.23765625 -7.6640625 1.09765625 C-5.00228029 -0.23323485 -2.97666854 -0.01503368 0 0 Z " fill="#FFFFFF" transform="translate(595.6640625,128.90234375)"/>
<path d="M0 0 C1.47146484 -0.01160156 1.47146484 -0.01160156 2.97265625 -0.0234375 C11.14032553 -0.00168605 18.54511825 0.88023133 25.875 4.6875 C26.68710937 5.09871094 27.49921875 5.50992188 28.3359375 5.93359375 C30.42225939 7.20271014 31.94663057 8.37092408 33.5 10.25 C33.5 10.91 33.5 11.57 33.5 12.25 C34.16 12.25 34.82 12.25 35.5 12.25 C37.94197304 16.55944592 38.87753258 19.66107855 38.90063477 24.60327148 C38.92064293 26.460662 38.92064293 26.460662 38.9410553 28.35557556 C38.94119053 29.69408162 38.94130706 31.03258769 38.94140625 32.37109375 C38.9531932 33.75823857 38.96656063 35.14537076 38.98143005 36.53248596 C39.0175152 40.17443888 39.03778396 43.81628001 39.05297852 47.45837402 C39.07785816 53.2830827 39.11775678 59.10754421 39.17487907 64.932024 C39.19108977 66.95656888 39.19497484 68.98087642 39.19789124 71.00547791 C39.24846413 77.16864579 39.48347473 82.42283882 41.5 88.25 C41.25 91.125 41.25 91.125 40.5 93.25 C37.68869668 94.65565166 35.34640994 94.38502539 32.2019043 94.39526367 C31.23327957 94.40030159 31.23327957 94.40030159 30.24508667 94.40544128 C28.10477792 94.41495976 25.96454737 94.41689504 23.82421875 94.41796875 C22.33689847 94.42118144 20.84957852 94.42454552 19.36225891 94.42805481 C16.24092883 94.43404883 13.11962645 94.4358945 9.99829102 94.43530273 C6.00351325 94.43520126 2.00891382 94.44883674 -1.98582172 94.46607494 C-5.05965486 94.47720979 -8.13344514 94.47922146 -11.20729637 94.47869301 C-12.67965495 94.47987153 -14.1520147 94.48428614 -15.62435341 94.49202538 C-17.68760153 94.50185245 -19.75046605 94.4989364 -21.8137207 94.49291992 C-22.98683304 94.49434494 -24.15994537 94.49576996 -25.36860657 94.49723816 C-30.95648282 94.05604919 -35.11010645 91.66436165 -39.5 88.25 C-40.6875 85.5625 -40.6875 85.5625 -41.5 83.25 C-42.49 82.92 -43.48 82.59 -44.5 82.25 C-47.64640757 75.12918287 -47.74969355 65.97181508 -45.77734375 58.51953125 C-43.19080274 52.26785117 -39.05073228 48.04840256 -33.5 44.25 C-30.23883446 43.00210502 -26.86970779 42.15920469 -23.5 41.25 C-22.2625 40.87875 -21.025 40.5075 -19.75 40.125 C-14.71743536 38.86945295 -9.53967491 38.7642567 -4.37890625 38.49609375 C-1.60567389 38.57044467 -1.60567389 38.57044467 -0.5 37.25 C1.3871875 37.0953125 1.3871875 37.0953125 3.3125 36.9375 C6.24245833 36.58442948 7.50046304 36.24970636 10.0625 34.625 C12.12885969 31.21101443 11.39658843 29.04325875 10.5 25.25 C10.005 23.765 10.005 23.765 9.5 22.25 C2.2183172 19.12700256 -5.04330438 20.61884783 -12.5 22.25 C-12.64695312 22.86488281 -12.79390625 23.47976562 -12.9453125 24.11328125 C-13.28175781 25.32564453 -13.28175781 25.32564453 -13.625 26.5625 C-13.83382812 27.36300781 -14.04265625 28.16351563 -14.2578125 28.98828125 C-16.10036789 32.34312266 -17.91085516 32.97850923 -21.5 34.25 C-24.72021254 34.67900506 -27.87989943 34.71495854 -31.125 34.6875 C-31.970625 34.70748047 -32.81625 34.72746094 -33.6875 34.74804688 C-37.59066851 34.74496867 -39.82130949 34.70414611 -43.12109375 32.49609375 C-44.5 30.25 -44.5 30.25 -44.55859375 28.1015625 C-41.15251756 15.8911007 -41.15251756 15.8911007 -36.5 12.25 C-35.84 12.25 -35.18 12.25 -34.5 12.25 C-34.5 11.59 -34.5 10.93 -34.5 10.25 C-23.97089939 1.86969543 -13.14844226 -0.10366709 0 0 Z M-0.5 55.25 C-2.01762925 55.44368345 -3.53903462 55.60941175 -5.0625 55.75 C-9.52586476 56.19101389 -13.44695761 56.97569783 -17.3125 59.375 C-19.26655682 62.46035287 -19.74988172 65.67061325 -19.5 69.25 C-18.01525187 71.97203824 -16.68455806 74.06544194 -14.5 76.25 C-11.92291444 76.40456568 -9.39107479 76.48172843 -6.8125 76.5 C-6.10416016 76.520625 -5.39582031 76.54125 -4.66601562 76.5625 C0.09932341 76.59770103 3.43110237 75.98681805 7.5 73.25 C9.00368441 71.14833535 9.00368441 71.14833535 9.8125 68.75 C10.11800781 67.9765625 10.42351563 67.203125 10.73828125 66.40625 C11.90136796 63.11381994 12.61963129 60.54750858 12.5625 57.0625 C12.541875 55.804375 12.52125 54.54625 12.5 53.25 C7.73239555 53.01743393 4.06118359 53.93576066 -0.5 55.25 Z " fill="#FFFFFF" transform="translate(991.5,158.75)"/>
<path d="M0 0 C0 0.66 0 1.32 0 2 C0.99 2 1.98 2 3 2 C5.5 4.3125 5.5 4.3125 8 7 C8.598125 7.556875 9.19625 8.11375 9.8125 8.6875 C11 10 11 10 11 12 C11.66 12 12.32 12 13 12 C13.967407 13.68231469 14.92347446 15.37115197 15.875 17.0625 C16.40867187 18.00222656 16.94234375 18.94195312 17.4921875 19.91015625 C22.73920102 30.66245598 21 37.86090778 21 51 C0.54 51 -19.92 51 -41 51 C-40.01 53.97 -39.02 56.94 -38 60 C-37.5359375 61.7325 -37.5359375 61.7325 -37.0625 63.5 C-36.27871604 66.16072646 -36.27871604 66.16072646 -34 66.8125 C-33.01 66.9053125 -33.01 66.9053125 -32 67 C-31.01 67.495 -31.01 67.495 -30 68 C-27.34164263 68.12438451 -24.72094771 68.18516188 -22.0625 68.1875 C-21.33353516 68.19974609 -20.60457031 68.21199219 -19.85351562 68.22460938 C-16.0286609 68.23512685 -14.25643436 68.17095624 -11 66 C-10.01 66 -9.02 66 -8 66 C-7.71125 65.401875 -7.4225 64.80375 -7.125 64.1875 C-6 62 -6 62 -4 59 C3.45506224 57.69832247 13.23671404 56.01139546 20 60 C18.21224712 66.87597263 15.87282398 72.65561241 11 78 C10.34 78 9.68 78 9 78 C9 78.66 9 79.32 9 80 C7.49609375 81.40234375 7.49609375 81.40234375 5.4375 82.9375 C4.77621094 83.44152344 4.11492187 83.94554687 3.43359375 84.46484375 C-2.27762461 88.06758663 -6.7101655 89.37920717 -13.47265625 89.36328125 C-14.15879501 89.36377975 -14.84493378 89.36427826 -15.55186462 89.36479187 C-16.99139324 89.36246775 -18.43092721 89.35283839 -19.87036133 89.33618164 C-22.06043186 89.31252234 -24.2492865 89.3156414 -26.43945312 89.32226562 C-38.58114539 89.27414293 -47.07822446 86.84637225 -56 78.3125 C-58 76 -58 76 -59 73 C-59.99 72.67 -60.98 72.34 -62 72 C-63.1328125 69.75 -63.1328125 69.75 -64.125 67 C-65.13739943 63.74148734 -65.13739943 63.74148734 -67 61 C-70.58046691 49.47455542 -70.93507194 34.10097212 -65.6015625 23.12109375 C-63.55557389 19.29359799 -61.40754393 15.61131589 -59 12 C-58.34 12 -57.68 12 -57 12 C-56.76796875 11.24976563 -56.5359375 10.49953125 -56.296875 9.7265625 C-53.38027263 3.59466957 -45.09799731 -0.48126198 -39 -3 C-26.80122938 -7.29216003 -11.27024946 -6.35757662 0 0 Z M-36.734375 21.42578125 C-39.32268399 24.37188589 -40.7755776 27.07260793 -41 31 C-39.85411899 32.37317088 -39.85411899 32.37317088 -36.76538086 32.11352539 C-35.33185874 32.11336631 -33.89833088 32.10767407 -32.46484375 32.09765625 C-31.71159317 32.0962413 -30.95834259 32.09482635 -30.18226624 32.09336853 C-27.7673044 32.08775376 -25.35243399 32.07519883 -22.9375 32.0625 C-21.30403779 32.0574869 -19.67057414 32.05292366 -18.03710938 32.04882812 C-14.02470415 32.03777954 -10.01236759 32.02050506 -6 32 C-6.46310094 30.54808548 -6.93158146 29.09788605 -7.40234375 27.6484375 C-7.66265381 26.84067871 -7.92296387 26.03291992 -8.19116211 25.20068359 C-9.31255856 22.14959165 -10.2743213 20.81711913 -13 19 C-21.79443432 15.72168575 -28.98086939 15.05184083 -36.734375 21.42578125 Z " fill="#FFFFFF" transform="translate(743,164)"/>
<path d="M0 0 C0.74386963 0.00749268 1.48773926 0.01498535 2.25415039 0.02270508 C12.28755479 0.21828162 19.82688588 2.34551937 28.625 7.25 C28.625 7.91 28.625 8.57 28.625 9.25 C29.181875 9.4975 29.73875 9.745 30.3125 10 C33.04910913 11.47924818 35.30150869 13.18467439 37.625 15.25 C37.625 15.91 37.625 16.57 37.625 17.25 C38.285 17.25 38.945 17.25 39.625 17.25 C40.40122194 18.7472186 41.1706461 20.24796168 41.9375 21.75 C42.58138672 23.00296875 42.58138672 23.00296875 43.23828125 24.28125 C43.69589844 25.2609375 44.15351562 26.240625 44.625 27.25 C45.43904297 28.9825 45.43904297 28.9825 46.26953125 30.75 C48.39905328 36.57917953 48.06000627 42.62269313 48 48.75 C48.01160156 49.93464844 48.02320313 51.11929688 48.03515625 52.33984375 C48.01270076 59.05403646 47.44106916 64.14493404 44.625 70.25 C44.1609375 71.61125 44.1609375 71.61125 43.6875 73 C42.41513641 75.69441701 40.75776486 77.17996352 38.625 79.25 C37.635 80.8278125 37.635 80.8278125 36.625 82.4375 C34.625 85.25 34.625 85.25 32.375 86.125 C31.7975 86.16625 31.22 86.2075 30.625 86.25 C30.625 86.91 30.625 87.57 30.625 88.25 C29.635 88.25 28.645 88.25 27.625 88.25 C27.625 88.91 27.625 89.57 27.625 90.25 C19.48030314 94.60646576 12.00560533 94.46605485 2.96044922 94.49023438 C0.76361212 94.49993986 -1.43228821 94.53100021 -3.62890625 94.5625 C-5.04166117 94.56903153 -6.45442271 94.57428142 -7.8671875 94.578125 C-9.13933105 94.5874707 -10.41147461 94.59681641 -11.72216797 94.60644531 C-17.90736895 94.00289008 -22.8817947 91.06359296 -28.375 88.25 C-28.375 87.59 -28.375 86.93 -28.375 86.25 C-29.695 85.92 -31.015 85.59 -32.375 85.25 C-32.375 84.59 -32.375 83.93 -32.375 83.25 C-33.035 83.25 -33.695 83.25 -34.375 83.25 C-36.67148649 80.6885343 -37.375 79.77032428 -37.375 76.25 C-38.035 76.25 -38.695 76.25 -39.375 76.25 C-44.09120243 66.75990458 -46.48264174 58.99025342 -46.375 48.25 C-46.37371094 47.07179687 -46.37242187 45.89359375 -46.37109375 44.6796875 C-45.89356998 30.66205416 -40.48209231 20.67460245 -30.87890625 10.6953125 C-22.38201022 2.94460281 -11.23913582 -0.15036923 0 0 Z M-12.29296875 26.828125 C-17.97503862 33.05735715 -18.7218382 40.0493471 -18.6875 48.1875 C-18.70361328 48.94740234 -18.71972656 49.70730469 -18.73632812 50.49023438 C-18.74305523 58.36767045 -16.31567225 65.07415968 -11.375 71.25 C-10.385 71.25 -9.395 71.25 -8.375 71.25 C-8.375 71.91 -8.375 72.57 -8.375 73.25 C-5.34070323 74.76714839 -2.19898333 74.39363916 1.125 74.375 C1.81464844 74.37886719 2.50429688 74.38273437 3.21484375 74.38671875 C7.04666214 74.44040866 7.04666214 74.44040866 10.625 73.25 C10.625 72.59 10.625 71.93 10.625 71.25 C11.615 71.25 12.605 71.25 13.625 71.25 C19.83200387 65.04299613 20.83345345 56.66538963 21.625 48.25 C21.4317855 44.69673822 20.7419817 41.61839794 19.625 38.25 C19.356875 37.39019531 19.08875 36.53039062 18.8125 35.64453125 C18.12011919 33.49748498 17.39340081 31.37078624 16.625 29.25 C15.965 29.25 15.305 29.25 14.625 29.25 C14.28275391 28.32960937 14.28275391 28.32960937 13.93359375 27.390625 C12.22770472 24.60009608 10.72376978 24.12355358 7.6875 23 C6.81222656 22.66484375 5.93695313 22.3296875 5.03515625 21.984375 C-1.01420041 20.14113505 -7.55636719 22.93079907 -12.29296875 26.828125 Z " fill="#FFFFFF" transform="translate(492.375,158.75)"/>
<path d="M0 0 C8.91 0 17.82 0 27 0 C27 40.92 27 81.84 27 124 C18.42 124 9.84 124 1 124 C-1 122 -1 122 -1.24888897 119.86699581 C-1.24807182 118.53326601 -1.24807182 118.53326601 -1.24723816 117.17259216 C-1.25143265 116.15317535 -1.25562714 115.13375854 -1.25994873 114.08345032 C-1.25432922 112.96077255 -1.24870972 111.83809479 -1.24291992 110.68139648 C-1.24481827 109.50252869 -1.24671661 108.32366089 -1.24867249 107.10906982 C-1.25174821 103.87155901 -1.24585782 100.63421545 -1.23571944 97.39672351 C-1.22695078 94.01391929 -1.22869615 90.63111954 -1.2290802 87.24830627 C-1.22814313 81.56793917 -1.21945271 75.88762544 -1.20581055 70.20727539 C-1.19007701 63.6316409 -1.18481268 57.05606485 -1.1855461 50.4804129 C-1.18615557 44.16394133 -1.18105805 37.84748886 -1.17275429 31.53102303 C-1.16921574 28.83844923 -1.16739023 26.1458822 -1.16686058 23.4533062 C-1.16470463 19.69857681 -1.15597683 15.9439224 -1.14526367 12.18920898 C-1.14571686 11.06450699 -1.14617004 9.93980499 -1.14663696 8.78102112 C-1.14237198 7.76442413 -1.13810699 6.74782715 -1.13371277 5.70042419 C-1.13203692 4.81164802 -1.13036108 3.92287184 -1.12863445 3.00716305 C-1 1 -1 1 0 0 Z " fill="#FFFFFF" transform="translate(1081,129)"/>
<path d="M0 0 C2.78875519 2.93283601 3.37194322 4.95231691 3.328125 8.94921875 C3.32296875 9.87927734 3.3178125 10.80933594 3.3125 11.76757812 C3.291875 12.73115234 3.27125 13.69472656 3.25 14.6875 C3.24484375 15.66267578 3.2396875 16.63785156 3.234375 17.64257812 C3.1541718 24.8458282 3.1541718 24.8458282 2 26 C-1.46449857 26.17057159 -4.92229537 26.29694779 -8.390625 26.34179688 C-14.03184777 26.55309703 -17.25053086 27.97266662 -22 31 C-22.66 31 -23.32 31 -24 31 C-24.20496094 31.63808594 -24.40992188 32.27617187 -24.62109375 32.93359375 C-24.89050781 33.75988281 -25.15992188 34.58617187 -25.4375 35.4375 C-25.70433594 36.26121094 -25.97117187 37.08492187 -26.24609375 37.93359375 C-27 40 -27 40 -28 41 C-29.40042891 52.04891622 -29.11977195 63.26207983 -29.0625 74.375 C-29.05746967 76.09374868 -29.05290951 77.8124988 -29.04882812 79.53125 C-29.0379561 83.68753651 -29.02077804 87.8437517 -29 92 C-32.37131709 93.50367238 -35.03395237 94.25504157 -38.72265625 94.265625 C-39.59083984 94.26820313 -40.45902344 94.27078125 -41.35351562 94.2734375 C-42.24748047 94.26570313 -43.14144531 94.25796875 -44.0625 94.25 C-44.96033203 94.25773437 -45.85816406 94.26546875 -46.78320312 94.2734375 C-47.65009766 94.27085937 -48.51699219 94.26828125 -49.41015625 94.265625 C-50.19527588 94.26336914 -50.98039551 94.26111328 -51.78930664 94.25878906 C-54.24417053 93.97141681 -55.83156328 93.14584137 -58 92 C-58.0694394 80.7084605 -58.12278043 69.4169716 -58.15543652 58.12526226 C-58.17110796 52.88234109 -58.19237325 47.63956575 -58.22631836 42.39672852 C-58.25885901 37.33929316 -58.27684187 32.28199827 -58.28463173 27.22446632 C-58.29018476 25.2927002 -58.30102819 23.36094196 -58.31719017 21.42923546 C-58.33889413 18.72828796 -58.34196989 16.02792464 -58.34057617 13.3269043 C-58.351362 12.52417587 -58.36214783 11.72144745 -58.3732605 10.89439392 C-58.34301906 5.49613078 -58.34301906 5.49613078 -56.61849976 3.00184631 C-54.39104399 1.62305812 -52.79319203 1.64322795 -50.18359375 1.671875 C-49.25482422 1.67703125 -48.32605469 1.6821875 -47.36914062 1.6875 C-46.40169922 1.708125 -45.43425781 1.72875 -44.4375 1.75 C-42.98053711 1.75773438 -42.98053711 1.75773438 -41.49414062 1.765625 C-34.30896855 1.84551572 -34.30896855 1.84551572 -32 3 C-31.5859375 5.50390625 -31.5859375 5.50390625 -31.375 8.5625 C-31.30023437 9.57441406 -31.22546875 10.58632812 -31.1484375 11.62890625 C-31.09945312 12.41136719 -31.05046875 13.19382813 -31 14 C-30.67 13.34 -30.34 12.68 -30 12 C-29.34 12 -28.68 12 -28 12 C-28 11.34 -28 10.68 -28 10 C-27.34 10 -26.68 10 -26 10 C-25.67 9.01 -25.34 8.02 -25 7 C-17.85327558 1.25191854 -9.1608895 -1.69699366 0 0 Z " fill="#FFFFFF" transform="translate(828,159)"/>
<path d="M0 0 C1.12019531 -0.00128906 2.24039063 -0.00257813 3.39453125 -0.00390625 C4.57402344 -0.00003906 5.75351562 0.00382813 6.96875 0.0078125 C8.73798828 0.00201172 8.73798828 0.00201172 10.54296875 -0.00390625 C12.22326172 -0.00197266 12.22326172 -0.00197266 13.9375 0 C14.97326172 0.00112793 16.00902344 0.00225586 17.07617188 0.00341797 C19.46875 0.1328125 19.46875 0.1328125 20.46875 1.1328125 C20.57117005 2.69697016 20.6039456 4.2657382 20.60919189 5.83323669 C20.61775711 7.35813217 20.61775711 7.35813217 20.62649536 8.91383362 C20.62761322 10.03853561 20.62873108 11.16323761 20.62988281 12.32202148 C20.63484772 13.49913696 20.63981262 14.67625244 20.64492798 15.88903809 C20.6570608 19.12661905 20.66450094 22.36416386 20.66893864 25.60176349 C20.67186566 27.62245703 20.67596972 29.64314485 20.68044281 31.66383553 C20.69412273 37.98029856 20.70378722 44.29674857 20.7076447 50.6132254 C20.71212825 57.91563223 20.72968765 65.21785213 20.7586453 72.5202021 C20.78022795 78.1575781 20.79034713 83.79490138 20.79168582 89.43231827 C20.79273623 92.80268881 20.79869362 96.17288377 20.81650543 99.54321098 C20.83346293 103.30035646 20.83171093 107.05704133 20.82519531 110.81420898 C20.8344101 111.93688675 20.84362488 113.05956451 20.8531189 114.21626282 C20.84754974 115.23567963 20.84198059 116.25509644 20.83624268 117.30540466 C20.83770924 118.19455787 20.8391758 119.08371107 20.8406868 119.99980831 C20.65657808 121.05564538 20.65657808 121.05564538 20.46875 122.1328125 C17.2025547 124.31027603 16.21929166 124.38887679 12.43359375 124.3984375 C11.45970703 124.40101563 10.48582031 124.40359375 9.48242188 124.40625 C8.46728516 124.39851563 7.45214844 124.39078125 6.40625 124.3828125 C5.38724609 124.39054687 4.36824219 124.39828125 3.31835938 124.40625 C2.34576172 124.40367187 1.37316406 124.40109375 0.37109375 124.3984375 C-0.52101807 124.39618164 -1.41312988 124.39392578 -2.33227539 124.39160156 C-4.53125 124.1328125 -4.53125 124.1328125 -6.53125 122.1328125 C-6.78013897 119.99980831 -6.78013897 119.99980831 -6.77848816 117.30540466 C-6.78268265 116.28598785 -6.78687714 115.26657104 -6.79119873 114.21626282 C-6.78557922 113.09358505 -6.77995972 111.97090729 -6.77416992 110.81420898 C-6.77606827 109.63534119 -6.77796661 108.45647339 -6.77992249 107.24188232 C-6.78299821 104.00437151 -6.77710782 100.76702795 -6.76696944 97.52953601 C-6.75820078 94.14673179 -6.75994615 90.76393204 -6.7603302 87.38111877 C-6.75939313 81.70075167 -6.75070271 76.02043794 -6.73706055 70.34008789 C-6.72132701 63.7644534 -6.71606268 57.18887735 -6.7167961 50.6132254 C-6.71740557 44.29675383 -6.71230805 37.98030136 -6.70400429 31.66383553 C-6.70046574 28.97126173 -6.69864023 26.2786947 -6.69811058 23.5861187 C-6.69595463 19.83138931 -6.68722683 16.0767349 -6.67651367 12.32202148 C-6.67696686 11.19731949 -6.67742004 10.07261749 -6.67788696 8.91383362 C-6.67362198 7.89723663 -6.66935699 6.88063965 -6.66496277 5.83323669 C-6.66328692 4.94446052 -6.66161108 4.05568434 -6.65988445 3.13997555 C-6.39351921 -1.0162863 -3.52323998 0.00383676 0 0 Z " fill="#FFFFFF" transform="translate(554.53125,128.8671875)"/>
<path d="M0 0 C1.01900391 0.00837891 2.03800781 0.01675781 3.08789062 0.02539062 C4.15072266 0.05439453 5.21355469 0.08339844 6.30859375 0.11328125 C7.90864258 0.1277832 7.90864258 0.1277832 9.54101562 0.14257812 C17.40889748 0.25718312 17.40889748 0.25718312 19.74609375 1.42578125 C21.1980725 10.73511869 20.92829751 20.21255811 20.94921875 29.61328125 C20.95204613 30.47318665 20.9548735 31.33309204 20.95778656 32.21905518 C20.97267921 36.75362446 20.98197608 41.28816263 20.98632812 45.82275391 C20.99185424 50.50818658 21.01599618 55.1933347 21.04430008 59.87867737 C21.06286787 63.48680486 21.06812851 67.0948622 21.069664 70.70303345 C21.07269525 72.43187039 21.08073963 74.16070596 21.09384918 75.88949585 C21.11081624 78.29504805 21.10905492 80.6998818 21.10253906 83.10546875 C21.11175385 83.82127609 21.12096863 84.53708344 21.13046265 85.27458191 C21.11358643 87.25341797 21.11358643 87.25341797 20.74609375 90.42578125 C17.47651204 92.60550239 16.53051137 92.67378318 12.74609375 92.65625 C11.77671875 92.65431641 10.80734375 92.65238281 9.80859375 92.65039062 C8.79796875 92.63814453 7.78734375 92.62589844 6.74609375 92.61328125 C5.73546875 92.61263672 4.72484375 92.61199219 3.68359375 92.61132812 C-3.83218993 92.56635336 -3.83218993 92.56635336 -7.25390625 91.42578125 C-8.1773081 86.72013601 -8.40771612 82.15176577 -8.41503906 77.37255859 C-8.42000397 76.58806839 -8.42496887 75.80357819 -8.43008423 74.99531555 C-8.44461173 72.41744086 -8.45148938 69.83962753 -8.45703125 67.26171875 C-8.46278716 65.46383666 -8.46854484 63.66595458 -8.4743042 61.86807251 C-8.48478504 58.10735795 -8.49064785 54.3466646 -8.49414062 50.5859375 C-8.49964218 45.76606874 -8.52371766 40.94648007 -8.55211258 36.12669945 C-8.57072083 32.41725841 -8.57594342 28.70788541 -8.5774765 24.99840164 C-8.58050386 23.22097861 -8.58853521 21.4435568 -8.60166168 19.66617966 C-8.61869657 17.18397203 -8.61684929 14.70245703 -8.61035156 12.22021484 C-8.61956635 11.4866124 -8.62878113 10.75300995 -8.63827515 9.99717712 C-8.61257831 6.8670652 -8.42151916 4.72625553 -6.88288879 1.96800232 C-4.59475838 -0.19825965 -3.11300084 -0.04854425 0 0 Z " fill="#FFFFFF" transform="translate(1049.25390625,160.57421875)"/>
<path d="M0 0 C1.03688965 0.01047363 2.0737793 0.02094727 3.14208984 0.03173828 C4.26357422 0.03818359 5.38505859 0.04462891 6.54052734 0.05126953 C7.71615234 0.06802734 8.89177734 0.08478516 10.10302734 0.10205078 C11.87806641 0.11558594 11.87806641 0.11558594 13.68896484 0.12939453 C16.61885257 0.15302266 19.54834075 0.18596564 22.47802734 0.22705078 C24.31482326 4.48485019 24.71995885 7.6907341 24.66552734 12.35205078 C24.65908203 13.57150391 24.65263672 14.79095703 24.64599609 16.04736328 C24.47802734 19.22705078 24.47802734 19.22705078 23.47802734 22.22705078 C14.56802734 22.22705078 5.65802734 22.22705078 -3.52197266 22.22705078 C-4.2931932 17.59972754 -4.68477901 13.61945573 -4.70947266 8.97705078 C-4.72365234 7.75501953 -4.73783203 6.53298828 -4.75244141 5.27392578 C-4.46419191 1.46316977 -3.88832391 0.35006208 0 0 Z " fill="#FFFFFF" transform="translate(1045.52197265625,128.77294921875)"/>
</svg>
